%TF.GenerationSoftware,KiCad,Pcbnew,8.0.8*%
%TF.CreationDate,2025-11-10T08:35:00-07:00*%
%TF.ProjectId,WiegandTest,57696567-616e-4645-9465-73742e6b6963,A*%
%TF.SameCoordinates,Original*%
%TF.FileFunction,Drillmap*%
%TF.FilePolarity,Positive*%
%FSLAX45Y45*%
G04 Gerber Fmt 4.5, Leading zero omitted, Abs format (unit mm)*
G04 Created by KiCad (PCBNEW 8.0.8) date 2025-11-10 08:35:00*
%MOMM*%
%LPD*%
G01*
G04 APERTURE LIST*
%ADD10C,0.050000*%
%ADD11C,0.200000*%
%ADD12C,0.150000*%
%ADD13C,0.180000*%
%ADD14C,0.250000*%
%ADD15C,0.320000*%
G04 APERTURE END LIST*
D10*
X6985000Y-5207000D02*
X19177000Y-5207000D01*
X19177000Y-13335000D01*
X6985000Y-13335000D01*
X6985000Y-5207000D01*
D11*
D12*
X10251440Y-12801760D02*
X10401440Y-12951760D01*
X10401440Y-12801760D02*
X10251440Y-12951760D01*
X10736440Y-12801760D02*
X10886440Y-12951760D01*
X10886440Y-12801760D02*
X10736440Y-12951760D01*
D13*
X10386440Y-13179760D02*
G75*
G02*
X10206440Y-13179760I-90000J0D01*
G01*
X10206440Y-13179760D02*
G75*
G02*
X10386440Y-13179760I90000J0D01*
G01*
X10931440Y-13179760D02*
G75*
G02*
X10751440Y-13179760I-90000J0D01*
G01*
X10751440Y-13179760D02*
G75*
G02*
X10931440Y-13179760I90000J0D01*
G01*
D14*
X7678420Y-11863800D02*
X7678420Y-12113800D01*
X7553420Y-11988800D02*
X7803420Y-11988800D01*
X7680960Y-6270720D02*
X7680960Y-6520720D01*
X7555960Y-6395720D02*
X7805960Y-6395720D01*
X17894300Y-6273260D02*
X17894300Y-6523260D01*
X17769300Y-6398260D02*
X18019300Y-6398260D01*
X17894300Y-11863800D02*
X17894300Y-12113800D01*
X17769300Y-11988800D02*
X18019300Y-11988800D01*
D15*
X7606138Y-5828138D02*
X7606138Y-5601862D01*
X7379862Y-5601862D01*
X7379862Y-5828138D01*
X7606138Y-5828138D01*
X7606138Y-12940138D02*
X7606138Y-12713862D01*
X7379862Y-12713862D01*
X7379862Y-12940138D01*
X7606138Y-12940138D01*
X18782138Y-5828138D02*
X18782138Y-5601862D01*
X18555862Y-5601862D01*
X18555862Y-5828138D01*
X18782138Y-5828138D01*
X18782138Y-12940138D02*
X18782138Y-12713862D01*
X18555862Y-12713862D01*
X18555862Y-12940138D01*
X18782138Y-12940138D01*
D11*
X7243277Y-13648984D02*
X7243277Y-13448984D01*
X7243277Y-13448984D02*
X7290896Y-13448984D01*
X7290896Y-13448984D02*
X7319467Y-13458508D01*
X7319467Y-13458508D02*
X7338515Y-13477555D01*
X7338515Y-13477555D02*
X7348039Y-13496603D01*
X7348039Y-13496603D02*
X7357562Y-13534698D01*
X7357562Y-13534698D02*
X7357562Y-13563269D01*
X7357562Y-13563269D02*
X7348039Y-13601365D01*
X7348039Y-13601365D02*
X7338515Y-13620412D01*
X7338515Y-13620412D02*
X7319467Y-13639460D01*
X7319467Y-13639460D02*
X7290896Y-13648984D01*
X7290896Y-13648984D02*
X7243277Y-13648984D01*
X7443277Y-13648984D02*
X7443277Y-13515650D01*
X7443277Y-13553746D02*
X7452801Y-13534698D01*
X7452801Y-13534698D02*
X7462324Y-13525174D01*
X7462324Y-13525174D02*
X7481372Y-13515650D01*
X7481372Y-13515650D02*
X7500420Y-13515650D01*
X7567086Y-13648984D02*
X7567086Y-13515650D01*
X7567086Y-13448984D02*
X7557562Y-13458508D01*
X7557562Y-13458508D02*
X7567086Y-13468031D01*
X7567086Y-13468031D02*
X7576610Y-13458508D01*
X7576610Y-13458508D02*
X7567086Y-13448984D01*
X7567086Y-13448984D02*
X7567086Y-13468031D01*
X7690896Y-13648984D02*
X7671848Y-13639460D01*
X7671848Y-13639460D02*
X7662324Y-13620412D01*
X7662324Y-13620412D02*
X7662324Y-13448984D01*
X7795658Y-13648984D02*
X7776610Y-13639460D01*
X7776610Y-13639460D02*
X7767086Y-13620412D01*
X7767086Y-13620412D02*
X7767086Y-13448984D01*
X8024229Y-13648984D02*
X8024229Y-13448984D01*
X8024229Y-13448984D02*
X8090896Y-13591841D01*
X8090896Y-13591841D02*
X8157562Y-13448984D01*
X8157562Y-13448984D02*
X8157562Y-13648984D01*
X8338515Y-13648984D02*
X8338515Y-13544222D01*
X8338515Y-13544222D02*
X8328991Y-13525174D01*
X8328991Y-13525174D02*
X8309943Y-13515650D01*
X8309943Y-13515650D02*
X8271848Y-13515650D01*
X8271848Y-13515650D02*
X8252801Y-13525174D01*
X8338515Y-13639460D02*
X8319467Y-13648984D01*
X8319467Y-13648984D02*
X8271848Y-13648984D01*
X8271848Y-13648984D02*
X8252801Y-13639460D01*
X8252801Y-13639460D02*
X8243277Y-13620412D01*
X8243277Y-13620412D02*
X8243277Y-13601365D01*
X8243277Y-13601365D02*
X8252801Y-13582317D01*
X8252801Y-13582317D02*
X8271848Y-13572793D01*
X8271848Y-13572793D02*
X8319467Y-13572793D01*
X8319467Y-13572793D02*
X8338515Y-13563269D01*
X8433753Y-13515650D02*
X8433753Y-13715650D01*
X8433753Y-13525174D02*
X8452801Y-13515650D01*
X8452801Y-13515650D02*
X8490896Y-13515650D01*
X8490896Y-13515650D02*
X8509944Y-13525174D01*
X8509944Y-13525174D02*
X8519467Y-13534698D01*
X8519467Y-13534698D02*
X8528991Y-13553746D01*
X8528991Y-13553746D02*
X8528991Y-13610888D01*
X8528991Y-13610888D02*
X8519467Y-13629936D01*
X8519467Y-13629936D02*
X8509944Y-13639460D01*
X8509944Y-13639460D02*
X8490896Y-13648984D01*
X8490896Y-13648984D02*
X8452801Y-13648984D01*
X8452801Y-13648984D02*
X8433753Y-13639460D01*
X8614705Y-13629936D02*
X8624229Y-13639460D01*
X8624229Y-13639460D02*
X8614705Y-13648984D01*
X8614705Y-13648984D02*
X8605182Y-13639460D01*
X8605182Y-13639460D02*
X8614705Y-13629936D01*
X8614705Y-13629936D02*
X8614705Y-13648984D01*
X8614705Y-13525174D02*
X8624229Y-13534698D01*
X8624229Y-13534698D02*
X8614705Y-13544222D01*
X8614705Y-13544222D02*
X8605182Y-13534698D01*
X8605182Y-13534698D02*
X8614705Y-13525174D01*
X8614705Y-13525174D02*
X8614705Y-13544222D01*
D12*
X6832500Y-13902500D02*
X6982500Y-14052500D01*
X6982500Y-13902500D02*
X6832500Y-14052500D01*
D11*
X7348039Y-14068984D02*
X7233753Y-14068984D01*
X7290896Y-14068984D02*
X7290896Y-13868984D01*
X7290896Y-13868984D02*
X7271848Y-13897555D01*
X7271848Y-13897555D02*
X7252801Y-13916603D01*
X7252801Y-13916603D02*
X7233753Y-13926127D01*
X7433753Y-14049936D02*
X7443277Y-14059460D01*
X7443277Y-14059460D02*
X7433753Y-14068984D01*
X7433753Y-14068984D02*
X7424229Y-14059460D01*
X7424229Y-14059460D02*
X7433753Y-14049936D01*
X7433753Y-14049936D02*
X7433753Y-14068984D01*
X7624229Y-13868984D02*
X7528991Y-13868984D01*
X7528991Y-13868984D02*
X7519467Y-13964222D01*
X7519467Y-13964222D02*
X7528991Y-13954698D01*
X7528991Y-13954698D02*
X7548039Y-13945174D01*
X7548039Y-13945174D02*
X7595658Y-13945174D01*
X7595658Y-13945174D02*
X7614705Y-13954698D01*
X7614705Y-13954698D02*
X7624229Y-13964222D01*
X7624229Y-13964222D02*
X7633753Y-13983269D01*
X7633753Y-13983269D02*
X7633753Y-14030888D01*
X7633753Y-14030888D02*
X7624229Y-14049936D01*
X7624229Y-14049936D02*
X7614705Y-14059460D01*
X7614705Y-14059460D02*
X7595658Y-14068984D01*
X7595658Y-14068984D02*
X7548039Y-14068984D01*
X7548039Y-14068984D02*
X7528991Y-14059460D01*
X7528991Y-14059460D02*
X7519467Y-14049936D01*
X7757562Y-13868984D02*
X7776610Y-13868984D01*
X7776610Y-13868984D02*
X7795658Y-13878508D01*
X7795658Y-13878508D02*
X7805182Y-13888031D01*
X7805182Y-13888031D02*
X7814705Y-13907079D01*
X7814705Y-13907079D02*
X7824229Y-13945174D01*
X7824229Y-13945174D02*
X7824229Y-13992793D01*
X7824229Y-13992793D02*
X7814705Y-14030888D01*
X7814705Y-14030888D02*
X7805182Y-14049936D01*
X7805182Y-14049936D02*
X7795658Y-14059460D01*
X7795658Y-14059460D02*
X7776610Y-14068984D01*
X7776610Y-14068984D02*
X7757562Y-14068984D01*
X7757562Y-14068984D02*
X7738515Y-14059460D01*
X7738515Y-14059460D02*
X7728991Y-14049936D01*
X7728991Y-14049936D02*
X7719467Y-14030888D01*
X7719467Y-14030888D02*
X7709943Y-13992793D01*
X7709943Y-13992793D02*
X7709943Y-13945174D01*
X7709943Y-13945174D02*
X7719467Y-13907079D01*
X7719467Y-13907079D02*
X7728991Y-13888031D01*
X7728991Y-13888031D02*
X7738515Y-13878508D01*
X7738515Y-13878508D02*
X7757562Y-13868984D01*
X7948039Y-13868984D02*
X7967086Y-13868984D01*
X7967086Y-13868984D02*
X7986134Y-13878508D01*
X7986134Y-13878508D02*
X7995658Y-13888031D01*
X7995658Y-13888031D02*
X8005182Y-13907079D01*
X8005182Y-13907079D02*
X8014705Y-13945174D01*
X8014705Y-13945174D02*
X8014705Y-13992793D01*
X8014705Y-13992793D02*
X8005182Y-14030888D01*
X8005182Y-14030888D02*
X7995658Y-14049936D01*
X7995658Y-14049936D02*
X7986134Y-14059460D01*
X7986134Y-14059460D02*
X7967086Y-14068984D01*
X7967086Y-14068984D02*
X7948039Y-14068984D01*
X7948039Y-14068984D02*
X7928991Y-14059460D01*
X7928991Y-14059460D02*
X7919467Y-14049936D01*
X7919467Y-14049936D02*
X7909943Y-14030888D01*
X7909943Y-14030888D02*
X7900420Y-13992793D01*
X7900420Y-13992793D02*
X7900420Y-13945174D01*
X7900420Y-13945174D02*
X7909943Y-13907079D01*
X7909943Y-13907079D02*
X7919467Y-13888031D01*
X7919467Y-13888031D02*
X7928991Y-13878508D01*
X7928991Y-13878508D02*
X7948039Y-13868984D01*
X8100420Y-14068984D02*
X8100420Y-13935650D01*
X8100420Y-13954698D02*
X8109943Y-13945174D01*
X8109943Y-13945174D02*
X8128991Y-13935650D01*
X8128991Y-13935650D02*
X8157563Y-13935650D01*
X8157563Y-13935650D02*
X8176610Y-13945174D01*
X8176610Y-13945174D02*
X8186134Y-13964222D01*
X8186134Y-13964222D02*
X8186134Y-14068984D01*
X8186134Y-13964222D02*
X8195658Y-13945174D01*
X8195658Y-13945174D02*
X8214705Y-13935650D01*
X8214705Y-13935650D02*
X8243277Y-13935650D01*
X8243277Y-13935650D02*
X8262324Y-13945174D01*
X8262324Y-13945174D02*
X8271848Y-13964222D01*
X8271848Y-13964222D02*
X8271848Y-14068984D01*
X8367086Y-14068984D02*
X8367086Y-13935650D01*
X8367086Y-13954698D02*
X8376610Y-13945174D01*
X8376610Y-13945174D02*
X8395658Y-13935650D01*
X8395658Y-13935650D02*
X8424229Y-13935650D01*
X8424229Y-13935650D02*
X8443277Y-13945174D01*
X8443277Y-13945174D02*
X8452801Y-13964222D01*
X8452801Y-13964222D02*
X8452801Y-14068984D01*
X8452801Y-13964222D02*
X8462325Y-13945174D01*
X8462325Y-13945174D02*
X8481372Y-13935650D01*
X8481372Y-13935650D02*
X8509944Y-13935650D01*
X8509944Y-13935650D02*
X8528991Y-13945174D01*
X8528991Y-13945174D02*
X8538515Y-13964222D01*
X8538515Y-13964222D02*
X8538515Y-14068984D01*
X8928991Y-13859460D02*
X8757563Y-14116603D01*
X9186134Y-13868984D02*
X9205182Y-13868984D01*
X9205182Y-13868984D02*
X9224229Y-13878508D01*
X9224229Y-13878508D02*
X9233753Y-13888031D01*
X9233753Y-13888031D02*
X9243277Y-13907079D01*
X9243277Y-13907079D02*
X9252801Y-13945174D01*
X9252801Y-13945174D02*
X9252801Y-13992793D01*
X9252801Y-13992793D02*
X9243277Y-14030888D01*
X9243277Y-14030888D02*
X9233753Y-14049936D01*
X9233753Y-14049936D02*
X9224229Y-14059460D01*
X9224229Y-14059460D02*
X9205182Y-14068984D01*
X9205182Y-14068984D02*
X9186134Y-14068984D01*
X9186134Y-14068984D02*
X9167087Y-14059460D01*
X9167087Y-14059460D02*
X9157563Y-14049936D01*
X9157563Y-14049936D02*
X9148039Y-14030888D01*
X9148039Y-14030888D02*
X9138515Y-13992793D01*
X9138515Y-13992793D02*
X9138515Y-13945174D01*
X9138515Y-13945174D02*
X9148039Y-13907079D01*
X9148039Y-13907079D02*
X9157563Y-13888031D01*
X9157563Y-13888031D02*
X9167087Y-13878508D01*
X9167087Y-13878508D02*
X9186134Y-13868984D01*
X9338515Y-14049936D02*
X9348039Y-14059460D01*
X9348039Y-14059460D02*
X9338515Y-14068984D01*
X9338515Y-14068984D02*
X9328991Y-14059460D01*
X9328991Y-14059460D02*
X9338515Y-14049936D01*
X9338515Y-14049936D02*
X9338515Y-14068984D01*
X9471848Y-13868984D02*
X9490896Y-13868984D01*
X9490896Y-13868984D02*
X9509944Y-13878508D01*
X9509944Y-13878508D02*
X9519468Y-13888031D01*
X9519468Y-13888031D02*
X9528991Y-13907079D01*
X9528991Y-13907079D02*
X9538515Y-13945174D01*
X9538515Y-13945174D02*
X9538515Y-13992793D01*
X9538515Y-13992793D02*
X9528991Y-14030888D01*
X9528991Y-14030888D02*
X9519468Y-14049936D01*
X9519468Y-14049936D02*
X9509944Y-14059460D01*
X9509944Y-14059460D02*
X9490896Y-14068984D01*
X9490896Y-14068984D02*
X9471848Y-14068984D01*
X9471848Y-14068984D02*
X9452801Y-14059460D01*
X9452801Y-14059460D02*
X9443277Y-14049936D01*
X9443277Y-14049936D02*
X9433753Y-14030888D01*
X9433753Y-14030888D02*
X9424229Y-13992793D01*
X9424229Y-13992793D02*
X9424229Y-13945174D01*
X9424229Y-13945174D02*
X9433753Y-13907079D01*
X9433753Y-13907079D02*
X9443277Y-13888031D01*
X9443277Y-13888031D02*
X9452801Y-13878508D01*
X9452801Y-13878508D02*
X9471848Y-13868984D01*
X9719468Y-13868984D02*
X9624229Y-13868984D01*
X9624229Y-13868984D02*
X9614706Y-13964222D01*
X9614706Y-13964222D02*
X9624229Y-13954698D01*
X9624229Y-13954698D02*
X9643277Y-13945174D01*
X9643277Y-13945174D02*
X9690896Y-13945174D01*
X9690896Y-13945174D02*
X9709944Y-13954698D01*
X9709944Y-13954698D02*
X9719468Y-13964222D01*
X9719468Y-13964222D02*
X9728991Y-13983269D01*
X9728991Y-13983269D02*
X9728991Y-14030888D01*
X9728991Y-14030888D02*
X9719468Y-14049936D01*
X9719468Y-14049936D02*
X9709944Y-14059460D01*
X9709944Y-14059460D02*
X9690896Y-14068984D01*
X9690896Y-14068984D02*
X9643277Y-14068984D01*
X9643277Y-14068984D02*
X9624229Y-14059460D01*
X9624229Y-14059460D02*
X9614706Y-14049936D01*
X9824229Y-14068984D02*
X9862325Y-14068984D01*
X9862325Y-14068984D02*
X9881372Y-14059460D01*
X9881372Y-14059460D02*
X9890896Y-14049936D01*
X9890896Y-14049936D02*
X9909944Y-14021365D01*
X9909944Y-14021365D02*
X9919468Y-13983269D01*
X9919468Y-13983269D02*
X9919468Y-13907079D01*
X9919468Y-13907079D02*
X9909944Y-13888031D01*
X9909944Y-13888031D02*
X9900420Y-13878508D01*
X9900420Y-13878508D02*
X9881372Y-13868984D01*
X9881372Y-13868984D02*
X9843277Y-13868984D01*
X9843277Y-13868984D02*
X9824229Y-13878508D01*
X9824229Y-13878508D02*
X9814706Y-13888031D01*
X9814706Y-13888031D02*
X9805182Y-13907079D01*
X9805182Y-13907079D02*
X9805182Y-13954698D01*
X9805182Y-13954698D02*
X9814706Y-13973746D01*
X9814706Y-13973746D02*
X9824229Y-13983269D01*
X9824229Y-13983269D02*
X9843277Y-13992793D01*
X9843277Y-13992793D02*
X9881372Y-13992793D01*
X9881372Y-13992793D02*
X9900420Y-13983269D01*
X9900420Y-13983269D02*
X9909944Y-13973746D01*
X9909944Y-13973746D02*
X9919468Y-13954698D01*
X10109944Y-14068984D02*
X9995658Y-14068984D01*
X10052801Y-14068984D02*
X10052801Y-13868984D01*
X10052801Y-13868984D02*
X10033753Y-13897555D01*
X10033753Y-13897555D02*
X10014706Y-13916603D01*
X10014706Y-13916603D02*
X9995658Y-13926127D01*
X10186134Y-13868984D02*
X10186134Y-13907079D01*
X10262325Y-13868984D02*
X10262325Y-13907079D01*
X10557563Y-14145174D02*
X10548039Y-14135650D01*
X10548039Y-14135650D02*
X10528991Y-14107079D01*
X10528991Y-14107079D02*
X10519468Y-14088031D01*
X10519468Y-14088031D02*
X10509944Y-14059460D01*
X10509944Y-14059460D02*
X10500420Y-14011841D01*
X10500420Y-14011841D02*
X10500420Y-13973746D01*
X10500420Y-13973746D02*
X10509944Y-13926127D01*
X10509944Y-13926127D02*
X10519468Y-13897555D01*
X10519468Y-13897555D02*
X10528991Y-13878508D01*
X10528991Y-13878508D02*
X10548039Y-13849936D01*
X10548039Y-13849936D02*
X10557563Y-13840412D01*
X10624230Y-13888031D02*
X10633753Y-13878508D01*
X10633753Y-13878508D02*
X10652801Y-13868984D01*
X10652801Y-13868984D02*
X10700420Y-13868984D01*
X10700420Y-13868984D02*
X10719468Y-13878508D01*
X10719468Y-13878508D02*
X10728991Y-13888031D01*
X10728991Y-13888031D02*
X10738515Y-13907079D01*
X10738515Y-13907079D02*
X10738515Y-13926127D01*
X10738515Y-13926127D02*
X10728991Y-13954698D01*
X10728991Y-13954698D02*
X10614706Y-14068984D01*
X10614706Y-14068984D02*
X10738515Y-14068984D01*
X10976611Y-14068984D02*
X10976611Y-13868984D01*
X11062325Y-14068984D02*
X11062325Y-13964222D01*
X11062325Y-13964222D02*
X11052801Y-13945174D01*
X11052801Y-13945174D02*
X11033753Y-13935650D01*
X11033753Y-13935650D02*
X11005182Y-13935650D01*
X11005182Y-13935650D02*
X10986134Y-13945174D01*
X10986134Y-13945174D02*
X10976611Y-13954698D01*
X11186134Y-14068984D02*
X11167087Y-14059460D01*
X11167087Y-14059460D02*
X11157563Y-14049936D01*
X11157563Y-14049936D02*
X11148039Y-14030888D01*
X11148039Y-14030888D02*
X11148039Y-13973746D01*
X11148039Y-13973746D02*
X11157563Y-13954698D01*
X11157563Y-13954698D02*
X11167087Y-13945174D01*
X11167087Y-13945174D02*
X11186134Y-13935650D01*
X11186134Y-13935650D02*
X11214706Y-13935650D01*
X11214706Y-13935650D02*
X11233753Y-13945174D01*
X11233753Y-13945174D02*
X11243277Y-13954698D01*
X11243277Y-13954698D02*
X11252801Y-13973746D01*
X11252801Y-13973746D02*
X11252801Y-14030888D01*
X11252801Y-14030888D02*
X11243277Y-14049936D01*
X11243277Y-14049936D02*
X11233753Y-14059460D01*
X11233753Y-14059460D02*
X11214706Y-14068984D01*
X11214706Y-14068984D02*
X11186134Y-14068984D01*
X11367087Y-14068984D02*
X11348039Y-14059460D01*
X11348039Y-14059460D02*
X11338515Y-14040412D01*
X11338515Y-14040412D02*
X11338515Y-13868984D01*
X11519468Y-14059460D02*
X11500420Y-14068984D01*
X11500420Y-14068984D02*
X11462325Y-14068984D01*
X11462325Y-14068984D02*
X11443277Y-14059460D01*
X11443277Y-14059460D02*
X11433753Y-14040412D01*
X11433753Y-14040412D02*
X11433753Y-13964222D01*
X11433753Y-13964222D02*
X11443277Y-13945174D01*
X11443277Y-13945174D02*
X11462325Y-13935650D01*
X11462325Y-13935650D02*
X11500420Y-13935650D01*
X11500420Y-13935650D02*
X11519468Y-13945174D01*
X11519468Y-13945174D02*
X11528991Y-13964222D01*
X11528991Y-13964222D02*
X11528991Y-13983269D01*
X11528991Y-13983269D02*
X11433753Y-14002317D01*
X11605182Y-14059460D02*
X11624230Y-14068984D01*
X11624230Y-14068984D02*
X11662325Y-14068984D01*
X11662325Y-14068984D02*
X11681372Y-14059460D01*
X11681372Y-14059460D02*
X11690896Y-14040412D01*
X11690896Y-14040412D02*
X11690896Y-14030888D01*
X11690896Y-14030888D02*
X11681372Y-14011841D01*
X11681372Y-14011841D02*
X11662325Y-14002317D01*
X11662325Y-14002317D02*
X11633753Y-14002317D01*
X11633753Y-14002317D02*
X11614706Y-13992793D01*
X11614706Y-13992793D02*
X11605182Y-13973746D01*
X11605182Y-13973746D02*
X11605182Y-13964222D01*
X11605182Y-13964222D02*
X11614706Y-13945174D01*
X11614706Y-13945174D02*
X11633753Y-13935650D01*
X11633753Y-13935650D02*
X11662325Y-13935650D01*
X11662325Y-13935650D02*
X11681372Y-13945174D01*
X11757563Y-14145174D02*
X11767087Y-14135650D01*
X11767087Y-14135650D02*
X11786134Y-14107079D01*
X11786134Y-14107079D02*
X11795658Y-14088031D01*
X11795658Y-14088031D02*
X11805182Y-14059460D01*
X11805182Y-14059460D02*
X11814706Y-14011841D01*
X11814706Y-14011841D02*
X11814706Y-13973746D01*
X11814706Y-13973746D02*
X11805182Y-13926127D01*
X11805182Y-13926127D02*
X11795658Y-13897555D01*
X11795658Y-13897555D02*
X11786134Y-13878508D01*
X11786134Y-13878508D02*
X11767087Y-13849936D01*
X11767087Y-13849936D02*
X11757563Y-13840412D01*
X12119468Y-14145174D02*
X12109944Y-14135650D01*
X12109944Y-14135650D02*
X12090896Y-14107079D01*
X12090896Y-14107079D02*
X12081372Y-14088031D01*
X12081372Y-14088031D02*
X12071849Y-14059460D01*
X12071849Y-14059460D02*
X12062325Y-14011841D01*
X12062325Y-14011841D02*
X12062325Y-13973746D01*
X12062325Y-13973746D02*
X12071849Y-13926127D01*
X12071849Y-13926127D02*
X12081372Y-13897555D01*
X12081372Y-13897555D02*
X12090896Y-13878508D01*
X12090896Y-13878508D02*
X12109944Y-13849936D01*
X12109944Y-13849936D02*
X12119468Y-13840412D01*
X12195658Y-13935650D02*
X12195658Y-14068984D01*
X12195658Y-13954698D02*
X12205182Y-13945174D01*
X12205182Y-13945174D02*
X12224230Y-13935650D01*
X12224230Y-13935650D02*
X12252801Y-13935650D01*
X12252801Y-13935650D02*
X12271849Y-13945174D01*
X12271849Y-13945174D02*
X12281372Y-13964222D01*
X12281372Y-13964222D02*
X12281372Y-14068984D01*
X12405182Y-14068984D02*
X12386134Y-14059460D01*
X12386134Y-14059460D02*
X12376611Y-14049936D01*
X12376611Y-14049936D02*
X12367087Y-14030888D01*
X12367087Y-14030888D02*
X12367087Y-13973746D01*
X12367087Y-13973746D02*
X12376611Y-13954698D01*
X12376611Y-13954698D02*
X12386134Y-13945174D01*
X12386134Y-13945174D02*
X12405182Y-13935650D01*
X12405182Y-13935650D02*
X12433753Y-13935650D01*
X12433753Y-13935650D02*
X12452801Y-13945174D01*
X12452801Y-13945174D02*
X12462325Y-13954698D01*
X12462325Y-13954698D02*
X12471849Y-13973746D01*
X12471849Y-13973746D02*
X12471849Y-14030888D01*
X12471849Y-14030888D02*
X12462325Y-14049936D01*
X12462325Y-14049936D02*
X12452801Y-14059460D01*
X12452801Y-14059460D02*
X12433753Y-14068984D01*
X12433753Y-14068984D02*
X12405182Y-14068984D01*
X12528992Y-13935650D02*
X12605182Y-13935650D01*
X12557563Y-13868984D02*
X12557563Y-14040412D01*
X12557563Y-14040412D02*
X12567087Y-14059460D01*
X12567087Y-14059460D02*
X12586134Y-14068984D01*
X12586134Y-14068984D02*
X12605182Y-14068984D01*
X12824230Y-13935650D02*
X12824230Y-14135650D01*
X12824230Y-13945174D02*
X12843277Y-13935650D01*
X12843277Y-13935650D02*
X12881373Y-13935650D01*
X12881373Y-13935650D02*
X12900420Y-13945174D01*
X12900420Y-13945174D02*
X12909944Y-13954698D01*
X12909944Y-13954698D02*
X12919468Y-13973746D01*
X12919468Y-13973746D02*
X12919468Y-14030888D01*
X12919468Y-14030888D02*
X12909944Y-14049936D01*
X12909944Y-14049936D02*
X12900420Y-14059460D01*
X12900420Y-14059460D02*
X12881373Y-14068984D01*
X12881373Y-14068984D02*
X12843277Y-14068984D01*
X12843277Y-14068984D02*
X12824230Y-14059460D01*
X13033753Y-14068984D02*
X13014706Y-14059460D01*
X13014706Y-14059460D02*
X13005182Y-14040412D01*
X13005182Y-14040412D02*
X13005182Y-13868984D01*
X13195658Y-14068984D02*
X13195658Y-13964222D01*
X13195658Y-13964222D02*
X13186134Y-13945174D01*
X13186134Y-13945174D02*
X13167087Y-13935650D01*
X13167087Y-13935650D02*
X13128992Y-13935650D01*
X13128992Y-13935650D02*
X13109944Y-13945174D01*
X13195658Y-14059460D02*
X13176611Y-14068984D01*
X13176611Y-14068984D02*
X13128992Y-14068984D01*
X13128992Y-14068984D02*
X13109944Y-14059460D01*
X13109944Y-14059460D02*
X13100420Y-14040412D01*
X13100420Y-14040412D02*
X13100420Y-14021365D01*
X13100420Y-14021365D02*
X13109944Y-14002317D01*
X13109944Y-14002317D02*
X13128992Y-13992793D01*
X13128992Y-13992793D02*
X13176611Y-13992793D01*
X13176611Y-13992793D02*
X13195658Y-13983269D01*
X13262325Y-13935650D02*
X13338515Y-13935650D01*
X13290896Y-13868984D02*
X13290896Y-14040412D01*
X13290896Y-14040412D02*
X13300420Y-14059460D01*
X13300420Y-14059460D02*
X13319468Y-14068984D01*
X13319468Y-14068984D02*
X13338515Y-14068984D01*
X13481373Y-14059460D02*
X13462325Y-14068984D01*
X13462325Y-14068984D02*
X13424230Y-14068984D01*
X13424230Y-14068984D02*
X13405182Y-14059460D01*
X13405182Y-14059460D02*
X13395658Y-14040412D01*
X13395658Y-14040412D02*
X13395658Y-13964222D01*
X13395658Y-13964222D02*
X13405182Y-13945174D01*
X13405182Y-13945174D02*
X13424230Y-13935650D01*
X13424230Y-13935650D02*
X13462325Y-13935650D01*
X13462325Y-13935650D02*
X13481373Y-13945174D01*
X13481373Y-13945174D02*
X13490896Y-13964222D01*
X13490896Y-13964222D02*
X13490896Y-13983269D01*
X13490896Y-13983269D02*
X13395658Y-14002317D01*
X13662325Y-14068984D02*
X13662325Y-13868984D01*
X13662325Y-14059460D02*
X13643277Y-14068984D01*
X13643277Y-14068984D02*
X13605182Y-14068984D01*
X13605182Y-14068984D02*
X13586134Y-14059460D01*
X13586134Y-14059460D02*
X13576611Y-14049936D01*
X13576611Y-14049936D02*
X13567087Y-14030888D01*
X13567087Y-14030888D02*
X13567087Y-13973746D01*
X13567087Y-13973746D02*
X13576611Y-13954698D01*
X13576611Y-13954698D02*
X13586134Y-13945174D01*
X13586134Y-13945174D02*
X13605182Y-13935650D01*
X13605182Y-13935650D02*
X13643277Y-13935650D01*
X13643277Y-13935650D02*
X13662325Y-13945174D01*
X13738515Y-14145174D02*
X13748039Y-14135650D01*
X13748039Y-14135650D02*
X13767087Y-14107079D01*
X13767087Y-14107079D02*
X13776611Y-14088031D01*
X13776611Y-14088031D02*
X13786134Y-14059460D01*
X13786134Y-14059460D02*
X13795658Y-14011841D01*
X13795658Y-14011841D02*
X13795658Y-13973746D01*
X13795658Y-13973746D02*
X13786134Y-13926127D01*
X13786134Y-13926127D02*
X13776611Y-13897555D01*
X13776611Y-13897555D02*
X13767087Y-13878508D01*
X13767087Y-13878508D02*
X13748039Y-13849936D01*
X13748039Y-13849936D02*
X13738515Y-13840412D01*
D13*
X6982500Y-14247500D02*
G75*
G02*
X6802500Y-14247500I-90000J0D01*
G01*
X6802500Y-14247500D02*
G75*
G02*
X6982500Y-14247500I90000J0D01*
G01*
D11*
X7348039Y-14338984D02*
X7233753Y-14338984D01*
X7290896Y-14338984D02*
X7290896Y-14138984D01*
X7290896Y-14138984D02*
X7271848Y-14167555D01*
X7271848Y-14167555D02*
X7252801Y-14186603D01*
X7252801Y-14186603D02*
X7233753Y-14196127D01*
X7433753Y-14319936D02*
X7443277Y-14329460D01*
X7443277Y-14329460D02*
X7433753Y-14338984D01*
X7433753Y-14338984D02*
X7424229Y-14329460D01*
X7424229Y-14329460D02*
X7433753Y-14319936D01*
X7433753Y-14319936D02*
X7433753Y-14338984D01*
X7557562Y-14224698D02*
X7538515Y-14215174D01*
X7538515Y-14215174D02*
X7528991Y-14205650D01*
X7528991Y-14205650D02*
X7519467Y-14186603D01*
X7519467Y-14186603D02*
X7519467Y-14177079D01*
X7519467Y-14177079D02*
X7528991Y-14158031D01*
X7528991Y-14158031D02*
X7538515Y-14148508D01*
X7538515Y-14148508D02*
X7557562Y-14138984D01*
X7557562Y-14138984D02*
X7595658Y-14138984D01*
X7595658Y-14138984D02*
X7614705Y-14148508D01*
X7614705Y-14148508D02*
X7624229Y-14158031D01*
X7624229Y-14158031D02*
X7633753Y-14177079D01*
X7633753Y-14177079D02*
X7633753Y-14186603D01*
X7633753Y-14186603D02*
X7624229Y-14205650D01*
X7624229Y-14205650D02*
X7614705Y-14215174D01*
X7614705Y-14215174D02*
X7595658Y-14224698D01*
X7595658Y-14224698D02*
X7557562Y-14224698D01*
X7557562Y-14224698D02*
X7538515Y-14234222D01*
X7538515Y-14234222D02*
X7528991Y-14243746D01*
X7528991Y-14243746D02*
X7519467Y-14262793D01*
X7519467Y-14262793D02*
X7519467Y-14300888D01*
X7519467Y-14300888D02*
X7528991Y-14319936D01*
X7528991Y-14319936D02*
X7538515Y-14329460D01*
X7538515Y-14329460D02*
X7557562Y-14338984D01*
X7557562Y-14338984D02*
X7595658Y-14338984D01*
X7595658Y-14338984D02*
X7614705Y-14329460D01*
X7614705Y-14329460D02*
X7624229Y-14319936D01*
X7624229Y-14319936D02*
X7633753Y-14300888D01*
X7633753Y-14300888D02*
X7633753Y-14262793D01*
X7633753Y-14262793D02*
X7624229Y-14243746D01*
X7624229Y-14243746D02*
X7614705Y-14234222D01*
X7614705Y-14234222D02*
X7595658Y-14224698D01*
X7757562Y-14138984D02*
X7776610Y-14138984D01*
X7776610Y-14138984D02*
X7795658Y-14148508D01*
X7795658Y-14148508D02*
X7805182Y-14158031D01*
X7805182Y-14158031D02*
X7814705Y-14177079D01*
X7814705Y-14177079D02*
X7824229Y-14215174D01*
X7824229Y-14215174D02*
X7824229Y-14262793D01*
X7824229Y-14262793D02*
X7814705Y-14300888D01*
X7814705Y-14300888D02*
X7805182Y-14319936D01*
X7805182Y-14319936D02*
X7795658Y-14329460D01*
X7795658Y-14329460D02*
X7776610Y-14338984D01*
X7776610Y-14338984D02*
X7757562Y-14338984D01*
X7757562Y-14338984D02*
X7738515Y-14329460D01*
X7738515Y-14329460D02*
X7728991Y-14319936D01*
X7728991Y-14319936D02*
X7719467Y-14300888D01*
X7719467Y-14300888D02*
X7709943Y-14262793D01*
X7709943Y-14262793D02*
X7709943Y-14215174D01*
X7709943Y-14215174D02*
X7719467Y-14177079D01*
X7719467Y-14177079D02*
X7728991Y-14158031D01*
X7728991Y-14158031D02*
X7738515Y-14148508D01*
X7738515Y-14148508D02*
X7757562Y-14138984D01*
X7948039Y-14138984D02*
X7967086Y-14138984D01*
X7967086Y-14138984D02*
X7986134Y-14148508D01*
X7986134Y-14148508D02*
X7995658Y-14158031D01*
X7995658Y-14158031D02*
X8005182Y-14177079D01*
X8005182Y-14177079D02*
X8014705Y-14215174D01*
X8014705Y-14215174D02*
X8014705Y-14262793D01*
X8014705Y-14262793D02*
X8005182Y-14300888D01*
X8005182Y-14300888D02*
X7995658Y-14319936D01*
X7995658Y-14319936D02*
X7986134Y-14329460D01*
X7986134Y-14329460D02*
X7967086Y-14338984D01*
X7967086Y-14338984D02*
X7948039Y-14338984D01*
X7948039Y-14338984D02*
X7928991Y-14329460D01*
X7928991Y-14329460D02*
X7919467Y-14319936D01*
X7919467Y-14319936D02*
X7909943Y-14300888D01*
X7909943Y-14300888D02*
X7900420Y-14262793D01*
X7900420Y-14262793D02*
X7900420Y-14215174D01*
X7900420Y-14215174D02*
X7909943Y-14177079D01*
X7909943Y-14177079D02*
X7919467Y-14158031D01*
X7919467Y-14158031D02*
X7928991Y-14148508D01*
X7928991Y-14148508D02*
X7948039Y-14138984D01*
X8100420Y-14338984D02*
X8100420Y-14205650D01*
X8100420Y-14224698D02*
X8109943Y-14215174D01*
X8109943Y-14215174D02*
X8128991Y-14205650D01*
X8128991Y-14205650D02*
X8157563Y-14205650D01*
X8157563Y-14205650D02*
X8176610Y-14215174D01*
X8176610Y-14215174D02*
X8186134Y-14234222D01*
X8186134Y-14234222D02*
X8186134Y-14338984D01*
X8186134Y-14234222D02*
X8195658Y-14215174D01*
X8195658Y-14215174D02*
X8214705Y-14205650D01*
X8214705Y-14205650D02*
X8243277Y-14205650D01*
X8243277Y-14205650D02*
X8262324Y-14215174D01*
X8262324Y-14215174D02*
X8271848Y-14234222D01*
X8271848Y-14234222D02*
X8271848Y-14338984D01*
X8367086Y-14338984D02*
X8367086Y-14205650D01*
X8367086Y-14224698D02*
X8376610Y-14215174D01*
X8376610Y-14215174D02*
X8395658Y-14205650D01*
X8395658Y-14205650D02*
X8424229Y-14205650D01*
X8424229Y-14205650D02*
X8443277Y-14215174D01*
X8443277Y-14215174D02*
X8452801Y-14234222D01*
X8452801Y-14234222D02*
X8452801Y-14338984D01*
X8452801Y-14234222D02*
X8462325Y-14215174D01*
X8462325Y-14215174D02*
X8481372Y-14205650D01*
X8481372Y-14205650D02*
X8509944Y-14205650D01*
X8509944Y-14205650D02*
X8528991Y-14215174D01*
X8528991Y-14215174D02*
X8538515Y-14234222D01*
X8538515Y-14234222D02*
X8538515Y-14338984D01*
X8928991Y-14129460D02*
X8757563Y-14386603D01*
X9186134Y-14138984D02*
X9205182Y-14138984D01*
X9205182Y-14138984D02*
X9224229Y-14148508D01*
X9224229Y-14148508D02*
X9233753Y-14158031D01*
X9233753Y-14158031D02*
X9243277Y-14177079D01*
X9243277Y-14177079D02*
X9252801Y-14215174D01*
X9252801Y-14215174D02*
X9252801Y-14262793D01*
X9252801Y-14262793D02*
X9243277Y-14300888D01*
X9243277Y-14300888D02*
X9233753Y-14319936D01*
X9233753Y-14319936D02*
X9224229Y-14329460D01*
X9224229Y-14329460D02*
X9205182Y-14338984D01*
X9205182Y-14338984D02*
X9186134Y-14338984D01*
X9186134Y-14338984D02*
X9167087Y-14329460D01*
X9167087Y-14329460D02*
X9157563Y-14319936D01*
X9157563Y-14319936D02*
X9148039Y-14300888D01*
X9148039Y-14300888D02*
X9138515Y-14262793D01*
X9138515Y-14262793D02*
X9138515Y-14215174D01*
X9138515Y-14215174D02*
X9148039Y-14177079D01*
X9148039Y-14177079D02*
X9157563Y-14158031D01*
X9157563Y-14158031D02*
X9167087Y-14148508D01*
X9167087Y-14148508D02*
X9186134Y-14138984D01*
X9338515Y-14319936D02*
X9348039Y-14329460D01*
X9348039Y-14329460D02*
X9338515Y-14338984D01*
X9338515Y-14338984D02*
X9328991Y-14329460D01*
X9328991Y-14329460D02*
X9338515Y-14319936D01*
X9338515Y-14319936D02*
X9338515Y-14338984D01*
X9471848Y-14138984D02*
X9490896Y-14138984D01*
X9490896Y-14138984D02*
X9509944Y-14148508D01*
X9509944Y-14148508D02*
X9519468Y-14158031D01*
X9519468Y-14158031D02*
X9528991Y-14177079D01*
X9528991Y-14177079D02*
X9538515Y-14215174D01*
X9538515Y-14215174D02*
X9538515Y-14262793D01*
X9538515Y-14262793D02*
X9528991Y-14300888D01*
X9528991Y-14300888D02*
X9519468Y-14319936D01*
X9519468Y-14319936D02*
X9509944Y-14329460D01*
X9509944Y-14329460D02*
X9490896Y-14338984D01*
X9490896Y-14338984D02*
X9471848Y-14338984D01*
X9471848Y-14338984D02*
X9452801Y-14329460D01*
X9452801Y-14329460D02*
X9443277Y-14319936D01*
X9443277Y-14319936D02*
X9433753Y-14300888D01*
X9433753Y-14300888D02*
X9424229Y-14262793D01*
X9424229Y-14262793D02*
X9424229Y-14215174D01*
X9424229Y-14215174D02*
X9433753Y-14177079D01*
X9433753Y-14177079D02*
X9443277Y-14158031D01*
X9443277Y-14158031D02*
X9452801Y-14148508D01*
X9452801Y-14148508D02*
X9471848Y-14138984D01*
X9605182Y-14138984D02*
X9738515Y-14138984D01*
X9738515Y-14138984D02*
X9652801Y-14338984D01*
X9852801Y-14138984D02*
X9871849Y-14138984D01*
X9871849Y-14138984D02*
X9890896Y-14148508D01*
X9890896Y-14148508D02*
X9900420Y-14158031D01*
X9900420Y-14158031D02*
X9909944Y-14177079D01*
X9909944Y-14177079D02*
X9919468Y-14215174D01*
X9919468Y-14215174D02*
X9919468Y-14262793D01*
X9919468Y-14262793D02*
X9909944Y-14300888D01*
X9909944Y-14300888D02*
X9900420Y-14319936D01*
X9900420Y-14319936D02*
X9890896Y-14329460D01*
X9890896Y-14329460D02*
X9871849Y-14338984D01*
X9871849Y-14338984D02*
X9852801Y-14338984D01*
X9852801Y-14338984D02*
X9833753Y-14329460D01*
X9833753Y-14329460D02*
X9824229Y-14319936D01*
X9824229Y-14319936D02*
X9814706Y-14300888D01*
X9814706Y-14300888D02*
X9805182Y-14262793D01*
X9805182Y-14262793D02*
X9805182Y-14215174D01*
X9805182Y-14215174D02*
X9814706Y-14177079D01*
X9814706Y-14177079D02*
X9824229Y-14158031D01*
X9824229Y-14158031D02*
X9833753Y-14148508D01*
X9833753Y-14148508D02*
X9852801Y-14138984D01*
X10014706Y-14338984D02*
X10052801Y-14338984D01*
X10052801Y-14338984D02*
X10071849Y-14329460D01*
X10071849Y-14329460D02*
X10081372Y-14319936D01*
X10081372Y-14319936D02*
X10100420Y-14291365D01*
X10100420Y-14291365D02*
X10109944Y-14253269D01*
X10109944Y-14253269D02*
X10109944Y-14177079D01*
X10109944Y-14177079D02*
X10100420Y-14158031D01*
X10100420Y-14158031D02*
X10090896Y-14148508D01*
X10090896Y-14148508D02*
X10071849Y-14138984D01*
X10071849Y-14138984D02*
X10033753Y-14138984D01*
X10033753Y-14138984D02*
X10014706Y-14148508D01*
X10014706Y-14148508D02*
X10005182Y-14158031D01*
X10005182Y-14158031D02*
X9995658Y-14177079D01*
X9995658Y-14177079D02*
X9995658Y-14224698D01*
X9995658Y-14224698D02*
X10005182Y-14243746D01*
X10005182Y-14243746D02*
X10014706Y-14253269D01*
X10014706Y-14253269D02*
X10033753Y-14262793D01*
X10033753Y-14262793D02*
X10071849Y-14262793D01*
X10071849Y-14262793D02*
X10090896Y-14253269D01*
X10090896Y-14253269D02*
X10100420Y-14243746D01*
X10100420Y-14243746D02*
X10109944Y-14224698D01*
X10186134Y-14138984D02*
X10186134Y-14177079D01*
X10262325Y-14138984D02*
X10262325Y-14177079D01*
X10557563Y-14415174D02*
X10548039Y-14405650D01*
X10548039Y-14405650D02*
X10528991Y-14377079D01*
X10528991Y-14377079D02*
X10519468Y-14358031D01*
X10519468Y-14358031D02*
X10509944Y-14329460D01*
X10509944Y-14329460D02*
X10500420Y-14281841D01*
X10500420Y-14281841D02*
X10500420Y-14243746D01*
X10500420Y-14243746D02*
X10509944Y-14196127D01*
X10509944Y-14196127D02*
X10519468Y-14167555D01*
X10519468Y-14167555D02*
X10528991Y-14148508D01*
X10528991Y-14148508D02*
X10548039Y-14119936D01*
X10548039Y-14119936D02*
X10557563Y-14110412D01*
X10624230Y-14158031D02*
X10633753Y-14148508D01*
X10633753Y-14148508D02*
X10652801Y-14138984D01*
X10652801Y-14138984D02*
X10700420Y-14138984D01*
X10700420Y-14138984D02*
X10719468Y-14148508D01*
X10719468Y-14148508D02*
X10728991Y-14158031D01*
X10728991Y-14158031D02*
X10738515Y-14177079D01*
X10738515Y-14177079D02*
X10738515Y-14196127D01*
X10738515Y-14196127D02*
X10728991Y-14224698D01*
X10728991Y-14224698D02*
X10614706Y-14338984D01*
X10614706Y-14338984D02*
X10738515Y-14338984D01*
X10976611Y-14338984D02*
X10976611Y-14138984D01*
X11062325Y-14338984D02*
X11062325Y-14234222D01*
X11062325Y-14234222D02*
X11052801Y-14215174D01*
X11052801Y-14215174D02*
X11033753Y-14205650D01*
X11033753Y-14205650D02*
X11005182Y-14205650D01*
X11005182Y-14205650D02*
X10986134Y-14215174D01*
X10986134Y-14215174D02*
X10976611Y-14224698D01*
X11186134Y-14338984D02*
X11167087Y-14329460D01*
X11167087Y-14329460D02*
X11157563Y-14319936D01*
X11157563Y-14319936D02*
X11148039Y-14300888D01*
X11148039Y-14300888D02*
X11148039Y-14243746D01*
X11148039Y-14243746D02*
X11157563Y-14224698D01*
X11157563Y-14224698D02*
X11167087Y-14215174D01*
X11167087Y-14215174D02*
X11186134Y-14205650D01*
X11186134Y-14205650D02*
X11214706Y-14205650D01*
X11214706Y-14205650D02*
X11233753Y-14215174D01*
X11233753Y-14215174D02*
X11243277Y-14224698D01*
X11243277Y-14224698D02*
X11252801Y-14243746D01*
X11252801Y-14243746D02*
X11252801Y-14300888D01*
X11252801Y-14300888D02*
X11243277Y-14319936D01*
X11243277Y-14319936D02*
X11233753Y-14329460D01*
X11233753Y-14329460D02*
X11214706Y-14338984D01*
X11214706Y-14338984D02*
X11186134Y-14338984D01*
X11367087Y-14338984D02*
X11348039Y-14329460D01*
X11348039Y-14329460D02*
X11338515Y-14310412D01*
X11338515Y-14310412D02*
X11338515Y-14138984D01*
X11519468Y-14329460D02*
X11500420Y-14338984D01*
X11500420Y-14338984D02*
X11462325Y-14338984D01*
X11462325Y-14338984D02*
X11443277Y-14329460D01*
X11443277Y-14329460D02*
X11433753Y-14310412D01*
X11433753Y-14310412D02*
X11433753Y-14234222D01*
X11433753Y-14234222D02*
X11443277Y-14215174D01*
X11443277Y-14215174D02*
X11462325Y-14205650D01*
X11462325Y-14205650D02*
X11500420Y-14205650D01*
X11500420Y-14205650D02*
X11519468Y-14215174D01*
X11519468Y-14215174D02*
X11528991Y-14234222D01*
X11528991Y-14234222D02*
X11528991Y-14253269D01*
X11528991Y-14253269D02*
X11433753Y-14272317D01*
X11605182Y-14329460D02*
X11624230Y-14338984D01*
X11624230Y-14338984D02*
X11662325Y-14338984D01*
X11662325Y-14338984D02*
X11681372Y-14329460D01*
X11681372Y-14329460D02*
X11690896Y-14310412D01*
X11690896Y-14310412D02*
X11690896Y-14300888D01*
X11690896Y-14300888D02*
X11681372Y-14281841D01*
X11681372Y-14281841D02*
X11662325Y-14272317D01*
X11662325Y-14272317D02*
X11633753Y-14272317D01*
X11633753Y-14272317D02*
X11614706Y-14262793D01*
X11614706Y-14262793D02*
X11605182Y-14243746D01*
X11605182Y-14243746D02*
X11605182Y-14234222D01*
X11605182Y-14234222D02*
X11614706Y-14215174D01*
X11614706Y-14215174D02*
X11633753Y-14205650D01*
X11633753Y-14205650D02*
X11662325Y-14205650D01*
X11662325Y-14205650D02*
X11681372Y-14215174D01*
X11757563Y-14415174D02*
X11767087Y-14405650D01*
X11767087Y-14405650D02*
X11786134Y-14377079D01*
X11786134Y-14377079D02*
X11795658Y-14358031D01*
X11795658Y-14358031D02*
X11805182Y-14329460D01*
X11805182Y-14329460D02*
X11814706Y-14281841D01*
X11814706Y-14281841D02*
X11814706Y-14243746D01*
X11814706Y-14243746D02*
X11805182Y-14196127D01*
X11805182Y-14196127D02*
X11795658Y-14167555D01*
X11795658Y-14167555D02*
X11786134Y-14148508D01*
X11786134Y-14148508D02*
X11767087Y-14119936D01*
X11767087Y-14119936D02*
X11757563Y-14110412D01*
X12119468Y-14415174D02*
X12109944Y-14405650D01*
X12109944Y-14405650D02*
X12090896Y-14377079D01*
X12090896Y-14377079D02*
X12081372Y-14358031D01*
X12081372Y-14358031D02*
X12071849Y-14329460D01*
X12071849Y-14329460D02*
X12062325Y-14281841D01*
X12062325Y-14281841D02*
X12062325Y-14243746D01*
X12062325Y-14243746D02*
X12071849Y-14196127D01*
X12071849Y-14196127D02*
X12081372Y-14167555D01*
X12081372Y-14167555D02*
X12090896Y-14148508D01*
X12090896Y-14148508D02*
X12109944Y-14119936D01*
X12109944Y-14119936D02*
X12119468Y-14110412D01*
X12195658Y-14205650D02*
X12195658Y-14338984D01*
X12195658Y-14224698D02*
X12205182Y-14215174D01*
X12205182Y-14215174D02*
X12224230Y-14205650D01*
X12224230Y-14205650D02*
X12252801Y-14205650D01*
X12252801Y-14205650D02*
X12271849Y-14215174D01*
X12271849Y-14215174D02*
X12281372Y-14234222D01*
X12281372Y-14234222D02*
X12281372Y-14338984D01*
X12405182Y-14338984D02*
X12386134Y-14329460D01*
X12386134Y-14329460D02*
X12376611Y-14319936D01*
X12376611Y-14319936D02*
X12367087Y-14300888D01*
X12367087Y-14300888D02*
X12367087Y-14243746D01*
X12367087Y-14243746D02*
X12376611Y-14224698D01*
X12376611Y-14224698D02*
X12386134Y-14215174D01*
X12386134Y-14215174D02*
X12405182Y-14205650D01*
X12405182Y-14205650D02*
X12433753Y-14205650D01*
X12433753Y-14205650D02*
X12452801Y-14215174D01*
X12452801Y-14215174D02*
X12462325Y-14224698D01*
X12462325Y-14224698D02*
X12471849Y-14243746D01*
X12471849Y-14243746D02*
X12471849Y-14300888D01*
X12471849Y-14300888D02*
X12462325Y-14319936D01*
X12462325Y-14319936D02*
X12452801Y-14329460D01*
X12452801Y-14329460D02*
X12433753Y-14338984D01*
X12433753Y-14338984D02*
X12405182Y-14338984D01*
X12528992Y-14205650D02*
X12605182Y-14205650D01*
X12557563Y-14138984D02*
X12557563Y-14310412D01*
X12557563Y-14310412D02*
X12567087Y-14329460D01*
X12567087Y-14329460D02*
X12586134Y-14338984D01*
X12586134Y-14338984D02*
X12605182Y-14338984D01*
X12824230Y-14205650D02*
X12824230Y-14405650D01*
X12824230Y-14215174D02*
X12843277Y-14205650D01*
X12843277Y-14205650D02*
X12881373Y-14205650D01*
X12881373Y-14205650D02*
X12900420Y-14215174D01*
X12900420Y-14215174D02*
X12909944Y-14224698D01*
X12909944Y-14224698D02*
X12919468Y-14243746D01*
X12919468Y-14243746D02*
X12919468Y-14300888D01*
X12919468Y-14300888D02*
X12909944Y-14319936D01*
X12909944Y-14319936D02*
X12900420Y-14329460D01*
X12900420Y-14329460D02*
X12881373Y-14338984D01*
X12881373Y-14338984D02*
X12843277Y-14338984D01*
X12843277Y-14338984D02*
X12824230Y-14329460D01*
X13033753Y-14338984D02*
X13014706Y-14329460D01*
X13014706Y-14329460D02*
X13005182Y-14310412D01*
X13005182Y-14310412D02*
X13005182Y-14138984D01*
X13195658Y-14338984D02*
X13195658Y-14234222D01*
X13195658Y-14234222D02*
X13186134Y-14215174D01*
X13186134Y-14215174D02*
X13167087Y-14205650D01*
X13167087Y-14205650D02*
X13128992Y-14205650D01*
X13128992Y-14205650D02*
X13109944Y-14215174D01*
X13195658Y-14329460D02*
X13176611Y-14338984D01*
X13176611Y-14338984D02*
X13128992Y-14338984D01*
X13128992Y-14338984D02*
X13109944Y-14329460D01*
X13109944Y-14329460D02*
X13100420Y-14310412D01*
X13100420Y-14310412D02*
X13100420Y-14291365D01*
X13100420Y-14291365D02*
X13109944Y-14272317D01*
X13109944Y-14272317D02*
X13128992Y-14262793D01*
X13128992Y-14262793D02*
X13176611Y-14262793D01*
X13176611Y-14262793D02*
X13195658Y-14253269D01*
X13262325Y-14205650D02*
X13338515Y-14205650D01*
X13290896Y-14138984D02*
X13290896Y-14310412D01*
X13290896Y-14310412D02*
X13300420Y-14329460D01*
X13300420Y-14329460D02*
X13319468Y-14338984D01*
X13319468Y-14338984D02*
X13338515Y-14338984D01*
X13481373Y-14329460D02*
X13462325Y-14338984D01*
X13462325Y-14338984D02*
X13424230Y-14338984D01*
X13424230Y-14338984D02*
X13405182Y-14329460D01*
X13405182Y-14329460D02*
X13395658Y-14310412D01*
X13395658Y-14310412D02*
X13395658Y-14234222D01*
X13395658Y-14234222D02*
X13405182Y-14215174D01*
X13405182Y-14215174D02*
X13424230Y-14205650D01*
X13424230Y-14205650D02*
X13462325Y-14205650D01*
X13462325Y-14205650D02*
X13481373Y-14215174D01*
X13481373Y-14215174D02*
X13490896Y-14234222D01*
X13490896Y-14234222D02*
X13490896Y-14253269D01*
X13490896Y-14253269D02*
X13395658Y-14272317D01*
X13662325Y-14338984D02*
X13662325Y-14138984D01*
X13662325Y-14329460D02*
X13643277Y-14338984D01*
X13643277Y-14338984D02*
X13605182Y-14338984D01*
X13605182Y-14338984D02*
X13586134Y-14329460D01*
X13586134Y-14329460D02*
X13576611Y-14319936D01*
X13576611Y-14319936D02*
X13567087Y-14300888D01*
X13567087Y-14300888D02*
X13567087Y-14243746D01*
X13567087Y-14243746D02*
X13576611Y-14224698D01*
X13576611Y-14224698D02*
X13586134Y-14215174D01*
X13586134Y-14215174D02*
X13605182Y-14205650D01*
X13605182Y-14205650D02*
X13643277Y-14205650D01*
X13643277Y-14205650D02*
X13662325Y-14215174D01*
X13738515Y-14415174D02*
X13748039Y-14405650D01*
X13748039Y-14405650D02*
X13767087Y-14377079D01*
X13767087Y-14377079D02*
X13776611Y-14358031D01*
X13776611Y-14358031D02*
X13786134Y-14329460D01*
X13786134Y-14329460D02*
X13795658Y-14281841D01*
X13795658Y-14281841D02*
X13795658Y-14243746D01*
X13795658Y-14243746D02*
X13786134Y-14196127D01*
X13786134Y-14196127D02*
X13776611Y-14167555D01*
X13776611Y-14167555D02*
X13767087Y-14148508D01*
X13767087Y-14148508D02*
X13748039Y-14119936D01*
X13748039Y-14119936D02*
X13738515Y-14110412D01*
X6882500Y-14447500D02*
X6882500Y-14647500D01*
X6782500Y-14547500D02*
X6982500Y-14547500D01*
X7233753Y-14458031D02*
X7243277Y-14448508D01*
X7243277Y-14448508D02*
X7262324Y-14438984D01*
X7262324Y-14438984D02*
X7309943Y-14438984D01*
X7309943Y-14438984D02*
X7328991Y-14448508D01*
X7328991Y-14448508D02*
X7338515Y-14458031D01*
X7338515Y-14458031D02*
X7348039Y-14477079D01*
X7348039Y-14477079D02*
X7348039Y-14496127D01*
X7348039Y-14496127D02*
X7338515Y-14524698D01*
X7338515Y-14524698D02*
X7224229Y-14638984D01*
X7224229Y-14638984D02*
X7348039Y-14638984D01*
X7433753Y-14619936D02*
X7443277Y-14629460D01*
X7443277Y-14629460D02*
X7433753Y-14638984D01*
X7433753Y-14638984D02*
X7424229Y-14629460D01*
X7424229Y-14629460D02*
X7433753Y-14619936D01*
X7433753Y-14619936D02*
X7433753Y-14638984D01*
X7624229Y-14438984D02*
X7528991Y-14438984D01*
X7528991Y-14438984D02*
X7519467Y-14534222D01*
X7519467Y-14534222D02*
X7528991Y-14524698D01*
X7528991Y-14524698D02*
X7548039Y-14515174D01*
X7548039Y-14515174D02*
X7595658Y-14515174D01*
X7595658Y-14515174D02*
X7614705Y-14524698D01*
X7614705Y-14524698D02*
X7624229Y-14534222D01*
X7624229Y-14534222D02*
X7633753Y-14553269D01*
X7633753Y-14553269D02*
X7633753Y-14600888D01*
X7633753Y-14600888D02*
X7624229Y-14619936D01*
X7624229Y-14619936D02*
X7614705Y-14629460D01*
X7614705Y-14629460D02*
X7595658Y-14638984D01*
X7595658Y-14638984D02*
X7548039Y-14638984D01*
X7548039Y-14638984D02*
X7528991Y-14629460D01*
X7528991Y-14629460D02*
X7519467Y-14619936D01*
X7757562Y-14438984D02*
X7776610Y-14438984D01*
X7776610Y-14438984D02*
X7795658Y-14448508D01*
X7795658Y-14448508D02*
X7805182Y-14458031D01*
X7805182Y-14458031D02*
X7814705Y-14477079D01*
X7814705Y-14477079D02*
X7824229Y-14515174D01*
X7824229Y-14515174D02*
X7824229Y-14562793D01*
X7824229Y-14562793D02*
X7814705Y-14600888D01*
X7814705Y-14600888D02*
X7805182Y-14619936D01*
X7805182Y-14619936D02*
X7795658Y-14629460D01*
X7795658Y-14629460D02*
X7776610Y-14638984D01*
X7776610Y-14638984D02*
X7757562Y-14638984D01*
X7757562Y-14638984D02*
X7738515Y-14629460D01*
X7738515Y-14629460D02*
X7728991Y-14619936D01*
X7728991Y-14619936D02*
X7719467Y-14600888D01*
X7719467Y-14600888D02*
X7709943Y-14562793D01*
X7709943Y-14562793D02*
X7709943Y-14515174D01*
X7709943Y-14515174D02*
X7719467Y-14477079D01*
X7719467Y-14477079D02*
X7728991Y-14458031D01*
X7728991Y-14458031D02*
X7738515Y-14448508D01*
X7738515Y-14448508D02*
X7757562Y-14438984D01*
X7948039Y-14438984D02*
X7967086Y-14438984D01*
X7967086Y-14438984D02*
X7986134Y-14448508D01*
X7986134Y-14448508D02*
X7995658Y-14458031D01*
X7995658Y-14458031D02*
X8005182Y-14477079D01*
X8005182Y-14477079D02*
X8014705Y-14515174D01*
X8014705Y-14515174D02*
X8014705Y-14562793D01*
X8014705Y-14562793D02*
X8005182Y-14600888D01*
X8005182Y-14600888D02*
X7995658Y-14619936D01*
X7995658Y-14619936D02*
X7986134Y-14629460D01*
X7986134Y-14629460D02*
X7967086Y-14638984D01*
X7967086Y-14638984D02*
X7948039Y-14638984D01*
X7948039Y-14638984D02*
X7928991Y-14629460D01*
X7928991Y-14629460D02*
X7919467Y-14619936D01*
X7919467Y-14619936D02*
X7909943Y-14600888D01*
X7909943Y-14600888D02*
X7900420Y-14562793D01*
X7900420Y-14562793D02*
X7900420Y-14515174D01*
X7900420Y-14515174D02*
X7909943Y-14477079D01*
X7909943Y-14477079D02*
X7919467Y-14458031D01*
X7919467Y-14458031D02*
X7928991Y-14448508D01*
X7928991Y-14448508D02*
X7948039Y-14438984D01*
X8100420Y-14638984D02*
X8100420Y-14505650D01*
X8100420Y-14524698D02*
X8109943Y-14515174D01*
X8109943Y-14515174D02*
X8128991Y-14505650D01*
X8128991Y-14505650D02*
X8157563Y-14505650D01*
X8157563Y-14505650D02*
X8176610Y-14515174D01*
X8176610Y-14515174D02*
X8186134Y-14534222D01*
X8186134Y-14534222D02*
X8186134Y-14638984D01*
X8186134Y-14534222D02*
X8195658Y-14515174D01*
X8195658Y-14515174D02*
X8214705Y-14505650D01*
X8214705Y-14505650D02*
X8243277Y-14505650D01*
X8243277Y-14505650D02*
X8262324Y-14515174D01*
X8262324Y-14515174D02*
X8271848Y-14534222D01*
X8271848Y-14534222D02*
X8271848Y-14638984D01*
X8367086Y-14638984D02*
X8367086Y-14505650D01*
X8367086Y-14524698D02*
X8376610Y-14515174D01*
X8376610Y-14515174D02*
X8395658Y-14505650D01*
X8395658Y-14505650D02*
X8424229Y-14505650D01*
X8424229Y-14505650D02*
X8443277Y-14515174D01*
X8443277Y-14515174D02*
X8452801Y-14534222D01*
X8452801Y-14534222D02*
X8452801Y-14638984D01*
X8452801Y-14534222D02*
X8462325Y-14515174D01*
X8462325Y-14515174D02*
X8481372Y-14505650D01*
X8481372Y-14505650D02*
X8509944Y-14505650D01*
X8509944Y-14505650D02*
X8528991Y-14515174D01*
X8528991Y-14515174D02*
X8538515Y-14534222D01*
X8538515Y-14534222D02*
X8538515Y-14638984D01*
X8928991Y-14429460D02*
X8757563Y-14686603D01*
X9186134Y-14438984D02*
X9205182Y-14438984D01*
X9205182Y-14438984D02*
X9224229Y-14448508D01*
X9224229Y-14448508D02*
X9233753Y-14458031D01*
X9233753Y-14458031D02*
X9243277Y-14477079D01*
X9243277Y-14477079D02*
X9252801Y-14515174D01*
X9252801Y-14515174D02*
X9252801Y-14562793D01*
X9252801Y-14562793D02*
X9243277Y-14600888D01*
X9243277Y-14600888D02*
X9233753Y-14619936D01*
X9233753Y-14619936D02*
X9224229Y-14629460D01*
X9224229Y-14629460D02*
X9205182Y-14638984D01*
X9205182Y-14638984D02*
X9186134Y-14638984D01*
X9186134Y-14638984D02*
X9167087Y-14629460D01*
X9167087Y-14629460D02*
X9157563Y-14619936D01*
X9157563Y-14619936D02*
X9148039Y-14600888D01*
X9148039Y-14600888D02*
X9138515Y-14562793D01*
X9138515Y-14562793D02*
X9138515Y-14515174D01*
X9138515Y-14515174D02*
X9148039Y-14477079D01*
X9148039Y-14477079D02*
X9157563Y-14458031D01*
X9157563Y-14458031D02*
X9167087Y-14448508D01*
X9167087Y-14448508D02*
X9186134Y-14438984D01*
X9338515Y-14619936D02*
X9348039Y-14629460D01*
X9348039Y-14629460D02*
X9338515Y-14638984D01*
X9338515Y-14638984D02*
X9328991Y-14629460D01*
X9328991Y-14629460D02*
X9338515Y-14619936D01*
X9338515Y-14619936D02*
X9338515Y-14638984D01*
X9471848Y-14438984D02*
X9490896Y-14438984D01*
X9490896Y-14438984D02*
X9509944Y-14448508D01*
X9509944Y-14448508D02*
X9519468Y-14458031D01*
X9519468Y-14458031D02*
X9528991Y-14477079D01*
X9528991Y-14477079D02*
X9538515Y-14515174D01*
X9538515Y-14515174D02*
X9538515Y-14562793D01*
X9538515Y-14562793D02*
X9528991Y-14600888D01*
X9528991Y-14600888D02*
X9519468Y-14619936D01*
X9519468Y-14619936D02*
X9509944Y-14629460D01*
X9509944Y-14629460D02*
X9490896Y-14638984D01*
X9490896Y-14638984D02*
X9471848Y-14638984D01*
X9471848Y-14638984D02*
X9452801Y-14629460D01*
X9452801Y-14629460D02*
X9443277Y-14619936D01*
X9443277Y-14619936D02*
X9433753Y-14600888D01*
X9433753Y-14600888D02*
X9424229Y-14562793D01*
X9424229Y-14562793D02*
X9424229Y-14515174D01*
X9424229Y-14515174D02*
X9433753Y-14477079D01*
X9433753Y-14477079D02*
X9443277Y-14458031D01*
X9443277Y-14458031D02*
X9452801Y-14448508D01*
X9452801Y-14448508D02*
X9471848Y-14438984D01*
X9633753Y-14638984D02*
X9671848Y-14638984D01*
X9671848Y-14638984D02*
X9690896Y-14629460D01*
X9690896Y-14629460D02*
X9700420Y-14619936D01*
X9700420Y-14619936D02*
X9719468Y-14591365D01*
X9719468Y-14591365D02*
X9728991Y-14553269D01*
X9728991Y-14553269D02*
X9728991Y-14477079D01*
X9728991Y-14477079D02*
X9719468Y-14458031D01*
X9719468Y-14458031D02*
X9709944Y-14448508D01*
X9709944Y-14448508D02*
X9690896Y-14438984D01*
X9690896Y-14438984D02*
X9652801Y-14438984D01*
X9652801Y-14438984D02*
X9633753Y-14448508D01*
X9633753Y-14448508D02*
X9624229Y-14458031D01*
X9624229Y-14458031D02*
X9614706Y-14477079D01*
X9614706Y-14477079D02*
X9614706Y-14524698D01*
X9614706Y-14524698D02*
X9624229Y-14543746D01*
X9624229Y-14543746D02*
X9633753Y-14553269D01*
X9633753Y-14553269D02*
X9652801Y-14562793D01*
X9652801Y-14562793D02*
X9690896Y-14562793D01*
X9690896Y-14562793D02*
X9709944Y-14553269D01*
X9709944Y-14553269D02*
X9719468Y-14543746D01*
X9719468Y-14543746D02*
X9728991Y-14524698D01*
X9843277Y-14524698D02*
X9824229Y-14515174D01*
X9824229Y-14515174D02*
X9814706Y-14505650D01*
X9814706Y-14505650D02*
X9805182Y-14486603D01*
X9805182Y-14486603D02*
X9805182Y-14477079D01*
X9805182Y-14477079D02*
X9814706Y-14458031D01*
X9814706Y-14458031D02*
X9824229Y-14448508D01*
X9824229Y-14448508D02*
X9843277Y-14438984D01*
X9843277Y-14438984D02*
X9881372Y-14438984D01*
X9881372Y-14438984D02*
X9900420Y-14448508D01*
X9900420Y-14448508D02*
X9909944Y-14458031D01*
X9909944Y-14458031D02*
X9919468Y-14477079D01*
X9919468Y-14477079D02*
X9919468Y-14486603D01*
X9919468Y-14486603D02*
X9909944Y-14505650D01*
X9909944Y-14505650D02*
X9900420Y-14515174D01*
X9900420Y-14515174D02*
X9881372Y-14524698D01*
X9881372Y-14524698D02*
X9843277Y-14524698D01*
X9843277Y-14524698D02*
X9824229Y-14534222D01*
X9824229Y-14534222D02*
X9814706Y-14543746D01*
X9814706Y-14543746D02*
X9805182Y-14562793D01*
X9805182Y-14562793D02*
X9805182Y-14600888D01*
X9805182Y-14600888D02*
X9814706Y-14619936D01*
X9814706Y-14619936D02*
X9824229Y-14629460D01*
X9824229Y-14629460D02*
X9843277Y-14638984D01*
X9843277Y-14638984D02*
X9881372Y-14638984D01*
X9881372Y-14638984D02*
X9900420Y-14629460D01*
X9900420Y-14629460D02*
X9909944Y-14619936D01*
X9909944Y-14619936D02*
X9919468Y-14600888D01*
X9919468Y-14600888D02*
X9919468Y-14562793D01*
X9919468Y-14562793D02*
X9909944Y-14543746D01*
X9909944Y-14543746D02*
X9900420Y-14534222D01*
X9900420Y-14534222D02*
X9881372Y-14524698D01*
X10090896Y-14505650D02*
X10090896Y-14638984D01*
X10043277Y-14429460D02*
X9995658Y-14572317D01*
X9995658Y-14572317D02*
X10119468Y-14572317D01*
X10186134Y-14438984D02*
X10186134Y-14477079D01*
X10262325Y-14438984D02*
X10262325Y-14477079D01*
X10557563Y-14715174D02*
X10548039Y-14705650D01*
X10548039Y-14705650D02*
X10528991Y-14677079D01*
X10528991Y-14677079D02*
X10519468Y-14658031D01*
X10519468Y-14658031D02*
X10509944Y-14629460D01*
X10509944Y-14629460D02*
X10500420Y-14581841D01*
X10500420Y-14581841D02*
X10500420Y-14543746D01*
X10500420Y-14543746D02*
X10509944Y-14496127D01*
X10509944Y-14496127D02*
X10519468Y-14467555D01*
X10519468Y-14467555D02*
X10528991Y-14448508D01*
X10528991Y-14448508D02*
X10548039Y-14419936D01*
X10548039Y-14419936D02*
X10557563Y-14410412D01*
X10719468Y-14505650D02*
X10719468Y-14638984D01*
X10671849Y-14429460D02*
X10624230Y-14572317D01*
X10624230Y-14572317D02*
X10748039Y-14572317D01*
X10976611Y-14638984D02*
X10976611Y-14438984D01*
X11062325Y-14638984D02*
X11062325Y-14534222D01*
X11062325Y-14534222D02*
X11052801Y-14515174D01*
X11052801Y-14515174D02*
X11033753Y-14505650D01*
X11033753Y-14505650D02*
X11005182Y-14505650D01*
X11005182Y-14505650D02*
X10986134Y-14515174D01*
X10986134Y-14515174D02*
X10976611Y-14524698D01*
X11186134Y-14638984D02*
X11167087Y-14629460D01*
X11167087Y-14629460D02*
X11157563Y-14619936D01*
X11157563Y-14619936D02*
X11148039Y-14600888D01*
X11148039Y-14600888D02*
X11148039Y-14543746D01*
X11148039Y-14543746D02*
X11157563Y-14524698D01*
X11157563Y-14524698D02*
X11167087Y-14515174D01*
X11167087Y-14515174D02*
X11186134Y-14505650D01*
X11186134Y-14505650D02*
X11214706Y-14505650D01*
X11214706Y-14505650D02*
X11233753Y-14515174D01*
X11233753Y-14515174D02*
X11243277Y-14524698D01*
X11243277Y-14524698D02*
X11252801Y-14543746D01*
X11252801Y-14543746D02*
X11252801Y-14600888D01*
X11252801Y-14600888D02*
X11243277Y-14619936D01*
X11243277Y-14619936D02*
X11233753Y-14629460D01*
X11233753Y-14629460D02*
X11214706Y-14638984D01*
X11214706Y-14638984D02*
X11186134Y-14638984D01*
X11367087Y-14638984D02*
X11348039Y-14629460D01*
X11348039Y-14629460D02*
X11338515Y-14610412D01*
X11338515Y-14610412D02*
X11338515Y-14438984D01*
X11519468Y-14629460D02*
X11500420Y-14638984D01*
X11500420Y-14638984D02*
X11462325Y-14638984D01*
X11462325Y-14638984D02*
X11443277Y-14629460D01*
X11443277Y-14629460D02*
X11433753Y-14610412D01*
X11433753Y-14610412D02*
X11433753Y-14534222D01*
X11433753Y-14534222D02*
X11443277Y-14515174D01*
X11443277Y-14515174D02*
X11462325Y-14505650D01*
X11462325Y-14505650D02*
X11500420Y-14505650D01*
X11500420Y-14505650D02*
X11519468Y-14515174D01*
X11519468Y-14515174D02*
X11528991Y-14534222D01*
X11528991Y-14534222D02*
X11528991Y-14553269D01*
X11528991Y-14553269D02*
X11433753Y-14572317D01*
X11605182Y-14629460D02*
X11624230Y-14638984D01*
X11624230Y-14638984D02*
X11662325Y-14638984D01*
X11662325Y-14638984D02*
X11681372Y-14629460D01*
X11681372Y-14629460D02*
X11690896Y-14610412D01*
X11690896Y-14610412D02*
X11690896Y-14600888D01*
X11690896Y-14600888D02*
X11681372Y-14581841D01*
X11681372Y-14581841D02*
X11662325Y-14572317D01*
X11662325Y-14572317D02*
X11633753Y-14572317D01*
X11633753Y-14572317D02*
X11614706Y-14562793D01*
X11614706Y-14562793D02*
X11605182Y-14543746D01*
X11605182Y-14543746D02*
X11605182Y-14534222D01*
X11605182Y-14534222D02*
X11614706Y-14515174D01*
X11614706Y-14515174D02*
X11633753Y-14505650D01*
X11633753Y-14505650D02*
X11662325Y-14505650D01*
X11662325Y-14505650D02*
X11681372Y-14515174D01*
X11757563Y-14715174D02*
X11767087Y-14705650D01*
X11767087Y-14705650D02*
X11786134Y-14677079D01*
X11786134Y-14677079D02*
X11795658Y-14658031D01*
X11795658Y-14658031D02*
X11805182Y-14629460D01*
X11805182Y-14629460D02*
X11814706Y-14581841D01*
X11814706Y-14581841D02*
X11814706Y-14543746D01*
X11814706Y-14543746D02*
X11805182Y-14496127D01*
X11805182Y-14496127D02*
X11795658Y-14467555D01*
X11795658Y-14467555D02*
X11786134Y-14448508D01*
X11786134Y-14448508D02*
X11767087Y-14419936D01*
X11767087Y-14419936D02*
X11757563Y-14410412D01*
X12119468Y-14715174D02*
X12109944Y-14705650D01*
X12109944Y-14705650D02*
X12090896Y-14677079D01*
X12090896Y-14677079D02*
X12081372Y-14658031D01*
X12081372Y-14658031D02*
X12071849Y-14629460D01*
X12071849Y-14629460D02*
X12062325Y-14581841D01*
X12062325Y-14581841D02*
X12062325Y-14543746D01*
X12062325Y-14543746D02*
X12071849Y-14496127D01*
X12071849Y-14496127D02*
X12081372Y-14467555D01*
X12081372Y-14467555D02*
X12090896Y-14448508D01*
X12090896Y-14448508D02*
X12109944Y-14419936D01*
X12109944Y-14419936D02*
X12119468Y-14410412D01*
X12195658Y-14505650D02*
X12195658Y-14638984D01*
X12195658Y-14524698D02*
X12205182Y-14515174D01*
X12205182Y-14515174D02*
X12224230Y-14505650D01*
X12224230Y-14505650D02*
X12252801Y-14505650D01*
X12252801Y-14505650D02*
X12271849Y-14515174D01*
X12271849Y-14515174D02*
X12281372Y-14534222D01*
X12281372Y-14534222D02*
X12281372Y-14638984D01*
X12405182Y-14638984D02*
X12386134Y-14629460D01*
X12386134Y-14629460D02*
X12376611Y-14619936D01*
X12376611Y-14619936D02*
X12367087Y-14600888D01*
X12367087Y-14600888D02*
X12367087Y-14543746D01*
X12367087Y-14543746D02*
X12376611Y-14524698D01*
X12376611Y-14524698D02*
X12386134Y-14515174D01*
X12386134Y-14515174D02*
X12405182Y-14505650D01*
X12405182Y-14505650D02*
X12433753Y-14505650D01*
X12433753Y-14505650D02*
X12452801Y-14515174D01*
X12452801Y-14515174D02*
X12462325Y-14524698D01*
X12462325Y-14524698D02*
X12471849Y-14543746D01*
X12471849Y-14543746D02*
X12471849Y-14600888D01*
X12471849Y-14600888D02*
X12462325Y-14619936D01*
X12462325Y-14619936D02*
X12452801Y-14629460D01*
X12452801Y-14629460D02*
X12433753Y-14638984D01*
X12433753Y-14638984D02*
X12405182Y-14638984D01*
X12528992Y-14505650D02*
X12605182Y-14505650D01*
X12557563Y-14438984D02*
X12557563Y-14610412D01*
X12557563Y-14610412D02*
X12567087Y-14629460D01*
X12567087Y-14629460D02*
X12586134Y-14638984D01*
X12586134Y-14638984D02*
X12605182Y-14638984D01*
X12824230Y-14505650D02*
X12824230Y-14705650D01*
X12824230Y-14515174D02*
X12843277Y-14505650D01*
X12843277Y-14505650D02*
X12881373Y-14505650D01*
X12881373Y-14505650D02*
X12900420Y-14515174D01*
X12900420Y-14515174D02*
X12909944Y-14524698D01*
X12909944Y-14524698D02*
X12919468Y-14543746D01*
X12919468Y-14543746D02*
X12919468Y-14600888D01*
X12919468Y-14600888D02*
X12909944Y-14619936D01*
X12909944Y-14619936D02*
X12900420Y-14629460D01*
X12900420Y-14629460D02*
X12881373Y-14638984D01*
X12881373Y-14638984D02*
X12843277Y-14638984D01*
X12843277Y-14638984D02*
X12824230Y-14629460D01*
X13033753Y-14638984D02*
X13014706Y-14629460D01*
X13014706Y-14629460D02*
X13005182Y-14610412D01*
X13005182Y-14610412D02*
X13005182Y-14438984D01*
X13195658Y-14638984D02*
X13195658Y-14534222D01*
X13195658Y-14534222D02*
X13186134Y-14515174D01*
X13186134Y-14515174D02*
X13167087Y-14505650D01*
X13167087Y-14505650D02*
X13128992Y-14505650D01*
X13128992Y-14505650D02*
X13109944Y-14515174D01*
X13195658Y-14629460D02*
X13176611Y-14638984D01*
X13176611Y-14638984D02*
X13128992Y-14638984D01*
X13128992Y-14638984D02*
X13109944Y-14629460D01*
X13109944Y-14629460D02*
X13100420Y-14610412D01*
X13100420Y-14610412D02*
X13100420Y-14591365D01*
X13100420Y-14591365D02*
X13109944Y-14572317D01*
X13109944Y-14572317D02*
X13128992Y-14562793D01*
X13128992Y-14562793D02*
X13176611Y-14562793D01*
X13176611Y-14562793D02*
X13195658Y-14553269D01*
X13262325Y-14505650D02*
X13338515Y-14505650D01*
X13290896Y-14438984D02*
X13290896Y-14610412D01*
X13290896Y-14610412D02*
X13300420Y-14629460D01*
X13300420Y-14629460D02*
X13319468Y-14638984D01*
X13319468Y-14638984D02*
X13338515Y-14638984D01*
X13481373Y-14629460D02*
X13462325Y-14638984D01*
X13462325Y-14638984D02*
X13424230Y-14638984D01*
X13424230Y-14638984D02*
X13405182Y-14629460D01*
X13405182Y-14629460D02*
X13395658Y-14610412D01*
X13395658Y-14610412D02*
X13395658Y-14534222D01*
X13395658Y-14534222D02*
X13405182Y-14515174D01*
X13405182Y-14515174D02*
X13424230Y-14505650D01*
X13424230Y-14505650D02*
X13462325Y-14505650D01*
X13462325Y-14505650D02*
X13481373Y-14515174D01*
X13481373Y-14515174D02*
X13490896Y-14534222D01*
X13490896Y-14534222D02*
X13490896Y-14553269D01*
X13490896Y-14553269D02*
X13395658Y-14572317D01*
X13662325Y-14638984D02*
X13662325Y-14438984D01*
X13662325Y-14629460D02*
X13643277Y-14638984D01*
X13643277Y-14638984D02*
X13605182Y-14638984D01*
X13605182Y-14638984D02*
X13586134Y-14629460D01*
X13586134Y-14629460D02*
X13576611Y-14619936D01*
X13576611Y-14619936D02*
X13567087Y-14600888D01*
X13567087Y-14600888D02*
X13567087Y-14543746D01*
X13567087Y-14543746D02*
X13576611Y-14524698D01*
X13576611Y-14524698D02*
X13586134Y-14515174D01*
X13586134Y-14515174D02*
X13605182Y-14505650D01*
X13605182Y-14505650D02*
X13643277Y-14505650D01*
X13643277Y-14505650D02*
X13662325Y-14515174D01*
X13738515Y-14715174D02*
X13748039Y-14705650D01*
X13748039Y-14705650D02*
X13767087Y-14677079D01*
X13767087Y-14677079D02*
X13776611Y-14658031D01*
X13776611Y-14658031D02*
X13786134Y-14629460D01*
X13786134Y-14629460D02*
X13795658Y-14581841D01*
X13795658Y-14581841D02*
X13795658Y-14543746D01*
X13795658Y-14543746D02*
X13786134Y-14496127D01*
X13786134Y-14496127D02*
X13776611Y-14467555D01*
X13776611Y-14467555D02*
X13767087Y-14448508D01*
X13767087Y-14448508D02*
X13748039Y-14419936D01*
X13748039Y-14419936D02*
X13738515Y-14410412D01*
X6953211Y-14938211D02*
X6953211Y-14796789D01*
X6811789Y-14796789D01*
X6811789Y-14938211D01*
X6953211Y-14938211D01*
X7224229Y-14758984D02*
X7348039Y-14758984D01*
X7348039Y-14758984D02*
X7281372Y-14835174D01*
X7281372Y-14835174D02*
X7309943Y-14835174D01*
X7309943Y-14835174D02*
X7328991Y-14844698D01*
X7328991Y-14844698D02*
X7338515Y-14854222D01*
X7338515Y-14854222D02*
X7348039Y-14873269D01*
X7348039Y-14873269D02*
X7348039Y-14920888D01*
X7348039Y-14920888D02*
X7338515Y-14939936D01*
X7338515Y-14939936D02*
X7328991Y-14949460D01*
X7328991Y-14949460D02*
X7309943Y-14958984D01*
X7309943Y-14958984D02*
X7252801Y-14958984D01*
X7252801Y-14958984D02*
X7233753Y-14949460D01*
X7233753Y-14949460D02*
X7224229Y-14939936D01*
X7433753Y-14939936D02*
X7443277Y-14949460D01*
X7443277Y-14949460D02*
X7433753Y-14958984D01*
X7433753Y-14958984D02*
X7424229Y-14949460D01*
X7424229Y-14949460D02*
X7433753Y-14939936D01*
X7433753Y-14939936D02*
X7433753Y-14958984D01*
X7519467Y-14778031D02*
X7528991Y-14768508D01*
X7528991Y-14768508D02*
X7548039Y-14758984D01*
X7548039Y-14758984D02*
X7595658Y-14758984D01*
X7595658Y-14758984D02*
X7614705Y-14768508D01*
X7614705Y-14768508D02*
X7624229Y-14778031D01*
X7624229Y-14778031D02*
X7633753Y-14797079D01*
X7633753Y-14797079D02*
X7633753Y-14816127D01*
X7633753Y-14816127D02*
X7624229Y-14844698D01*
X7624229Y-14844698D02*
X7509943Y-14958984D01*
X7509943Y-14958984D02*
X7633753Y-14958984D01*
X7757562Y-14758984D02*
X7776610Y-14758984D01*
X7776610Y-14758984D02*
X7795658Y-14768508D01*
X7795658Y-14768508D02*
X7805182Y-14778031D01*
X7805182Y-14778031D02*
X7814705Y-14797079D01*
X7814705Y-14797079D02*
X7824229Y-14835174D01*
X7824229Y-14835174D02*
X7824229Y-14882793D01*
X7824229Y-14882793D02*
X7814705Y-14920888D01*
X7814705Y-14920888D02*
X7805182Y-14939936D01*
X7805182Y-14939936D02*
X7795658Y-14949460D01*
X7795658Y-14949460D02*
X7776610Y-14958984D01*
X7776610Y-14958984D02*
X7757562Y-14958984D01*
X7757562Y-14958984D02*
X7738515Y-14949460D01*
X7738515Y-14949460D02*
X7728991Y-14939936D01*
X7728991Y-14939936D02*
X7719467Y-14920888D01*
X7719467Y-14920888D02*
X7709943Y-14882793D01*
X7709943Y-14882793D02*
X7709943Y-14835174D01*
X7709943Y-14835174D02*
X7719467Y-14797079D01*
X7719467Y-14797079D02*
X7728991Y-14778031D01*
X7728991Y-14778031D02*
X7738515Y-14768508D01*
X7738515Y-14768508D02*
X7757562Y-14758984D01*
X7948039Y-14758984D02*
X7967086Y-14758984D01*
X7967086Y-14758984D02*
X7986134Y-14768508D01*
X7986134Y-14768508D02*
X7995658Y-14778031D01*
X7995658Y-14778031D02*
X8005182Y-14797079D01*
X8005182Y-14797079D02*
X8014705Y-14835174D01*
X8014705Y-14835174D02*
X8014705Y-14882793D01*
X8014705Y-14882793D02*
X8005182Y-14920888D01*
X8005182Y-14920888D02*
X7995658Y-14939936D01*
X7995658Y-14939936D02*
X7986134Y-14949460D01*
X7986134Y-14949460D02*
X7967086Y-14958984D01*
X7967086Y-14958984D02*
X7948039Y-14958984D01*
X7948039Y-14958984D02*
X7928991Y-14949460D01*
X7928991Y-14949460D02*
X7919467Y-14939936D01*
X7919467Y-14939936D02*
X7909943Y-14920888D01*
X7909943Y-14920888D02*
X7900420Y-14882793D01*
X7900420Y-14882793D02*
X7900420Y-14835174D01*
X7900420Y-14835174D02*
X7909943Y-14797079D01*
X7909943Y-14797079D02*
X7919467Y-14778031D01*
X7919467Y-14778031D02*
X7928991Y-14768508D01*
X7928991Y-14768508D02*
X7948039Y-14758984D01*
X8100420Y-14958984D02*
X8100420Y-14825650D01*
X8100420Y-14844698D02*
X8109943Y-14835174D01*
X8109943Y-14835174D02*
X8128991Y-14825650D01*
X8128991Y-14825650D02*
X8157563Y-14825650D01*
X8157563Y-14825650D02*
X8176610Y-14835174D01*
X8176610Y-14835174D02*
X8186134Y-14854222D01*
X8186134Y-14854222D02*
X8186134Y-14958984D01*
X8186134Y-14854222D02*
X8195658Y-14835174D01*
X8195658Y-14835174D02*
X8214705Y-14825650D01*
X8214705Y-14825650D02*
X8243277Y-14825650D01*
X8243277Y-14825650D02*
X8262324Y-14835174D01*
X8262324Y-14835174D02*
X8271848Y-14854222D01*
X8271848Y-14854222D02*
X8271848Y-14958984D01*
X8367086Y-14958984D02*
X8367086Y-14825650D01*
X8367086Y-14844698D02*
X8376610Y-14835174D01*
X8376610Y-14835174D02*
X8395658Y-14825650D01*
X8395658Y-14825650D02*
X8424229Y-14825650D01*
X8424229Y-14825650D02*
X8443277Y-14835174D01*
X8443277Y-14835174D02*
X8452801Y-14854222D01*
X8452801Y-14854222D02*
X8452801Y-14958984D01*
X8452801Y-14854222D02*
X8462325Y-14835174D01*
X8462325Y-14835174D02*
X8481372Y-14825650D01*
X8481372Y-14825650D02*
X8509944Y-14825650D01*
X8509944Y-14825650D02*
X8528991Y-14835174D01*
X8528991Y-14835174D02*
X8538515Y-14854222D01*
X8538515Y-14854222D02*
X8538515Y-14958984D01*
X8928991Y-14749460D02*
X8757563Y-15006603D01*
X9186134Y-14758984D02*
X9205182Y-14758984D01*
X9205182Y-14758984D02*
X9224229Y-14768508D01*
X9224229Y-14768508D02*
X9233753Y-14778031D01*
X9233753Y-14778031D02*
X9243277Y-14797079D01*
X9243277Y-14797079D02*
X9252801Y-14835174D01*
X9252801Y-14835174D02*
X9252801Y-14882793D01*
X9252801Y-14882793D02*
X9243277Y-14920888D01*
X9243277Y-14920888D02*
X9233753Y-14939936D01*
X9233753Y-14939936D02*
X9224229Y-14949460D01*
X9224229Y-14949460D02*
X9205182Y-14958984D01*
X9205182Y-14958984D02*
X9186134Y-14958984D01*
X9186134Y-14958984D02*
X9167087Y-14949460D01*
X9167087Y-14949460D02*
X9157563Y-14939936D01*
X9157563Y-14939936D02*
X9148039Y-14920888D01*
X9148039Y-14920888D02*
X9138515Y-14882793D01*
X9138515Y-14882793D02*
X9138515Y-14835174D01*
X9138515Y-14835174D02*
X9148039Y-14797079D01*
X9148039Y-14797079D02*
X9157563Y-14778031D01*
X9157563Y-14778031D02*
X9167087Y-14768508D01*
X9167087Y-14768508D02*
X9186134Y-14758984D01*
X9338515Y-14939936D02*
X9348039Y-14949460D01*
X9348039Y-14949460D02*
X9338515Y-14958984D01*
X9338515Y-14958984D02*
X9328991Y-14949460D01*
X9328991Y-14949460D02*
X9338515Y-14939936D01*
X9338515Y-14939936D02*
X9338515Y-14958984D01*
X9538515Y-14958984D02*
X9424229Y-14958984D01*
X9481372Y-14958984D02*
X9481372Y-14758984D01*
X9481372Y-14758984D02*
X9462325Y-14787555D01*
X9462325Y-14787555D02*
X9443277Y-14806603D01*
X9443277Y-14806603D02*
X9424229Y-14816127D01*
X9614706Y-14778031D02*
X9624229Y-14768508D01*
X9624229Y-14768508D02*
X9643277Y-14758984D01*
X9643277Y-14758984D02*
X9690896Y-14758984D01*
X9690896Y-14758984D02*
X9709944Y-14768508D01*
X9709944Y-14768508D02*
X9719468Y-14778031D01*
X9719468Y-14778031D02*
X9728991Y-14797079D01*
X9728991Y-14797079D02*
X9728991Y-14816127D01*
X9728991Y-14816127D02*
X9719468Y-14844698D01*
X9719468Y-14844698D02*
X9605182Y-14958984D01*
X9605182Y-14958984D02*
X9728991Y-14958984D01*
X9900420Y-14758984D02*
X9862325Y-14758984D01*
X9862325Y-14758984D02*
X9843277Y-14768508D01*
X9843277Y-14768508D02*
X9833753Y-14778031D01*
X9833753Y-14778031D02*
X9814706Y-14806603D01*
X9814706Y-14806603D02*
X9805182Y-14844698D01*
X9805182Y-14844698D02*
X9805182Y-14920888D01*
X9805182Y-14920888D02*
X9814706Y-14939936D01*
X9814706Y-14939936D02*
X9824229Y-14949460D01*
X9824229Y-14949460D02*
X9843277Y-14958984D01*
X9843277Y-14958984D02*
X9881372Y-14958984D01*
X9881372Y-14958984D02*
X9900420Y-14949460D01*
X9900420Y-14949460D02*
X9909944Y-14939936D01*
X9909944Y-14939936D02*
X9919468Y-14920888D01*
X9919468Y-14920888D02*
X9919468Y-14873269D01*
X9919468Y-14873269D02*
X9909944Y-14854222D01*
X9909944Y-14854222D02*
X9900420Y-14844698D01*
X9900420Y-14844698D02*
X9881372Y-14835174D01*
X9881372Y-14835174D02*
X9843277Y-14835174D01*
X9843277Y-14835174D02*
X9824229Y-14844698D01*
X9824229Y-14844698D02*
X9814706Y-14854222D01*
X9814706Y-14854222D02*
X9805182Y-14873269D01*
X10043277Y-14758984D02*
X10062325Y-14758984D01*
X10062325Y-14758984D02*
X10081372Y-14768508D01*
X10081372Y-14768508D02*
X10090896Y-14778031D01*
X10090896Y-14778031D02*
X10100420Y-14797079D01*
X10100420Y-14797079D02*
X10109944Y-14835174D01*
X10109944Y-14835174D02*
X10109944Y-14882793D01*
X10109944Y-14882793D02*
X10100420Y-14920888D01*
X10100420Y-14920888D02*
X10090896Y-14939936D01*
X10090896Y-14939936D02*
X10081372Y-14949460D01*
X10081372Y-14949460D02*
X10062325Y-14958984D01*
X10062325Y-14958984D02*
X10043277Y-14958984D01*
X10043277Y-14958984D02*
X10024229Y-14949460D01*
X10024229Y-14949460D02*
X10014706Y-14939936D01*
X10014706Y-14939936D02*
X10005182Y-14920888D01*
X10005182Y-14920888D02*
X9995658Y-14882793D01*
X9995658Y-14882793D02*
X9995658Y-14835174D01*
X9995658Y-14835174D02*
X10005182Y-14797079D01*
X10005182Y-14797079D02*
X10014706Y-14778031D01*
X10014706Y-14778031D02*
X10024229Y-14768508D01*
X10024229Y-14768508D02*
X10043277Y-14758984D01*
X10186134Y-14758984D02*
X10186134Y-14797079D01*
X10262325Y-14758984D02*
X10262325Y-14797079D01*
X10557563Y-15035174D02*
X10548039Y-15025650D01*
X10548039Y-15025650D02*
X10528991Y-14997079D01*
X10528991Y-14997079D02*
X10519468Y-14978031D01*
X10519468Y-14978031D02*
X10509944Y-14949460D01*
X10509944Y-14949460D02*
X10500420Y-14901841D01*
X10500420Y-14901841D02*
X10500420Y-14863746D01*
X10500420Y-14863746D02*
X10509944Y-14816127D01*
X10509944Y-14816127D02*
X10519468Y-14787555D01*
X10519468Y-14787555D02*
X10528991Y-14768508D01*
X10528991Y-14768508D02*
X10548039Y-14739936D01*
X10548039Y-14739936D02*
X10557563Y-14730412D01*
X10719468Y-14825650D02*
X10719468Y-14958984D01*
X10671849Y-14749460D02*
X10624230Y-14892317D01*
X10624230Y-14892317D02*
X10748039Y-14892317D01*
X10976611Y-14958984D02*
X10976611Y-14758984D01*
X11062325Y-14958984D02*
X11062325Y-14854222D01*
X11062325Y-14854222D02*
X11052801Y-14835174D01*
X11052801Y-14835174D02*
X11033753Y-14825650D01*
X11033753Y-14825650D02*
X11005182Y-14825650D01*
X11005182Y-14825650D02*
X10986134Y-14835174D01*
X10986134Y-14835174D02*
X10976611Y-14844698D01*
X11186134Y-14958984D02*
X11167087Y-14949460D01*
X11167087Y-14949460D02*
X11157563Y-14939936D01*
X11157563Y-14939936D02*
X11148039Y-14920888D01*
X11148039Y-14920888D02*
X11148039Y-14863746D01*
X11148039Y-14863746D02*
X11157563Y-14844698D01*
X11157563Y-14844698D02*
X11167087Y-14835174D01*
X11167087Y-14835174D02*
X11186134Y-14825650D01*
X11186134Y-14825650D02*
X11214706Y-14825650D01*
X11214706Y-14825650D02*
X11233753Y-14835174D01*
X11233753Y-14835174D02*
X11243277Y-14844698D01*
X11243277Y-14844698D02*
X11252801Y-14863746D01*
X11252801Y-14863746D02*
X11252801Y-14920888D01*
X11252801Y-14920888D02*
X11243277Y-14939936D01*
X11243277Y-14939936D02*
X11233753Y-14949460D01*
X11233753Y-14949460D02*
X11214706Y-14958984D01*
X11214706Y-14958984D02*
X11186134Y-14958984D01*
X11367087Y-14958984D02*
X11348039Y-14949460D01*
X11348039Y-14949460D02*
X11338515Y-14930412D01*
X11338515Y-14930412D02*
X11338515Y-14758984D01*
X11519468Y-14949460D02*
X11500420Y-14958984D01*
X11500420Y-14958984D02*
X11462325Y-14958984D01*
X11462325Y-14958984D02*
X11443277Y-14949460D01*
X11443277Y-14949460D02*
X11433753Y-14930412D01*
X11433753Y-14930412D02*
X11433753Y-14854222D01*
X11433753Y-14854222D02*
X11443277Y-14835174D01*
X11443277Y-14835174D02*
X11462325Y-14825650D01*
X11462325Y-14825650D02*
X11500420Y-14825650D01*
X11500420Y-14825650D02*
X11519468Y-14835174D01*
X11519468Y-14835174D02*
X11528991Y-14854222D01*
X11528991Y-14854222D02*
X11528991Y-14873269D01*
X11528991Y-14873269D02*
X11433753Y-14892317D01*
X11605182Y-14949460D02*
X11624230Y-14958984D01*
X11624230Y-14958984D02*
X11662325Y-14958984D01*
X11662325Y-14958984D02*
X11681372Y-14949460D01*
X11681372Y-14949460D02*
X11690896Y-14930412D01*
X11690896Y-14930412D02*
X11690896Y-14920888D01*
X11690896Y-14920888D02*
X11681372Y-14901841D01*
X11681372Y-14901841D02*
X11662325Y-14892317D01*
X11662325Y-14892317D02*
X11633753Y-14892317D01*
X11633753Y-14892317D02*
X11614706Y-14882793D01*
X11614706Y-14882793D02*
X11605182Y-14863746D01*
X11605182Y-14863746D02*
X11605182Y-14854222D01*
X11605182Y-14854222D02*
X11614706Y-14835174D01*
X11614706Y-14835174D02*
X11633753Y-14825650D01*
X11633753Y-14825650D02*
X11662325Y-14825650D01*
X11662325Y-14825650D02*
X11681372Y-14835174D01*
X11757563Y-15035174D02*
X11767087Y-15025650D01*
X11767087Y-15025650D02*
X11786134Y-14997079D01*
X11786134Y-14997079D02*
X11795658Y-14978031D01*
X11795658Y-14978031D02*
X11805182Y-14949460D01*
X11805182Y-14949460D02*
X11814706Y-14901841D01*
X11814706Y-14901841D02*
X11814706Y-14863746D01*
X11814706Y-14863746D02*
X11805182Y-14816127D01*
X11805182Y-14816127D02*
X11795658Y-14787555D01*
X11795658Y-14787555D02*
X11786134Y-14768508D01*
X11786134Y-14768508D02*
X11767087Y-14739936D01*
X11767087Y-14739936D02*
X11757563Y-14730412D01*
X12119468Y-15035174D02*
X12109944Y-15025650D01*
X12109944Y-15025650D02*
X12090896Y-14997079D01*
X12090896Y-14997079D02*
X12081372Y-14978031D01*
X12081372Y-14978031D02*
X12071849Y-14949460D01*
X12071849Y-14949460D02*
X12062325Y-14901841D01*
X12062325Y-14901841D02*
X12062325Y-14863746D01*
X12062325Y-14863746D02*
X12071849Y-14816127D01*
X12071849Y-14816127D02*
X12081372Y-14787555D01*
X12081372Y-14787555D02*
X12090896Y-14768508D01*
X12090896Y-14768508D02*
X12109944Y-14739936D01*
X12109944Y-14739936D02*
X12119468Y-14730412D01*
X12195658Y-14825650D02*
X12195658Y-14958984D01*
X12195658Y-14844698D02*
X12205182Y-14835174D01*
X12205182Y-14835174D02*
X12224230Y-14825650D01*
X12224230Y-14825650D02*
X12252801Y-14825650D01*
X12252801Y-14825650D02*
X12271849Y-14835174D01*
X12271849Y-14835174D02*
X12281372Y-14854222D01*
X12281372Y-14854222D02*
X12281372Y-14958984D01*
X12405182Y-14958984D02*
X12386134Y-14949460D01*
X12386134Y-14949460D02*
X12376611Y-14939936D01*
X12376611Y-14939936D02*
X12367087Y-14920888D01*
X12367087Y-14920888D02*
X12367087Y-14863746D01*
X12367087Y-14863746D02*
X12376611Y-14844698D01*
X12376611Y-14844698D02*
X12386134Y-14835174D01*
X12386134Y-14835174D02*
X12405182Y-14825650D01*
X12405182Y-14825650D02*
X12433753Y-14825650D01*
X12433753Y-14825650D02*
X12452801Y-14835174D01*
X12452801Y-14835174D02*
X12462325Y-14844698D01*
X12462325Y-14844698D02*
X12471849Y-14863746D01*
X12471849Y-14863746D02*
X12471849Y-14920888D01*
X12471849Y-14920888D02*
X12462325Y-14939936D01*
X12462325Y-14939936D02*
X12452801Y-14949460D01*
X12452801Y-14949460D02*
X12433753Y-14958984D01*
X12433753Y-14958984D02*
X12405182Y-14958984D01*
X12528992Y-14825650D02*
X12605182Y-14825650D01*
X12557563Y-14758984D02*
X12557563Y-14930412D01*
X12557563Y-14930412D02*
X12567087Y-14949460D01*
X12567087Y-14949460D02*
X12586134Y-14958984D01*
X12586134Y-14958984D02*
X12605182Y-14958984D01*
X12824230Y-14825650D02*
X12824230Y-15025650D01*
X12824230Y-14835174D02*
X12843277Y-14825650D01*
X12843277Y-14825650D02*
X12881373Y-14825650D01*
X12881373Y-14825650D02*
X12900420Y-14835174D01*
X12900420Y-14835174D02*
X12909944Y-14844698D01*
X12909944Y-14844698D02*
X12919468Y-14863746D01*
X12919468Y-14863746D02*
X12919468Y-14920888D01*
X12919468Y-14920888D02*
X12909944Y-14939936D01*
X12909944Y-14939936D02*
X12900420Y-14949460D01*
X12900420Y-14949460D02*
X12881373Y-14958984D01*
X12881373Y-14958984D02*
X12843277Y-14958984D01*
X12843277Y-14958984D02*
X12824230Y-14949460D01*
X13033753Y-14958984D02*
X13014706Y-14949460D01*
X13014706Y-14949460D02*
X13005182Y-14930412D01*
X13005182Y-14930412D02*
X13005182Y-14758984D01*
X13195658Y-14958984D02*
X13195658Y-14854222D01*
X13195658Y-14854222D02*
X13186134Y-14835174D01*
X13186134Y-14835174D02*
X13167087Y-14825650D01*
X13167087Y-14825650D02*
X13128992Y-14825650D01*
X13128992Y-14825650D02*
X13109944Y-14835174D01*
X13195658Y-14949460D02*
X13176611Y-14958984D01*
X13176611Y-14958984D02*
X13128992Y-14958984D01*
X13128992Y-14958984D02*
X13109944Y-14949460D01*
X13109944Y-14949460D02*
X13100420Y-14930412D01*
X13100420Y-14930412D02*
X13100420Y-14911365D01*
X13100420Y-14911365D02*
X13109944Y-14892317D01*
X13109944Y-14892317D02*
X13128992Y-14882793D01*
X13128992Y-14882793D02*
X13176611Y-14882793D01*
X13176611Y-14882793D02*
X13195658Y-14873269D01*
X13262325Y-14825650D02*
X13338515Y-14825650D01*
X13290896Y-14758984D02*
X13290896Y-14930412D01*
X13290896Y-14930412D02*
X13300420Y-14949460D01*
X13300420Y-14949460D02*
X13319468Y-14958984D01*
X13319468Y-14958984D02*
X13338515Y-14958984D01*
X13481373Y-14949460D02*
X13462325Y-14958984D01*
X13462325Y-14958984D02*
X13424230Y-14958984D01*
X13424230Y-14958984D02*
X13405182Y-14949460D01*
X13405182Y-14949460D02*
X13395658Y-14930412D01*
X13395658Y-14930412D02*
X13395658Y-14854222D01*
X13395658Y-14854222D02*
X13405182Y-14835174D01*
X13405182Y-14835174D02*
X13424230Y-14825650D01*
X13424230Y-14825650D02*
X13462325Y-14825650D01*
X13462325Y-14825650D02*
X13481373Y-14835174D01*
X13481373Y-14835174D02*
X13490896Y-14854222D01*
X13490896Y-14854222D02*
X13490896Y-14873269D01*
X13490896Y-14873269D02*
X13395658Y-14892317D01*
X13662325Y-14958984D02*
X13662325Y-14758984D01*
X13662325Y-14949460D02*
X13643277Y-14958984D01*
X13643277Y-14958984D02*
X13605182Y-14958984D01*
X13605182Y-14958984D02*
X13586134Y-14949460D01*
X13586134Y-14949460D02*
X13576611Y-14939936D01*
X13576611Y-14939936D02*
X13567087Y-14920888D01*
X13567087Y-14920888D02*
X13567087Y-14863746D01*
X13567087Y-14863746D02*
X13576611Y-14844698D01*
X13576611Y-14844698D02*
X13586134Y-14835174D01*
X13586134Y-14835174D02*
X13605182Y-14825650D01*
X13605182Y-14825650D02*
X13643277Y-14825650D01*
X13643277Y-14825650D02*
X13662325Y-14835174D01*
X13738515Y-15035174D02*
X13748039Y-15025650D01*
X13748039Y-15025650D02*
X13767087Y-14997079D01*
X13767087Y-14997079D02*
X13776611Y-14978031D01*
X13776611Y-14978031D02*
X13786134Y-14949460D01*
X13786134Y-14949460D02*
X13795658Y-14901841D01*
X13795658Y-14901841D02*
X13795658Y-14863746D01*
X13795658Y-14863746D02*
X13786134Y-14816127D01*
X13786134Y-14816127D02*
X13776611Y-14787555D01*
X13776611Y-14787555D02*
X13767087Y-14768508D01*
X13767087Y-14768508D02*
X13748039Y-14739936D01*
X13748039Y-14739936D02*
X13738515Y-14730412D01*
M02*
