%TF.GenerationSoftware,KiCad,Pcbnew,8.0.8*%
%TF.CreationDate,2025-11-10T08:34:54-07:00*%
%TF.ProjectId,WiegandTest,57696567-616e-4645-9465-73742e6b6963,A*%
%TF.SameCoordinates,Original*%
%TF.FileFunction,Soldermask,Bot*%
%TF.FilePolarity,Negative*%
%FSLAX46Y46*%
G04 Gerber Fmt 4.6, Leading zero omitted, Abs format (unit mm)*
G04 Created by KiCad (PCBNEW 8.0.8) date 2025-11-10 08:34:54*
%MOMM*%
%LPD*%
G01*
G04 APERTURE LIST*
G04 Aperture macros list*
%AMRoundRect*
0 Rectangle with rounded corners*
0 $1 Rounding radius*
0 $2 $3 $4 $5 $6 $7 $8 $9 X,Y pos of 4 corners*
0 Add a 4 corners polygon primitive as box body*
4,1,4,$2,$3,$4,$5,$6,$7,$8,$9,$2,$3,0*
0 Add four circle primitives for the rounded corners*
1,1,$1+$1,$2,$3*
1,1,$1+$1,$4,$5*
1,1,$1+$1,$6,$7*
1,1,$1+$1,$8,$9*
0 Add four rect primitives between the rounded corners*
20,1,$1+$1,$2,$3,$4,$5,0*
20,1,$1+$1,$4,$5,$6,$7,0*
20,1,$1+$1,$6,$7,$8,$9,0*
20,1,$1+$1,$8,$9,$2,$3,0*%
G04 Aperture macros list end*
%ADD10C,1.701800*%
%ADD11R,1.500000X1.500000*%
%ADD12C,3.200000*%
%ADD13R,1.700000X1.700000*%
%ADD14O,1.700000X1.700000*%
%ADD15C,2.500000*%
%ADD16O,1.800000X1.800000*%
%ADD17O,1.500000X1.500000*%
%ADD18R,2.000000X2.000000*%
%ADD19C,2.000000*%
%ADD20RoundRect,0.237500X0.237500X-0.287500X0.237500X0.287500X-0.237500X0.287500X-0.237500X-0.287500X0*%
%TA.AperFunction,Profile*%
%ADD21C,0.050000*%
%TD*%
G04 APERTURE END LIST*
D10*
%TO.C,J10*%
X98033200Y-58572400D03*
X100533200Y-58572400D03*
X103033200Y-58572400D03*
X105533200Y-58572400D03*
%TD*%
D11*
%TO.C,TP2*%
X72110600Y-65989200D03*
%TD*%
D12*
%TO.C,H1*%
X74930000Y-57150000D03*
%TD*%
D11*
%TO.C,TP1*%
X186842400Y-68656200D03*
%TD*%
D13*
%TO.C,J1*%
X153613400Y-64750800D03*
D14*
X156153400Y-64750800D03*
X158693400Y-64750800D03*
X161233400Y-64750800D03*
X163773400Y-64750800D03*
%TD*%
D12*
%TO.C,H4*%
X186690000Y-128270000D03*
%TD*%
D15*
%TO.C,H6*%
X178943000Y-63982600D03*
%TD*%
D10*
%TO.C,J7*%
X133537000Y-58540800D03*
X136037000Y-58540800D03*
X138537000Y-58540800D03*
X141037000Y-58540800D03*
%TD*%
D15*
%TO.C,H7*%
X178943000Y-119888000D03*
%TD*%
%TO.C,H8*%
X76784200Y-119888000D03*
%TD*%
D12*
%TO.C,H3*%
X74930000Y-128270000D03*
%TD*%
D10*
%TO.C,J3*%
X169000800Y-58521600D03*
X171500800Y-58521600D03*
X174000800Y-58521600D03*
X176500800Y-58521600D03*
%TD*%
D15*
%TO.C,H5*%
X76809600Y-63957200D03*
%TD*%
D12*
%TO.C,H2*%
X186690000Y-57150000D03*
%TD*%
D16*
%TO.C,U1*%
X108414400Y-131797600D03*
D17*
X108114400Y-128767600D03*
X103264400Y-128767600D03*
D16*
X102964400Y-131797600D03*
D14*
X114579400Y-131927600D03*
X114579400Y-129387600D03*
D13*
X114579400Y-126847600D03*
D14*
X114579400Y-124307600D03*
X114579400Y-121767600D03*
X114579400Y-119227600D03*
X114579400Y-116687600D03*
D13*
X114579400Y-114147600D03*
D14*
X114579400Y-111607600D03*
X114579400Y-109067600D03*
X114579400Y-106527600D03*
X114579400Y-103987600D03*
D13*
X114579400Y-101447600D03*
D14*
X114579400Y-98907600D03*
X114579400Y-96367600D03*
X114579400Y-93827600D03*
X114579400Y-91287600D03*
D13*
X114579400Y-88747600D03*
D14*
X114579400Y-86207600D03*
X114579400Y-83667600D03*
X96799400Y-83667600D03*
X96799400Y-86207600D03*
D13*
X96799400Y-88747600D03*
D14*
X96799400Y-91287600D03*
X96799400Y-93827600D03*
X96799400Y-96367600D03*
X96799400Y-98907600D03*
D13*
X96799400Y-101447600D03*
D14*
X96799400Y-103987600D03*
X96799400Y-106527600D03*
X96799400Y-109067600D03*
X96799400Y-111607600D03*
D13*
X96799400Y-114147600D03*
D14*
X96799400Y-116687600D03*
X96799400Y-119227600D03*
X96799400Y-121767600D03*
X96799400Y-124307600D03*
D13*
X96799400Y-126847600D03*
D14*
X96799400Y-129387600D03*
X96799400Y-131927600D03*
%TD*%
D13*
%TO.C,J5*%
X118149600Y-64770000D03*
D14*
X120689600Y-64770000D03*
X123229600Y-64770000D03*
X125769600Y-64770000D03*
X128309600Y-64770000D03*
%TD*%
D13*
%TO.C,J8*%
X82645800Y-64801600D03*
D14*
X85185800Y-64801600D03*
X87725800Y-64801600D03*
X90265800Y-64801600D03*
X92805800Y-64801600D03*
%TD*%
D18*
%TO.C,J4*%
X76327000Y-75336400D03*
D19*
X76327000Y-77876400D03*
X76327000Y-80416400D03*
X76327000Y-82956400D03*
X76327000Y-85496400D03*
X76327000Y-88036400D03*
X76327000Y-90576400D03*
X76327000Y-93116400D03*
X76327000Y-95656400D03*
X76327000Y-98196400D03*
X76327000Y-100736400D03*
X76327000Y-103276400D03*
X76327000Y-105816400D03*
X76327000Y-108356400D03*
%TD*%
D20*
%TO.C,D24*%
X102819200Y-63841600D03*
X102819200Y-62091600D03*
%TD*%
%TO.C,D9*%
X84099400Y-129463800D03*
X84099400Y-127713800D03*
%TD*%
%TO.C,D23*%
X138323000Y-63810000D03*
X138323000Y-62060000D03*
%TD*%
%TO.C,D7*%
X173786800Y-63790800D03*
X173786800Y-62040800D03*
%TD*%
D21*
X69850000Y-52070000D02*
X191770000Y-52070000D01*
X191770000Y-133350000D01*
X69850000Y-133350000D01*
X69850000Y-52070000D01*
M02*
