%TF.GenerationSoftware,KiCad,Pcbnew,8.0.8*%
%TF.CreationDate,2025-11-10T08:35:00-07:00*%
%TF.ProjectId,WiegandTest,57696567-616e-4645-9465-73742e6b6963,A*%
%TF.SameCoordinates,Original*%
%TF.FileFunction,Drillmap*%
%TF.FilePolarity,Positive*%
%FSLAX45Y45*%
G04 Gerber Fmt 4.5, Leading zero omitted, Abs format (unit mm)*
G04 Created by KiCad (PCBNEW 8.0.8) date 2025-11-10 08:35:00*
%MOMM*%
%LPD*%
G01*
G04 APERTURE LIST*
%ADD10C,0.050000*%
%ADD11C,0.200000*%
%ADD12C,0.100000*%
%ADD13C,0.102000*%
%ADD14C,0.119380*%
%ADD15C,0.120000*%
G04 APERTURE END LIST*
D10*
X6985000Y-5207000D02*
X19177000Y-5207000D01*
X19177000Y-13335000D01*
X6985000Y-13335000D01*
X6985000Y-5207000D01*
D11*
D12*
X8146020Y-6759180D02*
X8176020Y-6789180D01*
X8176020Y-6759180D02*
X8146020Y-6789180D01*
X8247620Y-7173200D02*
X8277620Y-7203200D01*
X8277620Y-7173200D02*
X8247620Y-7203200D01*
X8250160Y-12639280D02*
X8280160Y-12669280D01*
X8280160Y-12639280D02*
X8250160Y-12669280D01*
X8331440Y-8278100D02*
X8361440Y-8308100D01*
X8361440Y-8278100D02*
X8331440Y-8308100D01*
X8331440Y-8697200D02*
X8361440Y-8727200D01*
X8361440Y-8697200D02*
X8331440Y-8727200D01*
X8453360Y-6995400D02*
X8483360Y-7025400D01*
X8483360Y-6995400D02*
X8453360Y-7025400D01*
X8453360Y-7079220D02*
X8483360Y-7109220D01*
X8483360Y-7079220D02*
X8453360Y-7109220D01*
X8453360Y-8697200D02*
X8483360Y-8727200D01*
X8483360Y-8697200D02*
X8453360Y-8727200D01*
X8455900Y-8285720D02*
X8485900Y-8315720D01*
X8485900Y-8285720D02*
X8455900Y-8315720D01*
X8562580Y-7203680D02*
X8592580Y-7233680D01*
X8592580Y-7203680D02*
X8562580Y-7233680D01*
X8600680Y-7503400D02*
X8630680Y-7533400D01*
X8630680Y-7503400D02*
X8600680Y-7533400D01*
X8816580Y-11323560D02*
X8846580Y-11353560D01*
X8846580Y-11323560D02*
X8816580Y-11353560D01*
X8824200Y-13185380D02*
X8854200Y-13215380D01*
X8854200Y-13185380D02*
X8824200Y-13215380D01*
X8859760Y-6726160D02*
X8889760Y-6756160D01*
X8889760Y-6726160D02*
X8859760Y-6756160D01*
X9002000Y-7063980D02*
X9032000Y-7093980D01*
X9032000Y-7063980D02*
X9002000Y-7093980D01*
X9029940Y-7328140D02*
X9059940Y-7358140D01*
X9059940Y-7328140D02*
X9029940Y-7358140D01*
X9123920Y-7002880D02*
X9153920Y-7032880D01*
X9153920Y-7002880D02*
X9123920Y-7032880D01*
X9265580Y-5774240D02*
X9295580Y-5804240D01*
X9295580Y-5774240D02*
X9265580Y-5804240D01*
X9393160Y-7251940D02*
X9423160Y-7281940D01*
X9423160Y-7251940D02*
X9393160Y-7281940D01*
X9408400Y-7503400D02*
X9438400Y-7533400D01*
X9438400Y-7503400D02*
X9408400Y-7533400D01*
X9413480Y-7328140D02*
X9443480Y-7358140D01*
X9443480Y-7328140D02*
X9413480Y-7358140D01*
X9421100Y-6903960D02*
X9451100Y-6933960D01*
X9451100Y-6903960D02*
X9421100Y-6933960D01*
X9454120Y-7079220D02*
X9484120Y-7109220D01*
X9484120Y-7079220D02*
X9454120Y-7109220D01*
X9718280Y-6639800D02*
X9748280Y-6669800D01*
X9748280Y-6639800D02*
X9718280Y-6669800D01*
X9786860Y-6789660D02*
X9816860Y-6819660D01*
X9816860Y-6789660D02*
X9786860Y-6819660D01*
X9865600Y-7188440D02*
X9895600Y-7218440D01*
X9895600Y-7188440D02*
X9865600Y-7218440D01*
X9868140Y-7015720D02*
X9898140Y-7045720D01*
X9898140Y-7015720D02*
X9868140Y-7045720D01*
X10073880Y-6662660D02*
X10103880Y-6692660D01*
X10103880Y-6662660D02*
X10073880Y-6692660D01*
X10266920Y-6063220D02*
X10296920Y-6093220D01*
X10296920Y-6063220D02*
X10266920Y-6093220D01*
X10266920Y-6528040D02*
X10296920Y-6558040D01*
X10296920Y-6528040D02*
X10266920Y-6558040D01*
X10279620Y-7078990D02*
X10309620Y-7108990D01*
X10309620Y-7078990D02*
X10279620Y-7108990D01*
X11696400Y-6756020D02*
X11726400Y-6786020D01*
X11726400Y-6756020D02*
X11696400Y-6786020D01*
X11798000Y-7170040D02*
X11828000Y-7200040D01*
X11828000Y-7170040D02*
X11798000Y-7200040D01*
X12003740Y-6992240D02*
X12033740Y-7022240D01*
X12033740Y-6992240D02*
X12003740Y-7022240D01*
X12003740Y-7076060D02*
X12033740Y-7106060D01*
X12033740Y-7076060D02*
X12003740Y-7106060D01*
X12120580Y-7505320D02*
X12150580Y-7535320D01*
X12150580Y-7505320D02*
X12120580Y-7535320D01*
X12130740Y-7248780D02*
X12160740Y-7278780D01*
X12160740Y-7248780D02*
X12130740Y-7278780D01*
X12410140Y-6723000D02*
X12440140Y-6753000D01*
X12440140Y-6723000D02*
X12410140Y-6753000D01*
X12496384Y-7468843D02*
X12526384Y-7498843D01*
X12526384Y-7468843D02*
X12496384Y-7498843D01*
X12552380Y-7060820D02*
X12582380Y-7090820D01*
X12582380Y-7060820D02*
X12552380Y-7090820D01*
X12580320Y-7324980D02*
X12610320Y-7354980D01*
X12610320Y-7324980D02*
X12580320Y-7354980D01*
X12641820Y-7663420D02*
X12671820Y-7693420D01*
X12671820Y-7663420D02*
X12641820Y-7693420D01*
X12674300Y-6999720D02*
X12704300Y-7029720D01*
X12704300Y-6999720D02*
X12674300Y-7029720D01*
X12815960Y-5771080D02*
X12845960Y-5801080D01*
X12845960Y-5771080D02*
X12815960Y-5801080D01*
X12943540Y-7248780D02*
X12973540Y-7278780D01*
X12973540Y-7248780D02*
X12943540Y-7278780D01*
X12958780Y-7500240D02*
X12988780Y-7530240D01*
X12988780Y-7500240D02*
X12958780Y-7530240D01*
X12963860Y-7324980D02*
X12993860Y-7354980D01*
X12993860Y-7324980D02*
X12963860Y-7354980D01*
X12971480Y-6900800D02*
X13001480Y-6930800D01*
X13001480Y-6900800D02*
X12971480Y-6930800D01*
X13004500Y-7076060D02*
X13034500Y-7106060D01*
X13034500Y-7076060D02*
X13004500Y-7106060D01*
X13268660Y-6636640D02*
X13298660Y-6666640D01*
X13298660Y-6636640D02*
X13268660Y-6666640D01*
X13337240Y-6786500D02*
X13367240Y-6816500D01*
X13367240Y-6786500D02*
X13337240Y-6816500D01*
X13415980Y-7185280D02*
X13445980Y-7215280D01*
X13445980Y-7185280D02*
X13415980Y-7215280D01*
X13418520Y-7012560D02*
X13448520Y-7042560D01*
X13448520Y-7012560D02*
X13418520Y-7042560D01*
X13624260Y-6659500D02*
X13654260Y-6689500D01*
X13654260Y-6659500D02*
X13624260Y-6689500D01*
X13812220Y-6530580D02*
X13842220Y-6560580D01*
X13842220Y-6530580D02*
X13812220Y-6560580D01*
X13817300Y-6060060D02*
X13847300Y-6090060D01*
X13847300Y-6060060D02*
X13817300Y-6090060D01*
X13830000Y-7075830D02*
X13860000Y-7105830D01*
X13860000Y-7075830D02*
X13830000Y-7105830D01*
X15242780Y-6754100D02*
X15272780Y-6784100D01*
X15272780Y-6754100D02*
X15242780Y-6784100D01*
X15344380Y-7168120D02*
X15374380Y-7198120D01*
X15374380Y-7168120D02*
X15344380Y-7198120D01*
X15550120Y-6990320D02*
X15580120Y-7020320D01*
X15580120Y-6990320D02*
X15550120Y-7020320D01*
X15550120Y-7074140D02*
X15580120Y-7104140D01*
X15580120Y-7074140D02*
X15550120Y-7104140D01*
X15666960Y-7503400D02*
X15696960Y-7533400D01*
X15696960Y-7503400D02*
X15666960Y-7533400D01*
X15677120Y-7246860D02*
X15707120Y-7276860D01*
X15707120Y-7246860D02*
X15677120Y-7276860D01*
X15956520Y-6721080D02*
X15986520Y-6751080D01*
X15986520Y-6721080D02*
X15956520Y-6751080D01*
X16098760Y-7058900D02*
X16128760Y-7088900D01*
X16128760Y-7058900D02*
X16098760Y-7088900D01*
X16126700Y-7323060D02*
X16156700Y-7353060D01*
X16156700Y-7323060D02*
X16126700Y-7353060D01*
X16220680Y-6997800D02*
X16250680Y-7027800D01*
X16250680Y-6997800D02*
X16220680Y-7027800D01*
X16362340Y-5769160D02*
X16392340Y-5799160D01*
X16392340Y-5769160D02*
X16362340Y-5799160D01*
X16489920Y-7246860D02*
X16519920Y-7276860D01*
X16519920Y-7246860D02*
X16489920Y-7276860D01*
X16505160Y-7498320D02*
X16535160Y-7528320D01*
X16535160Y-7498320D02*
X16505160Y-7528320D01*
X16510240Y-7323060D02*
X16540240Y-7353060D01*
X16540240Y-7323060D02*
X16510240Y-7353060D01*
X16517860Y-6898880D02*
X16547860Y-6928880D01*
X16547860Y-6898880D02*
X16517860Y-6928880D01*
X16550880Y-7074140D02*
X16580880Y-7104140D01*
X16580880Y-7074140D02*
X16550880Y-7104140D01*
X16815040Y-6634720D02*
X16845040Y-6664720D01*
X16845040Y-6634720D02*
X16815040Y-6664720D01*
X16883620Y-6784580D02*
X16913620Y-6814580D01*
X16913620Y-6784580D02*
X16883620Y-6814580D01*
X16962360Y-7183360D02*
X16992360Y-7213360D01*
X16992360Y-7183360D02*
X16962360Y-7213360D01*
X16964900Y-7010640D02*
X16994900Y-7040640D01*
X16994900Y-7010640D02*
X16964900Y-7040640D01*
X17170640Y-6657580D02*
X17200640Y-6687580D01*
X17200640Y-6657580D02*
X17170640Y-6687580D01*
X17358600Y-6512800D02*
X17388600Y-6542800D01*
X17388600Y-6512800D02*
X17358600Y-6542800D01*
X17363680Y-6058140D02*
X17393680Y-6088140D01*
X17393680Y-6058140D02*
X17363680Y-6088140D01*
X17376380Y-7073910D02*
X17406380Y-7103910D01*
X17406380Y-7073910D02*
X17376380Y-7103910D01*
X7431640Y-6835140D02*
G75*
G02*
X7381640Y-6835140I-25000J0D01*
G01*
X7381640Y-6835140D02*
G75*
G02*
X7431640Y-6835140I25000J0D01*
G01*
X7563720Y-7045960D02*
G75*
G02*
X7513720Y-7045960I-25000J0D01*
G01*
X7513720Y-7045960D02*
G75*
G02*
X7563720Y-7045960I25000J0D01*
G01*
X7647540Y-11163300D02*
G75*
G02*
X7597540Y-11163300I-25000J0D01*
G01*
X7597540Y-11163300D02*
G75*
G02*
X7647540Y-11163300I25000J0D01*
G01*
X7850740Y-11117580D02*
G75*
G02*
X7800740Y-11117580I-25000J0D01*
G01*
X7800740Y-11117580D02*
G75*
G02*
X7850740Y-11117580I25000J0D01*
G01*
X8289580Y-5542860D02*
G75*
G02*
X8239580Y-5542860I-25000J0D01*
G01*
X8239580Y-5542860D02*
G75*
G02*
X8289580Y-5542860I25000J0D01*
G01*
X8658460Y-13200380D02*
G75*
G02*
X8608460Y-13200380I-25000J0D01*
G01*
X8608460Y-13200380D02*
G75*
G02*
X8658460Y-13200380I25000J0D01*
G01*
X8772760Y-6717500D02*
G75*
G02*
X8722760Y-6717500I-25000J0D01*
G01*
X8722760Y-6717500D02*
G75*
G02*
X8772760Y-6717500I25000J0D01*
G01*
X8799540Y-5341620D02*
G75*
G02*
X8749540Y-5341620I-25000J0D01*
G01*
X8749540Y-5341620D02*
G75*
G02*
X8799540Y-5341620I25000J0D01*
G01*
X10385660Y-7404100D02*
G75*
G02*
X10335660Y-7404100I-25000J0D01*
G01*
X10335660Y-7404100D02*
G75*
G02*
X10385660Y-7404100I25000J0D01*
G01*
X10807300Y-6390640D02*
G75*
G02*
X10757300Y-6390640I-25000J0D01*
G01*
X10757300Y-6390640D02*
G75*
G02*
X10807300Y-6390640I25000J0D01*
G01*
X10809840Y-5341620D02*
G75*
G02*
X10759840Y-5341620I-25000J0D01*
G01*
X10759840Y-5341620D02*
G75*
G02*
X10809840Y-5341620I25000J0D01*
G01*
X11835460Y-5445760D02*
G75*
G02*
X11785460Y-5445760I-25000J0D01*
G01*
X11785460Y-5445760D02*
G75*
G02*
X11835460Y-5445760I25000J0D01*
G01*
X12308340Y-6729140D02*
G75*
G02*
X12258340Y-6729140I-25000J0D01*
G01*
X12258340Y-6729140D02*
G75*
G02*
X12308340Y-6729140I25000J0D01*
G01*
X12343460Y-5339080D02*
G75*
G02*
X12293460Y-5339080I-25000J0D01*
G01*
X12293460Y-5339080D02*
G75*
G02*
X12343460Y-5339080I25000J0D01*
G01*
X13936040Y-7400940D02*
G75*
G02*
X13886040Y-7400940I-25000J0D01*
G01*
X13886040Y-7400940D02*
G75*
G02*
X13936040Y-7400940I25000J0D01*
G01*
X14289100Y-6398260D02*
G75*
G02*
X14239100Y-6398260I-25000J0D01*
G01*
X14239100Y-6398260D02*
G75*
G02*
X14289100Y-6398260I25000J0D01*
G01*
X14294180Y-5354320D02*
G75*
G02*
X14244180Y-5354320I-25000J0D01*
G01*
X14244180Y-5354320D02*
G75*
G02*
X14294180Y-5354320I25000J0D01*
G01*
X14568500Y-5880100D02*
G75*
G02*
X14518500Y-5880100I-25000J0D01*
G01*
X14518500Y-5880100D02*
G75*
G02*
X14568500Y-5880100I25000J0D01*
G01*
X15005920Y-5953760D02*
G75*
G02*
X14955920Y-5953760I-25000J0D01*
G01*
X14955920Y-5953760D02*
G75*
G02*
X15005920Y-5953760I25000J0D01*
G01*
X15384380Y-5529580D02*
G75*
G02*
X15334380Y-5529580I-25000J0D01*
G01*
X15334380Y-5529580D02*
G75*
G02*
X15384380Y-5529580I25000J0D01*
G01*
X15869520Y-6712420D02*
G75*
G02*
X15819520Y-6712420I-25000J0D01*
G01*
X15819520Y-6712420D02*
G75*
G02*
X15869520Y-6712420I25000J0D01*
G01*
X17482420Y-7399020D02*
G75*
G02*
X17432420Y-7399020I-25000J0D01*
G01*
X17432420Y-7399020D02*
G75*
G02*
X17482420Y-7399020I25000J0D01*
G01*
X7211060Y-6563920D02*
X7211060Y-6633920D01*
X7176060Y-6598920D02*
X7246060Y-6598920D01*
X18684240Y-6830620D02*
X18684240Y-6900620D01*
X18649240Y-6865620D02*
X18719240Y-6865620D01*
X8299936Y-6515516D02*
X8299936Y-6444804D01*
X8229224Y-6444804D01*
X8229224Y-6515516D01*
X8299936Y-6515516D01*
X8553936Y-6515516D02*
X8553936Y-6444804D01*
X8483224Y-6444804D01*
X8483224Y-6515516D01*
X8553936Y-6515516D01*
X8807936Y-6515516D02*
X8807936Y-6444804D01*
X8737224Y-6444804D01*
X8737224Y-6515516D01*
X8807936Y-6515516D01*
X9061936Y-6515516D02*
X9061936Y-6444804D01*
X8991224Y-6444804D01*
X8991224Y-6515516D01*
X9061936Y-6515516D01*
X9315936Y-6515516D02*
X9315936Y-6444804D01*
X9245224Y-6444804D01*
X9245224Y-6515516D01*
X9315936Y-6515516D01*
X11850316Y-6512356D02*
X11850316Y-6441644D01*
X11779604Y-6441644D01*
X11779604Y-6512356D01*
X11850316Y-6512356D01*
X12104316Y-6512356D02*
X12104316Y-6441644D01*
X12033604Y-6441644D01*
X12033604Y-6512356D01*
X12104316Y-6512356D01*
X12358316Y-6512356D02*
X12358316Y-6441644D01*
X12287604Y-6441644D01*
X12287604Y-6512356D01*
X12358316Y-6512356D01*
X12612316Y-6512356D02*
X12612316Y-6441644D01*
X12541604Y-6441644D01*
X12541604Y-6512356D01*
X12612316Y-6512356D01*
X12866316Y-6512356D02*
X12866316Y-6441644D01*
X12795604Y-6441644D01*
X12795604Y-6512356D01*
X12866316Y-6512356D01*
X15396696Y-6510436D02*
X15396696Y-6439724D01*
X15325984Y-6439724D01*
X15325984Y-6510436D01*
X15396696Y-6510436D01*
X15650696Y-6510436D02*
X15650696Y-6439724D01*
X15579984Y-6439724D01*
X15579984Y-6510436D01*
X15650696Y-6510436D01*
X15904696Y-6510436D02*
X15904696Y-6439724D01*
X15833984Y-6439724D01*
X15833984Y-6510436D01*
X15904696Y-6510436D01*
X16158696Y-6510436D02*
X16158696Y-6439724D01*
X16087984Y-6439724D01*
X16087984Y-6510436D01*
X16158696Y-6510436D01*
X16412696Y-6510436D02*
X16412696Y-6439724D01*
X16341984Y-6439724D01*
X16341984Y-6510436D01*
X16412696Y-6510436D01*
D13*
X9679940Y-8417760D02*
X9730940Y-8366760D01*
X9679940Y-8315760D01*
X9628940Y-8366760D01*
X9679940Y-8417760D01*
X9679940Y-8671760D02*
X9730940Y-8620760D01*
X9679940Y-8569760D01*
X9628940Y-8620760D01*
X9679940Y-8671760D01*
X9679940Y-8925760D02*
X9730940Y-8874760D01*
X9679940Y-8823760D01*
X9628940Y-8874760D01*
X9679940Y-8925760D01*
X9679940Y-9179760D02*
X9730940Y-9128760D01*
X9679940Y-9077760D01*
X9628940Y-9128760D01*
X9679940Y-9179760D01*
X9679940Y-9433760D02*
X9730940Y-9382760D01*
X9679940Y-9331760D01*
X9628940Y-9382760D01*
X9679940Y-9433760D01*
X9679940Y-9687760D02*
X9730940Y-9636760D01*
X9679940Y-9585760D01*
X9628940Y-9636760D01*
X9679940Y-9687760D01*
X9679940Y-9941760D02*
X9730940Y-9890760D01*
X9679940Y-9839760D01*
X9628940Y-9890760D01*
X9679940Y-9941760D01*
X9679940Y-10195760D02*
X9730940Y-10144760D01*
X9679940Y-10093760D01*
X9628940Y-10144760D01*
X9679940Y-10195760D01*
X9679940Y-10449760D02*
X9730940Y-10398760D01*
X9679940Y-10347760D01*
X9628940Y-10398760D01*
X9679940Y-10449760D01*
X9679940Y-10703760D02*
X9730940Y-10652760D01*
X9679940Y-10601760D01*
X9628940Y-10652760D01*
X9679940Y-10703760D01*
X9679940Y-10957760D02*
X9730940Y-10906760D01*
X9679940Y-10855760D01*
X9628940Y-10906760D01*
X9679940Y-10957760D01*
X9679940Y-11211760D02*
X9730940Y-11160760D01*
X9679940Y-11109760D01*
X9628940Y-11160760D01*
X9679940Y-11211760D01*
X9679940Y-11465760D02*
X9730940Y-11414760D01*
X9679940Y-11363760D01*
X9628940Y-11414760D01*
X9679940Y-11465760D01*
X9679940Y-11719760D02*
X9730940Y-11668760D01*
X9679940Y-11617760D01*
X9628940Y-11668760D01*
X9679940Y-11719760D01*
X9679940Y-11973760D02*
X9730940Y-11922760D01*
X9679940Y-11871760D01*
X9628940Y-11922760D01*
X9679940Y-11973760D01*
X9679940Y-12227760D02*
X9730940Y-12176760D01*
X9679940Y-12125760D01*
X9628940Y-12176760D01*
X9679940Y-12227760D01*
X9679940Y-12481760D02*
X9730940Y-12430760D01*
X9679940Y-12379760D01*
X9628940Y-12430760D01*
X9679940Y-12481760D01*
X9679940Y-12735760D02*
X9730940Y-12684760D01*
X9679940Y-12633760D01*
X9628940Y-12684760D01*
X9679940Y-12735760D01*
X9679940Y-12989760D02*
X9730940Y-12938760D01*
X9679940Y-12887760D01*
X9628940Y-12938760D01*
X9679940Y-12989760D01*
X9679940Y-13243760D02*
X9730940Y-13192760D01*
X9679940Y-13141760D01*
X9628940Y-13192760D01*
X9679940Y-13243760D01*
X11457940Y-8417760D02*
X11508940Y-8366760D01*
X11457940Y-8315760D01*
X11406940Y-8366760D01*
X11457940Y-8417760D01*
X11457940Y-8671760D02*
X11508940Y-8620760D01*
X11457940Y-8569760D01*
X11406940Y-8620760D01*
X11457940Y-8671760D01*
X11457940Y-8925760D02*
X11508940Y-8874760D01*
X11457940Y-8823760D01*
X11406940Y-8874760D01*
X11457940Y-8925760D01*
X11457940Y-9179760D02*
X11508940Y-9128760D01*
X11457940Y-9077760D01*
X11406940Y-9128760D01*
X11457940Y-9179760D01*
X11457940Y-9433760D02*
X11508940Y-9382760D01*
X11457940Y-9331760D01*
X11406940Y-9382760D01*
X11457940Y-9433760D01*
X11457940Y-9687760D02*
X11508940Y-9636760D01*
X11457940Y-9585760D01*
X11406940Y-9636760D01*
X11457940Y-9687760D01*
X11457940Y-9941760D02*
X11508940Y-9890760D01*
X11457940Y-9839760D01*
X11406940Y-9890760D01*
X11457940Y-9941760D01*
X11457940Y-10195760D02*
X11508940Y-10144760D01*
X11457940Y-10093760D01*
X11406940Y-10144760D01*
X11457940Y-10195760D01*
X11457940Y-10449760D02*
X11508940Y-10398760D01*
X11457940Y-10347760D01*
X11406940Y-10398760D01*
X11457940Y-10449760D01*
X11457940Y-10703760D02*
X11508940Y-10652760D01*
X11457940Y-10601760D01*
X11406940Y-10652760D01*
X11457940Y-10703760D01*
X11457940Y-10957760D02*
X11508940Y-10906760D01*
X11457940Y-10855760D01*
X11406940Y-10906760D01*
X11457940Y-10957760D01*
X11457940Y-11211760D02*
X11508940Y-11160760D01*
X11457940Y-11109760D01*
X11406940Y-11160760D01*
X11457940Y-11211760D01*
X11457940Y-11465760D02*
X11508940Y-11414760D01*
X11457940Y-11363760D01*
X11406940Y-11414760D01*
X11457940Y-11465760D01*
X11457940Y-11719760D02*
X11508940Y-11668760D01*
X11457940Y-11617760D01*
X11406940Y-11668760D01*
X11457940Y-11719760D01*
X11457940Y-11973760D02*
X11508940Y-11922760D01*
X11457940Y-11871760D01*
X11406940Y-11922760D01*
X11457940Y-11973760D01*
X11457940Y-12227760D02*
X11508940Y-12176760D01*
X11457940Y-12125760D01*
X11406940Y-12176760D01*
X11457940Y-12227760D01*
X11457940Y-12481760D02*
X11508940Y-12430760D01*
X11457940Y-12379760D01*
X11406940Y-12430760D01*
X11457940Y-12481760D01*
X11457940Y-12735760D02*
X11508940Y-12684760D01*
X11457940Y-12633760D01*
X11406940Y-12684760D01*
X11457940Y-12735760D01*
X11457940Y-12989760D02*
X11508940Y-12938760D01*
X11457940Y-12887760D01*
X11406940Y-12938760D01*
X11457940Y-12989760D01*
X11457940Y-13243760D02*
X11508940Y-13192760D01*
X11457940Y-13141760D01*
X11406940Y-13192760D01*
X11457940Y-13243760D01*
D14*
X9743630Y-5797550D02*
X9863010Y-5916930D01*
X9863010Y-5797550D02*
X9743630Y-5916930D01*
X9863010Y-5857240D02*
G75*
G02*
X9743630Y-5857240I-59690J0D01*
G01*
X9743630Y-5857240D02*
G75*
G02*
X9863010Y-5857240I59690J0D01*
G01*
X9993630Y-5797550D02*
X10113010Y-5916930D01*
X10113010Y-5797550D02*
X9993630Y-5916930D01*
X10113010Y-5857240D02*
G75*
G02*
X9993630Y-5857240I-59690J0D01*
G01*
X9993630Y-5857240D02*
G75*
G02*
X10113010Y-5857240I59690J0D01*
G01*
X10243630Y-5797550D02*
X10363010Y-5916930D01*
X10363010Y-5797550D02*
X10243630Y-5916930D01*
X10363010Y-5857240D02*
G75*
G02*
X10243630Y-5857240I-59690J0D01*
G01*
X10243630Y-5857240D02*
G75*
G02*
X10363010Y-5857240I59690J0D01*
G01*
X10493630Y-5797550D02*
X10613010Y-5916930D01*
X10613010Y-5797550D02*
X10493630Y-5916930D01*
X10613010Y-5857240D02*
G75*
G02*
X10493630Y-5857240I-59690J0D01*
G01*
X10493630Y-5857240D02*
G75*
G02*
X10613010Y-5857240I59690J0D01*
G01*
X13294010Y-5794390D02*
X13413390Y-5913770D01*
X13413390Y-5794390D02*
X13294010Y-5913770D01*
X13413390Y-5854080D02*
G75*
G02*
X13294010Y-5854080I-59690J0D01*
G01*
X13294010Y-5854080D02*
G75*
G02*
X13413390Y-5854080I59690J0D01*
G01*
X13544010Y-5794390D02*
X13663390Y-5913770D01*
X13663390Y-5794390D02*
X13544010Y-5913770D01*
X13663390Y-5854080D02*
G75*
G02*
X13544010Y-5854080I-59690J0D01*
G01*
X13544010Y-5854080D02*
G75*
G02*
X13663390Y-5854080I59690J0D01*
G01*
X13794010Y-5794390D02*
X13913390Y-5913770D01*
X13913390Y-5794390D02*
X13794010Y-5913770D01*
X13913390Y-5854080D02*
G75*
G02*
X13794010Y-5854080I-59690J0D01*
G01*
X13794010Y-5854080D02*
G75*
G02*
X13913390Y-5854080I59690J0D01*
G01*
X14044010Y-5794390D02*
X14163390Y-5913770D01*
X14163390Y-5794390D02*
X14044010Y-5913770D01*
X14163390Y-5854080D02*
G75*
G02*
X14044010Y-5854080I-59690J0D01*
G01*
X14044010Y-5854080D02*
G75*
G02*
X14163390Y-5854080I59690J0D01*
G01*
X16840390Y-5792470D02*
X16959770Y-5911850D01*
X16959770Y-5792470D02*
X16840390Y-5911850D01*
X16959770Y-5852160D02*
G75*
G02*
X16840390Y-5852160I-59690J0D01*
G01*
X16840390Y-5852160D02*
G75*
G02*
X16959770Y-5852160I59690J0D01*
G01*
X17090390Y-5792470D02*
X17209770Y-5911850D01*
X17209770Y-5792470D02*
X17090390Y-5911850D01*
X17209770Y-5852160D02*
G75*
G02*
X17090390Y-5852160I-59690J0D01*
G01*
X17090390Y-5852160D02*
G75*
G02*
X17209770Y-5852160I59690J0D01*
G01*
X17340390Y-5792470D02*
X17459770Y-5911850D01*
X17459770Y-5792470D02*
X17340390Y-5911850D01*
X17459770Y-5852160D02*
G75*
G02*
X17340390Y-5852160I-59690J0D01*
G01*
X17340390Y-5852160D02*
G75*
G02*
X17459770Y-5852160I59690J0D01*
G01*
X17590390Y-5792470D02*
X17709770Y-5911850D01*
X17709770Y-5792470D02*
X17590390Y-5911850D01*
X17709770Y-5852160D02*
G75*
G02*
X17590390Y-5852160I-59690J0D01*
G01*
X17590390Y-5852160D02*
G75*
G02*
X17709770Y-5852160I59690J0D01*
G01*
D15*
X7572700Y-7473640D02*
X7692700Y-7593640D01*
X7692700Y-7473640D02*
X7572700Y-7593640D01*
X7632700Y-7473640D02*
X7632700Y-7593640D01*
X7572700Y-7533640D02*
X7692700Y-7533640D01*
X7572700Y-7727640D02*
X7692700Y-7847640D01*
X7692700Y-7727640D02*
X7572700Y-7847640D01*
X7632700Y-7727640D02*
X7632700Y-7847640D01*
X7572700Y-7787640D02*
X7692700Y-7787640D01*
X7572700Y-7981640D02*
X7692700Y-8101640D01*
X7692700Y-7981640D02*
X7572700Y-8101640D01*
X7632700Y-7981640D02*
X7632700Y-8101640D01*
X7572700Y-8041640D02*
X7692700Y-8041640D01*
X7572700Y-8235640D02*
X7692700Y-8355640D01*
X7692700Y-8235640D02*
X7572700Y-8355640D01*
X7632700Y-8235640D02*
X7632700Y-8355640D01*
X7572700Y-8295640D02*
X7692700Y-8295640D01*
X7572700Y-8489640D02*
X7692700Y-8609640D01*
X7692700Y-8489640D02*
X7572700Y-8609640D01*
X7632700Y-8489640D02*
X7632700Y-8609640D01*
X7572700Y-8549640D02*
X7692700Y-8549640D01*
X7572700Y-8743640D02*
X7692700Y-8863640D01*
X7692700Y-8743640D02*
X7572700Y-8863640D01*
X7632700Y-8743640D02*
X7632700Y-8863640D01*
X7572700Y-8803640D02*
X7692700Y-8803640D01*
X7572700Y-8997640D02*
X7692700Y-9117640D01*
X7692700Y-8997640D02*
X7572700Y-9117640D01*
X7632700Y-8997640D02*
X7632700Y-9117640D01*
X7572700Y-9057640D02*
X7692700Y-9057640D01*
X7572700Y-9251640D02*
X7692700Y-9371640D01*
X7692700Y-9251640D02*
X7572700Y-9371640D01*
X7632700Y-9251640D02*
X7632700Y-9371640D01*
X7572700Y-9311640D02*
X7692700Y-9311640D01*
X7572700Y-9505640D02*
X7692700Y-9625640D01*
X7692700Y-9505640D02*
X7572700Y-9625640D01*
X7632700Y-9505640D02*
X7632700Y-9625640D01*
X7572700Y-9565640D02*
X7692700Y-9565640D01*
X7572700Y-9759640D02*
X7692700Y-9879640D01*
X7692700Y-9759640D02*
X7572700Y-9879640D01*
X7632700Y-9759640D02*
X7632700Y-9879640D01*
X7572700Y-9819640D02*
X7692700Y-9819640D01*
X7572700Y-10013640D02*
X7692700Y-10133640D01*
X7692700Y-10013640D02*
X7572700Y-10133640D01*
X7632700Y-10013640D02*
X7632700Y-10133640D01*
X7572700Y-10073640D02*
X7692700Y-10073640D01*
X7572700Y-10267640D02*
X7692700Y-10387640D01*
X7692700Y-10267640D02*
X7572700Y-10387640D01*
X7632700Y-10267640D02*
X7632700Y-10387640D01*
X7572700Y-10327640D02*
X7692700Y-10327640D01*
X7572700Y-10521640D02*
X7692700Y-10641640D01*
X7692700Y-10521640D02*
X7572700Y-10641640D01*
X7632700Y-10521640D02*
X7632700Y-10641640D01*
X7572700Y-10581640D02*
X7692700Y-10581640D01*
X7572700Y-10775640D02*
X7692700Y-10895640D01*
X7692700Y-10775640D02*
X7572700Y-10895640D01*
X7632700Y-10775640D02*
X7632700Y-10895640D01*
X7572700Y-10835640D02*
X7692700Y-10835640D01*
D11*
X7243277Y-13648984D02*
X7243277Y-13448984D01*
X7243277Y-13448984D02*
X7290896Y-13448984D01*
X7290896Y-13448984D02*
X7319467Y-13458508D01*
X7319467Y-13458508D02*
X7338515Y-13477555D01*
X7338515Y-13477555D02*
X7348039Y-13496603D01*
X7348039Y-13496603D02*
X7357562Y-13534698D01*
X7357562Y-13534698D02*
X7357562Y-13563269D01*
X7357562Y-13563269D02*
X7348039Y-13601365D01*
X7348039Y-13601365D02*
X7338515Y-13620412D01*
X7338515Y-13620412D02*
X7319467Y-13639460D01*
X7319467Y-13639460D02*
X7290896Y-13648984D01*
X7290896Y-13648984D02*
X7243277Y-13648984D01*
X7443277Y-13648984D02*
X7443277Y-13515650D01*
X7443277Y-13553746D02*
X7452801Y-13534698D01*
X7452801Y-13534698D02*
X7462324Y-13525174D01*
X7462324Y-13525174D02*
X7481372Y-13515650D01*
X7481372Y-13515650D02*
X7500420Y-13515650D01*
X7567086Y-13648984D02*
X7567086Y-13515650D01*
X7567086Y-13448984D02*
X7557562Y-13458508D01*
X7557562Y-13458508D02*
X7567086Y-13468031D01*
X7567086Y-13468031D02*
X7576610Y-13458508D01*
X7576610Y-13458508D02*
X7567086Y-13448984D01*
X7567086Y-13448984D02*
X7567086Y-13468031D01*
X7690896Y-13648984D02*
X7671848Y-13639460D01*
X7671848Y-13639460D02*
X7662324Y-13620412D01*
X7662324Y-13620412D02*
X7662324Y-13448984D01*
X7795658Y-13648984D02*
X7776610Y-13639460D01*
X7776610Y-13639460D02*
X7767086Y-13620412D01*
X7767086Y-13620412D02*
X7767086Y-13448984D01*
X8024229Y-13648984D02*
X8024229Y-13448984D01*
X8024229Y-13448984D02*
X8090896Y-13591841D01*
X8090896Y-13591841D02*
X8157562Y-13448984D01*
X8157562Y-13448984D02*
X8157562Y-13648984D01*
X8338515Y-13648984D02*
X8338515Y-13544222D01*
X8338515Y-13544222D02*
X8328991Y-13525174D01*
X8328991Y-13525174D02*
X8309943Y-13515650D01*
X8309943Y-13515650D02*
X8271848Y-13515650D01*
X8271848Y-13515650D02*
X8252801Y-13525174D01*
X8338515Y-13639460D02*
X8319467Y-13648984D01*
X8319467Y-13648984D02*
X8271848Y-13648984D01*
X8271848Y-13648984D02*
X8252801Y-13639460D01*
X8252801Y-13639460D02*
X8243277Y-13620412D01*
X8243277Y-13620412D02*
X8243277Y-13601365D01*
X8243277Y-13601365D02*
X8252801Y-13582317D01*
X8252801Y-13582317D02*
X8271848Y-13572793D01*
X8271848Y-13572793D02*
X8319467Y-13572793D01*
X8319467Y-13572793D02*
X8338515Y-13563269D01*
X8433753Y-13515650D02*
X8433753Y-13715650D01*
X8433753Y-13525174D02*
X8452801Y-13515650D01*
X8452801Y-13515650D02*
X8490896Y-13515650D01*
X8490896Y-13515650D02*
X8509944Y-13525174D01*
X8509944Y-13525174D02*
X8519467Y-13534698D01*
X8519467Y-13534698D02*
X8528991Y-13553746D01*
X8528991Y-13553746D02*
X8528991Y-13610888D01*
X8528991Y-13610888D02*
X8519467Y-13629936D01*
X8519467Y-13629936D02*
X8509944Y-13639460D01*
X8509944Y-13639460D02*
X8490896Y-13648984D01*
X8490896Y-13648984D02*
X8452801Y-13648984D01*
X8452801Y-13648984D02*
X8433753Y-13639460D01*
X8614705Y-13629936D02*
X8624229Y-13639460D01*
X8624229Y-13639460D02*
X8614705Y-13648984D01*
X8614705Y-13648984D02*
X8605182Y-13639460D01*
X8605182Y-13639460D02*
X8614705Y-13629936D01*
X8614705Y-13629936D02*
X8614705Y-13648984D01*
X8614705Y-13525174D02*
X8624229Y-13534698D01*
X8624229Y-13534698D02*
X8614705Y-13544222D01*
X8614705Y-13544222D02*
X8605182Y-13534698D01*
X8605182Y-13534698D02*
X8614705Y-13525174D01*
X8614705Y-13525174D02*
X8614705Y-13544222D01*
D12*
X6952500Y-13962500D02*
X6982500Y-13992500D01*
X6982500Y-13962500D02*
X6952500Y-13992500D01*
D11*
X7281372Y-13868984D02*
X7300420Y-13868984D01*
X7300420Y-13868984D02*
X7319467Y-13878508D01*
X7319467Y-13878508D02*
X7328991Y-13888031D01*
X7328991Y-13888031D02*
X7338515Y-13907079D01*
X7338515Y-13907079D02*
X7348039Y-13945174D01*
X7348039Y-13945174D02*
X7348039Y-13992793D01*
X7348039Y-13992793D02*
X7338515Y-14030888D01*
X7338515Y-14030888D02*
X7328991Y-14049936D01*
X7328991Y-14049936D02*
X7319467Y-14059460D01*
X7319467Y-14059460D02*
X7300420Y-14068984D01*
X7300420Y-14068984D02*
X7281372Y-14068984D01*
X7281372Y-14068984D02*
X7262324Y-14059460D01*
X7262324Y-14059460D02*
X7252801Y-14049936D01*
X7252801Y-14049936D02*
X7243277Y-14030888D01*
X7243277Y-14030888D02*
X7233753Y-13992793D01*
X7233753Y-13992793D02*
X7233753Y-13945174D01*
X7233753Y-13945174D02*
X7243277Y-13907079D01*
X7243277Y-13907079D02*
X7252801Y-13888031D01*
X7252801Y-13888031D02*
X7262324Y-13878508D01*
X7262324Y-13878508D02*
X7281372Y-13868984D01*
X7433753Y-14049936D02*
X7443277Y-14059460D01*
X7443277Y-14059460D02*
X7433753Y-14068984D01*
X7433753Y-14068984D02*
X7424229Y-14059460D01*
X7424229Y-14059460D02*
X7433753Y-14049936D01*
X7433753Y-14049936D02*
X7433753Y-14068984D01*
X7509943Y-13868984D02*
X7633753Y-13868984D01*
X7633753Y-13868984D02*
X7567086Y-13945174D01*
X7567086Y-13945174D02*
X7595658Y-13945174D01*
X7595658Y-13945174D02*
X7614705Y-13954698D01*
X7614705Y-13954698D02*
X7624229Y-13964222D01*
X7624229Y-13964222D02*
X7633753Y-13983269D01*
X7633753Y-13983269D02*
X7633753Y-14030888D01*
X7633753Y-14030888D02*
X7624229Y-14049936D01*
X7624229Y-14049936D02*
X7614705Y-14059460D01*
X7614705Y-14059460D02*
X7595658Y-14068984D01*
X7595658Y-14068984D02*
X7538515Y-14068984D01*
X7538515Y-14068984D02*
X7519467Y-14059460D01*
X7519467Y-14059460D02*
X7509943Y-14049936D01*
X7757562Y-13868984D02*
X7776610Y-13868984D01*
X7776610Y-13868984D02*
X7795658Y-13878508D01*
X7795658Y-13878508D02*
X7805182Y-13888031D01*
X7805182Y-13888031D02*
X7814705Y-13907079D01*
X7814705Y-13907079D02*
X7824229Y-13945174D01*
X7824229Y-13945174D02*
X7824229Y-13992793D01*
X7824229Y-13992793D02*
X7814705Y-14030888D01*
X7814705Y-14030888D02*
X7805182Y-14049936D01*
X7805182Y-14049936D02*
X7795658Y-14059460D01*
X7795658Y-14059460D02*
X7776610Y-14068984D01*
X7776610Y-14068984D02*
X7757562Y-14068984D01*
X7757562Y-14068984D02*
X7738515Y-14059460D01*
X7738515Y-14059460D02*
X7728991Y-14049936D01*
X7728991Y-14049936D02*
X7719467Y-14030888D01*
X7719467Y-14030888D02*
X7709943Y-13992793D01*
X7709943Y-13992793D02*
X7709943Y-13945174D01*
X7709943Y-13945174D02*
X7719467Y-13907079D01*
X7719467Y-13907079D02*
X7728991Y-13888031D01*
X7728991Y-13888031D02*
X7738515Y-13878508D01*
X7738515Y-13878508D02*
X7757562Y-13868984D01*
X7948039Y-13868984D02*
X7967086Y-13868984D01*
X7967086Y-13868984D02*
X7986134Y-13878508D01*
X7986134Y-13878508D02*
X7995658Y-13888031D01*
X7995658Y-13888031D02*
X8005182Y-13907079D01*
X8005182Y-13907079D02*
X8014705Y-13945174D01*
X8014705Y-13945174D02*
X8014705Y-13992793D01*
X8014705Y-13992793D02*
X8005182Y-14030888D01*
X8005182Y-14030888D02*
X7995658Y-14049936D01*
X7995658Y-14049936D02*
X7986134Y-14059460D01*
X7986134Y-14059460D02*
X7967086Y-14068984D01*
X7967086Y-14068984D02*
X7948039Y-14068984D01*
X7948039Y-14068984D02*
X7928991Y-14059460D01*
X7928991Y-14059460D02*
X7919467Y-14049936D01*
X7919467Y-14049936D02*
X7909943Y-14030888D01*
X7909943Y-14030888D02*
X7900420Y-13992793D01*
X7900420Y-13992793D02*
X7900420Y-13945174D01*
X7900420Y-13945174D02*
X7909943Y-13907079D01*
X7909943Y-13907079D02*
X7919467Y-13888031D01*
X7919467Y-13888031D02*
X7928991Y-13878508D01*
X7928991Y-13878508D02*
X7948039Y-13868984D01*
X8100420Y-14068984D02*
X8100420Y-13935650D01*
X8100420Y-13954698D02*
X8109943Y-13945174D01*
X8109943Y-13945174D02*
X8128991Y-13935650D01*
X8128991Y-13935650D02*
X8157563Y-13935650D01*
X8157563Y-13935650D02*
X8176610Y-13945174D01*
X8176610Y-13945174D02*
X8186134Y-13964222D01*
X8186134Y-13964222D02*
X8186134Y-14068984D01*
X8186134Y-13964222D02*
X8195658Y-13945174D01*
X8195658Y-13945174D02*
X8214705Y-13935650D01*
X8214705Y-13935650D02*
X8243277Y-13935650D01*
X8243277Y-13935650D02*
X8262324Y-13945174D01*
X8262324Y-13945174D02*
X8271848Y-13964222D01*
X8271848Y-13964222D02*
X8271848Y-14068984D01*
X8367086Y-14068984D02*
X8367086Y-13935650D01*
X8367086Y-13954698D02*
X8376610Y-13945174D01*
X8376610Y-13945174D02*
X8395658Y-13935650D01*
X8395658Y-13935650D02*
X8424229Y-13935650D01*
X8424229Y-13935650D02*
X8443277Y-13945174D01*
X8443277Y-13945174D02*
X8452801Y-13964222D01*
X8452801Y-13964222D02*
X8452801Y-14068984D01*
X8452801Y-13964222D02*
X8462325Y-13945174D01*
X8462325Y-13945174D02*
X8481372Y-13935650D01*
X8481372Y-13935650D02*
X8509944Y-13935650D01*
X8509944Y-13935650D02*
X8528991Y-13945174D01*
X8528991Y-13945174D02*
X8538515Y-13964222D01*
X8538515Y-13964222D02*
X8538515Y-14068984D01*
X8928991Y-13859460D02*
X8757563Y-14116603D01*
X9186134Y-13868984D02*
X9205182Y-13868984D01*
X9205182Y-13868984D02*
X9224229Y-13878508D01*
X9224229Y-13878508D02*
X9233753Y-13888031D01*
X9233753Y-13888031D02*
X9243277Y-13907079D01*
X9243277Y-13907079D02*
X9252801Y-13945174D01*
X9252801Y-13945174D02*
X9252801Y-13992793D01*
X9252801Y-13992793D02*
X9243277Y-14030888D01*
X9243277Y-14030888D02*
X9233753Y-14049936D01*
X9233753Y-14049936D02*
X9224229Y-14059460D01*
X9224229Y-14059460D02*
X9205182Y-14068984D01*
X9205182Y-14068984D02*
X9186134Y-14068984D01*
X9186134Y-14068984D02*
X9167087Y-14059460D01*
X9167087Y-14059460D02*
X9157563Y-14049936D01*
X9157563Y-14049936D02*
X9148039Y-14030888D01*
X9148039Y-14030888D02*
X9138515Y-13992793D01*
X9138515Y-13992793D02*
X9138515Y-13945174D01*
X9138515Y-13945174D02*
X9148039Y-13907079D01*
X9148039Y-13907079D02*
X9157563Y-13888031D01*
X9157563Y-13888031D02*
X9167087Y-13878508D01*
X9167087Y-13878508D02*
X9186134Y-13868984D01*
X9338515Y-14049936D02*
X9348039Y-14059460D01*
X9348039Y-14059460D02*
X9338515Y-14068984D01*
X9338515Y-14068984D02*
X9328991Y-14059460D01*
X9328991Y-14059460D02*
X9338515Y-14049936D01*
X9338515Y-14049936D02*
X9338515Y-14068984D01*
X9471848Y-13868984D02*
X9490896Y-13868984D01*
X9490896Y-13868984D02*
X9509944Y-13878508D01*
X9509944Y-13878508D02*
X9519468Y-13888031D01*
X9519468Y-13888031D02*
X9528991Y-13907079D01*
X9528991Y-13907079D02*
X9538515Y-13945174D01*
X9538515Y-13945174D02*
X9538515Y-13992793D01*
X9538515Y-13992793D02*
X9528991Y-14030888D01*
X9528991Y-14030888D02*
X9519468Y-14049936D01*
X9519468Y-14049936D02*
X9509944Y-14059460D01*
X9509944Y-14059460D02*
X9490896Y-14068984D01*
X9490896Y-14068984D02*
X9471848Y-14068984D01*
X9471848Y-14068984D02*
X9452801Y-14059460D01*
X9452801Y-14059460D02*
X9443277Y-14049936D01*
X9443277Y-14049936D02*
X9433753Y-14030888D01*
X9433753Y-14030888D02*
X9424229Y-13992793D01*
X9424229Y-13992793D02*
X9424229Y-13945174D01*
X9424229Y-13945174D02*
X9433753Y-13907079D01*
X9433753Y-13907079D02*
X9443277Y-13888031D01*
X9443277Y-13888031D02*
X9452801Y-13878508D01*
X9452801Y-13878508D02*
X9471848Y-13868984D01*
X9728991Y-14068984D02*
X9614706Y-14068984D01*
X9671848Y-14068984D02*
X9671848Y-13868984D01*
X9671848Y-13868984D02*
X9652801Y-13897555D01*
X9652801Y-13897555D02*
X9633753Y-13916603D01*
X9633753Y-13916603D02*
X9614706Y-13926127D01*
X9919468Y-14068984D02*
X9805182Y-14068984D01*
X9862325Y-14068984D02*
X9862325Y-13868984D01*
X9862325Y-13868984D02*
X9843277Y-13897555D01*
X9843277Y-13897555D02*
X9824229Y-13916603D01*
X9824229Y-13916603D02*
X9805182Y-13926127D01*
X10033753Y-13954698D02*
X10014706Y-13945174D01*
X10014706Y-13945174D02*
X10005182Y-13935650D01*
X10005182Y-13935650D02*
X9995658Y-13916603D01*
X9995658Y-13916603D02*
X9995658Y-13907079D01*
X9995658Y-13907079D02*
X10005182Y-13888031D01*
X10005182Y-13888031D02*
X10014706Y-13878508D01*
X10014706Y-13878508D02*
X10033753Y-13868984D01*
X10033753Y-13868984D02*
X10071849Y-13868984D01*
X10071849Y-13868984D02*
X10090896Y-13878508D01*
X10090896Y-13878508D02*
X10100420Y-13888031D01*
X10100420Y-13888031D02*
X10109944Y-13907079D01*
X10109944Y-13907079D02*
X10109944Y-13916603D01*
X10109944Y-13916603D02*
X10100420Y-13935650D01*
X10100420Y-13935650D02*
X10090896Y-13945174D01*
X10090896Y-13945174D02*
X10071849Y-13954698D01*
X10071849Y-13954698D02*
X10033753Y-13954698D01*
X10033753Y-13954698D02*
X10014706Y-13964222D01*
X10014706Y-13964222D02*
X10005182Y-13973746D01*
X10005182Y-13973746D02*
X9995658Y-13992793D01*
X9995658Y-13992793D02*
X9995658Y-14030888D01*
X9995658Y-14030888D02*
X10005182Y-14049936D01*
X10005182Y-14049936D02*
X10014706Y-14059460D01*
X10014706Y-14059460D02*
X10033753Y-14068984D01*
X10033753Y-14068984D02*
X10071849Y-14068984D01*
X10071849Y-14068984D02*
X10090896Y-14059460D01*
X10090896Y-14059460D02*
X10100420Y-14049936D01*
X10100420Y-14049936D02*
X10109944Y-14030888D01*
X10109944Y-14030888D02*
X10109944Y-13992793D01*
X10109944Y-13992793D02*
X10100420Y-13973746D01*
X10100420Y-13973746D02*
X10090896Y-13964222D01*
X10090896Y-13964222D02*
X10071849Y-13954698D01*
X10186134Y-13868984D02*
X10186134Y-13907079D01*
X10262325Y-13868984D02*
X10262325Y-13907079D01*
X10557563Y-14145174D02*
X10548039Y-14135650D01*
X10548039Y-14135650D02*
X10528991Y-14107079D01*
X10528991Y-14107079D02*
X10519468Y-14088031D01*
X10519468Y-14088031D02*
X10509944Y-14059460D01*
X10509944Y-14059460D02*
X10500420Y-14011841D01*
X10500420Y-14011841D02*
X10500420Y-13973746D01*
X10500420Y-13973746D02*
X10509944Y-13926127D01*
X10509944Y-13926127D02*
X10519468Y-13897555D01*
X10519468Y-13897555D02*
X10528991Y-13878508D01*
X10528991Y-13878508D02*
X10548039Y-13849936D01*
X10548039Y-13849936D02*
X10557563Y-13840412D01*
X10662325Y-13954698D02*
X10643277Y-13945174D01*
X10643277Y-13945174D02*
X10633753Y-13935650D01*
X10633753Y-13935650D02*
X10624230Y-13916603D01*
X10624230Y-13916603D02*
X10624230Y-13907079D01*
X10624230Y-13907079D02*
X10633753Y-13888031D01*
X10633753Y-13888031D02*
X10643277Y-13878508D01*
X10643277Y-13878508D02*
X10662325Y-13868984D01*
X10662325Y-13868984D02*
X10700420Y-13868984D01*
X10700420Y-13868984D02*
X10719468Y-13878508D01*
X10719468Y-13878508D02*
X10728991Y-13888031D01*
X10728991Y-13888031D02*
X10738515Y-13907079D01*
X10738515Y-13907079D02*
X10738515Y-13916603D01*
X10738515Y-13916603D02*
X10728991Y-13935650D01*
X10728991Y-13935650D02*
X10719468Y-13945174D01*
X10719468Y-13945174D02*
X10700420Y-13954698D01*
X10700420Y-13954698D02*
X10662325Y-13954698D01*
X10662325Y-13954698D02*
X10643277Y-13964222D01*
X10643277Y-13964222D02*
X10633753Y-13973746D01*
X10633753Y-13973746D02*
X10624230Y-13992793D01*
X10624230Y-13992793D02*
X10624230Y-14030888D01*
X10624230Y-14030888D02*
X10633753Y-14049936D01*
X10633753Y-14049936D02*
X10643277Y-14059460D01*
X10643277Y-14059460D02*
X10662325Y-14068984D01*
X10662325Y-14068984D02*
X10700420Y-14068984D01*
X10700420Y-14068984D02*
X10719468Y-14059460D01*
X10719468Y-14059460D02*
X10728991Y-14049936D01*
X10728991Y-14049936D02*
X10738515Y-14030888D01*
X10738515Y-14030888D02*
X10738515Y-13992793D01*
X10738515Y-13992793D02*
X10728991Y-13973746D01*
X10728991Y-13973746D02*
X10719468Y-13964222D01*
X10719468Y-13964222D02*
X10700420Y-13954698D01*
X10928991Y-14068984D02*
X10814706Y-14068984D01*
X10871849Y-14068984D02*
X10871849Y-13868984D01*
X10871849Y-13868984D02*
X10852801Y-13897555D01*
X10852801Y-13897555D02*
X10833753Y-13916603D01*
X10833753Y-13916603D02*
X10814706Y-13926127D01*
X11167087Y-14068984D02*
X11167087Y-13868984D01*
X11252801Y-14068984D02*
X11252801Y-13964222D01*
X11252801Y-13964222D02*
X11243277Y-13945174D01*
X11243277Y-13945174D02*
X11224230Y-13935650D01*
X11224230Y-13935650D02*
X11195658Y-13935650D01*
X11195658Y-13935650D02*
X11176611Y-13945174D01*
X11176611Y-13945174D02*
X11167087Y-13954698D01*
X11376610Y-14068984D02*
X11357563Y-14059460D01*
X11357563Y-14059460D02*
X11348039Y-14049936D01*
X11348039Y-14049936D02*
X11338515Y-14030888D01*
X11338515Y-14030888D02*
X11338515Y-13973746D01*
X11338515Y-13973746D02*
X11348039Y-13954698D01*
X11348039Y-13954698D02*
X11357563Y-13945174D01*
X11357563Y-13945174D02*
X11376610Y-13935650D01*
X11376610Y-13935650D02*
X11405182Y-13935650D01*
X11405182Y-13935650D02*
X11424230Y-13945174D01*
X11424230Y-13945174D02*
X11433753Y-13954698D01*
X11433753Y-13954698D02*
X11443277Y-13973746D01*
X11443277Y-13973746D02*
X11443277Y-14030888D01*
X11443277Y-14030888D02*
X11433753Y-14049936D01*
X11433753Y-14049936D02*
X11424230Y-14059460D01*
X11424230Y-14059460D02*
X11405182Y-14068984D01*
X11405182Y-14068984D02*
X11376610Y-14068984D01*
X11557563Y-14068984D02*
X11538515Y-14059460D01*
X11538515Y-14059460D02*
X11528991Y-14040412D01*
X11528991Y-14040412D02*
X11528991Y-13868984D01*
X11709944Y-14059460D02*
X11690896Y-14068984D01*
X11690896Y-14068984D02*
X11652801Y-14068984D01*
X11652801Y-14068984D02*
X11633753Y-14059460D01*
X11633753Y-14059460D02*
X11624230Y-14040412D01*
X11624230Y-14040412D02*
X11624230Y-13964222D01*
X11624230Y-13964222D02*
X11633753Y-13945174D01*
X11633753Y-13945174D02*
X11652801Y-13935650D01*
X11652801Y-13935650D02*
X11690896Y-13935650D01*
X11690896Y-13935650D02*
X11709944Y-13945174D01*
X11709944Y-13945174D02*
X11719468Y-13964222D01*
X11719468Y-13964222D02*
X11719468Y-13983269D01*
X11719468Y-13983269D02*
X11624230Y-14002317D01*
X11795658Y-14059460D02*
X11814706Y-14068984D01*
X11814706Y-14068984D02*
X11852801Y-14068984D01*
X11852801Y-14068984D02*
X11871849Y-14059460D01*
X11871849Y-14059460D02*
X11881372Y-14040412D01*
X11881372Y-14040412D02*
X11881372Y-14030888D01*
X11881372Y-14030888D02*
X11871849Y-14011841D01*
X11871849Y-14011841D02*
X11852801Y-14002317D01*
X11852801Y-14002317D02*
X11824230Y-14002317D01*
X11824230Y-14002317D02*
X11805182Y-13992793D01*
X11805182Y-13992793D02*
X11795658Y-13973746D01*
X11795658Y-13973746D02*
X11795658Y-13964222D01*
X11795658Y-13964222D02*
X11805182Y-13945174D01*
X11805182Y-13945174D02*
X11824230Y-13935650D01*
X11824230Y-13935650D02*
X11852801Y-13935650D01*
X11852801Y-13935650D02*
X11871849Y-13945174D01*
X11948039Y-14145174D02*
X11957563Y-14135650D01*
X11957563Y-14135650D02*
X11976611Y-14107079D01*
X11976611Y-14107079D02*
X11986134Y-14088031D01*
X11986134Y-14088031D02*
X11995658Y-14059460D01*
X11995658Y-14059460D02*
X12005182Y-14011841D01*
X12005182Y-14011841D02*
X12005182Y-13973746D01*
X12005182Y-13973746D02*
X11995658Y-13926127D01*
X11995658Y-13926127D02*
X11986134Y-13897555D01*
X11986134Y-13897555D02*
X11976611Y-13878508D01*
X11976611Y-13878508D02*
X11957563Y-13849936D01*
X11957563Y-13849936D02*
X11948039Y-13840412D01*
D12*
X6982500Y-14241500D02*
G75*
G02*
X6932500Y-14241500I-25000J0D01*
G01*
X6932500Y-14241500D02*
G75*
G02*
X6982500Y-14241500I25000J0D01*
G01*
D11*
X7281372Y-14132984D02*
X7300420Y-14132984D01*
X7300420Y-14132984D02*
X7319467Y-14142508D01*
X7319467Y-14142508D02*
X7328991Y-14152031D01*
X7328991Y-14152031D02*
X7338515Y-14171079D01*
X7338515Y-14171079D02*
X7348039Y-14209174D01*
X7348039Y-14209174D02*
X7348039Y-14256793D01*
X7348039Y-14256793D02*
X7338515Y-14294888D01*
X7338515Y-14294888D02*
X7328991Y-14313936D01*
X7328991Y-14313936D02*
X7319467Y-14323460D01*
X7319467Y-14323460D02*
X7300420Y-14332984D01*
X7300420Y-14332984D02*
X7281372Y-14332984D01*
X7281372Y-14332984D02*
X7262324Y-14323460D01*
X7262324Y-14323460D02*
X7252801Y-14313936D01*
X7252801Y-14313936D02*
X7243277Y-14294888D01*
X7243277Y-14294888D02*
X7233753Y-14256793D01*
X7233753Y-14256793D02*
X7233753Y-14209174D01*
X7233753Y-14209174D02*
X7243277Y-14171079D01*
X7243277Y-14171079D02*
X7252801Y-14152031D01*
X7252801Y-14152031D02*
X7262324Y-14142508D01*
X7262324Y-14142508D02*
X7281372Y-14132984D01*
X7433753Y-14313936D02*
X7443277Y-14323460D01*
X7443277Y-14323460D02*
X7433753Y-14332984D01*
X7433753Y-14332984D02*
X7424229Y-14323460D01*
X7424229Y-14323460D02*
X7433753Y-14313936D01*
X7433753Y-14313936D02*
X7433753Y-14332984D01*
X7624229Y-14132984D02*
X7528991Y-14132984D01*
X7528991Y-14132984D02*
X7519467Y-14228222D01*
X7519467Y-14228222D02*
X7528991Y-14218698D01*
X7528991Y-14218698D02*
X7548039Y-14209174D01*
X7548039Y-14209174D02*
X7595658Y-14209174D01*
X7595658Y-14209174D02*
X7614705Y-14218698D01*
X7614705Y-14218698D02*
X7624229Y-14228222D01*
X7624229Y-14228222D02*
X7633753Y-14247269D01*
X7633753Y-14247269D02*
X7633753Y-14294888D01*
X7633753Y-14294888D02*
X7624229Y-14313936D01*
X7624229Y-14313936D02*
X7614705Y-14323460D01*
X7614705Y-14323460D02*
X7595658Y-14332984D01*
X7595658Y-14332984D02*
X7548039Y-14332984D01*
X7548039Y-14332984D02*
X7528991Y-14323460D01*
X7528991Y-14323460D02*
X7519467Y-14313936D01*
X7757562Y-14132984D02*
X7776610Y-14132984D01*
X7776610Y-14132984D02*
X7795658Y-14142508D01*
X7795658Y-14142508D02*
X7805182Y-14152031D01*
X7805182Y-14152031D02*
X7814705Y-14171079D01*
X7814705Y-14171079D02*
X7824229Y-14209174D01*
X7824229Y-14209174D02*
X7824229Y-14256793D01*
X7824229Y-14256793D02*
X7814705Y-14294888D01*
X7814705Y-14294888D02*
X7805182Y-14313936D01*
X7805182Y-14313936D02*
X7795658Y-14323460D01*
X7795658Y-14323460D02*
X7776610Y-14332984D01*
X7776610Y-14332984D02*
X7757562Y-14332984D01*
X7757562Y-14332984D02*
X7738515Y-14323460D01*
X7738515Y-14323460D02*
X7728991Y-14313936D01*
X7728991Y-14313936D02*
X7719467Y-14294888D01*
X7719467Y-14294888D02*
X7709943Y-14256793D01*
X7709943Y-14256793D02*
X7709943Y-14209174D01*
X7709943Y-14209174D02*
X7719467Y-14171079D01*
X7719467Y-14171079D02*
X7728991Y-14152031D01*
X7728991Y-14152031D02*
X7738515Y-14142508D01*
X7738515Y-14142508D02*
X7757562Y-14132984D01*
X7948039Y-14132984D02*
X7967086Y-14132984D01*
X7967086Y-14132984D02*
X7986134Y-14142508D01*
X7986134Y-14142508D02*
X7995658Y-14152031D01*
X7995658Y-14152031D02*
X8005182Y-14171079D01*
X8005182Y-14171079D02*
X8014705Y-14209174D01*
X8014705Y-14209174D02*
X8014705Y-14256793D01*
X8014705Y-14256793D02*
X8005182Y-14294888D01*
X8005182Y-14294888D02*
X7995658Y-14313936D01*
X7995658Y-14313936D02*
X7986134Y-14323460D01*
X7986134Y-14323460D02*
X7967086Y-14332984D01*
X7967086Y-14332984D02*
X7948039Y-14332984D01*
X7948039Y-14332984D02*
X7928991Y-14323460D01*
X7928991Y-14323460D02*
X7919467Y-14313936D01*
X7919467Y-14313936D02*
X7909943Y-14294888D01*
X7909943Y-14294888D02*
X7900420Y-14256793D01*
X7900420Y-14256793D02*
X7900420Y-14209174D01*
X7900420Y-14209174D02*
X7909943Y-14171079D01*
X7909943Y-14171079D02*
X7919467Y-14152031D01*
X7919467Y-14152031D02*
X7928991Y-14142508D01*
X7928991Y-14142508D02*
X7948039Y-14132984D01*
X8100420Y-14332984D02*
X8100420Y-14199650D01*
X8100420Y-14218698D02*
X8109943Y-14209174D01*
X8109943Y-14209174D02*
X8128991Y-14199650D01*
X8128991Y-14199650D02*
X8157563Y-14199650D01*
X8157563Y-14199650D02*
X8176610Y-14209174D01*
X8176610Y-14209174D02*
X8186134Y-14228222D01*
X8186134Y-14228222D02*
X8186134Y-14332984D01*
X8186134Y-14228222D02*
X8195658Y-14209174D01*
X8195658Y-14209174D02*
X8214705Y-14199650D01*
X8214705Y-14199650D02*
X8243277Y-14199650D01*
X8243277Y-14199650D02*
X8262324Y-14209174D01*
X8262324Y-14209174D02*
X8271848Y-14228222D01*
X8271848Y-14228222D02*
X8271848Y-14332984D01*
X8367086Y-14332984D02*
X8367086Y-14199650D01*
X8367086Y-14218698D02*
X8376610Y-14209174D01*
X8376610Y-14209174D02*
X8395658Y-14199650D01*
X8395658Y-14199650D02*
X8424229Y-14199650D01*
X8424229Y-14199650D02*
X8443277Y-14209174D01*
X8443277Y-14209174D02*
X8452801Y-14228222D01*
X8452801Y-14228222D02*
X8452801Y-14332984D01*
X8452801Y-14228222D02*
X8462325Y-14209174D01*
X8462325Y-14209174D02*
X8481372Y-14199650D01*
X8481372Y-14199650D02*
X8509944Y-14199650D01*
X8509944Y-14199650D02*
X8528991Y-14209174D01*
X8528991Y-14209174D02*
X8538515Y-14228222D01*
X8538515Y-14228222D02*
X8538515Y-14332984D01*
X8928991Y-14123460D02*
X8757563Y-14380603D01*
X9186134Y-14132984D02*
X9205182Y-14132984D01*
X9205182Y-14132984D02*
X9224229Y-14142508D01*
X9224229Y-14142508D02*
X9233753Y-14152031D01*
X9233753Y-14152031D02*
X9243277Y-14171079D01*
X9243277Y-14171079D02*
X9252801Y-14209174D01*
X9252801Y-14209174D02*
X9252801Y-14256793D01*
X9252801Y-14256793D02*
X9243277Y-14294888D01*
X9243277Y-14294888D02*
X9233753Y-14313936D01*
X9233753Y-14313936D02*
X9224229Y-14323460D01*
X9224229Y-14323460D02*
X9205182Y-14332984D01*
X9205182Y-14332984D02*
X9186134Y-14332984D01*
X9186134Y-14332984D02*
X9167087Y-14323460D01*
X9167087Y-14323460D02*
X9157563Y-14313936D01*
X9157563Y-14313936D02*
X9148039Y-14294888D01*
X9148039Y-14294888D02*
X9138515Y-14256793D01*
X9138515Y-14256793D02*
X9138515Y-14209174D01*
X9138515Y-14209174D02*
X9148039Y-14171079D01*
X9148039Y-14171079D02*
X9157563Y-14152031D01*
X9157563Y-14152031D02*
X9167087Y-14142508D01*
X9167087Y-14142508D02*
X9186134Y-14132984D01*
X9338515Y-14313936D02*
X9348039Y-14323460D01*
X9348039Y-14323460D02*
X9338515Y-14332984D01*
X9338515Y-14332984D02*
X9328991Y-14323460D01*
X9328991Y-14323460D02*
X9338515Y-14313936D01*
X9338515Y-14313936D02*
X9338515Y-14332984D01*
X9471848Y-14132984D02*
X9490896Y-14132984D01*
X9490896Y-14132984D02*
X9509944Y-14142508D01*
X9509944Y-14142508D02*
X9519468Y-14152031D01*
X9519468Y-14152031D02*
X9528991Y-14171079D01*
X9528991Y-14171079D02*
X9538515Y-14209174D01*
X9538515Y-14209174D02*
X9538515Y-14256793D01*
X9538515Y-14256793D02*
X9528991Y-14294888D01*
X9528991Y-14294888D02*
X9519468Y-14313936D01*
X9519468Y-14313936D02*
X9509944Y-14323460D01*
X9509944Y-14323460D02*
X9490896Y-14332984D01*
X9490896Y-14332984D02*
X9471848Y-14332984D01*
X9471848Y-14332984D02*
X9452801Y-14323460D01*
X9452801Y-14323460D02*
X9443277Y-14313936D01*
X9443277Y-14313936D02*
X9433753Y-14294888D01*
X9433753Y-14294888D02*
X9424229Y-14256793D01*
X9424229Y-14256793D02*
X9424229Y-14209174D01*
X9424229Y-14209174D02*
X9433753Y-14171079D01*
X9433753Y-14171079D02*
X9443277Y-14152031D01*
X9443277Y-14152031D02*
X9452801Y-14142508D01*
X9452801Y-14142508D02*
X9471848Y-14132984D01*
X9728991Y-14332984D02*
X9614706Y-14332984D01*
X9671848Y-14332984D02*
X9671848Y-14132984D01*
X9671848Y-14132984D02*
X9652801Y-14161555D01*
X9652801Y-14161555D02*
X9633753Y-14180603D01*
X9633753Y-14180603D02*
X9614706Y-14190127D01*
X9824229Y-14332984D02*
X9862325Y-14332984D01*
X9862325Y-14332984D02*
X9881372Y-14323460D01*
X9881372Y-14323460D02*
X9890896Y-14313936D01*
X9890896Y-14313936D02*
X9909944Y-14285365D01*
X9909944Y-14285365D02*
X9919468Y-14247269D01*
X9919468Y-14247269D02*
X9919468Y-14171079D01*
X9919468Y-14171079D02*
X9909944Y-14152031D01*
X9909944Y-14152031D02*
X9900420Y-14142508D01*
X9900420Y-14142508D02*
X9881372Y-14132984D01*
X9881372Y-14132984D02*
X9843277Y-14132984D01*
X9843277Y-14132984D02*
X9824229Y-14142508D01*
X9824229Y-14142508D02*
X9814706Y-14152031D01*
X9814706Y-14152031D02*
X9805182Y-14171079D01*
X9805182Y-14171079D02*
X9805182Y-14218698D01*
X9805182Y-14218698D02*
X9814706Y-14237746D01*
X9814706Y-14237746D02*
X9824229Y-14247269D01*
X9824229Y-14247269D02*
X9843277Y-14256793D01*
X9843277Y-14256793D02*
X9881372Y-14256793D01*
X9881372Y-14256793D02*
X9900420Y-14247269D01*
X9900420Y-14247269D02*
X9909944Y-14237746D01*
X9909944Y-14237746D02*
X9919468Y-14218698D01*
X9986134Y-14132984D02*
X10119468Y-14132984D01*
X10119468Y-14132984D02*
X10033753Y-14332984D01*
X10186134Y-14132984D02*
X10186134Y-14171079D01*
X10262325Y-14132984D02*
X10262325Y-14171079D01*
X10557563Y-14409174D02*
X10548039Y-14399650D01*
X10548039Y-14399650D02*
X10528991Y-14371079D01*
X10528991Y-14371079D02*
X10519468Y-14352031D01*
X10519468Y-14352031D02*
X10509944Y-14323460D01*
X10509944Y-14323460D02*
X10500420Y-14275841D01*
X10500420Y-14275841D02*
X10500420Y-14237746D01*
X10500420Y-14237746D02*
X10509944Y-14190127D01*
X10509944Y-14190127D02*
X10519468Y-14161555D01*
X10519468Y-14161555D02*
X10528991Y-14142508D01*
X10528991Y-14142508D02*
X10548039Y-14113936D01*
X10548039Y-14113936D02*
X10557563Y-14104412D01*
X10624230Y-14152031D02*
X10633753Y-14142508D01*
X10633753Y-14142508D02*
X10652801Y-14132984D01*
X10652801Y-14132984D02*
X10700420Y-14132984D01*
X10700420Y-14132984D02*
X10719468Y-14142508D01*
X10719468Y-14142508D02*
X10728991Y-14152031D01*
X10728991Y-14152031D02*
X10738515Y-14171079D01*
X10738515Y-14171079D02*
X10738515Y-14190127D01*
X10738515Y-14190127D02*
X10728991Y-14218698D01*
X10728991Y-14218698D02*
X10614706Y-14332984D01*
X10614706Y-14332984D02*
X10738515Y-14332984D01*
X10814706Y-14152031D02*
X10824230Y-14142508D01*
X10824230Y-14142508D02*
X10843277Y-14132984D01*
X10843277Y-14132984D02*
X10890896Y-14132984D01*
X10890896Y-14132984D02*
X10909944Y-14142508D01*
X10909944Y-14142508D02*
X10919468Y-14152031D01*
X10919468Y-14152031D02*
X10928991Y-14171079D01*
X10928991Y-14171079D02*
X10928991Y-14190127D01*
X10928991Y-14190127D02*
X10919468Y-14218698D01*
X10919468Y-14218698D02*
X10805182Y-14332984D01*
X10805182Y-14332984D02*
X10928991Y-14332984D01*
X11167087Y-14332984D02*
X11167087Y-14132984D01*
X11252801Y-14332984D02*
X11252801Y-14228222D01*
X11252801Y-14228222D02*
X11243277Y-14209174D01*
X11243277Y-14209174D02*
X11224230Y-14199650D01*
X11224230Y-14199650D02*
X11195658Y-14199650D01*
X11195658Y-14199650D02*
X11176611Y-14209174D01*
X11176611Y-14209174D02*
X11167087Y-14218698D01*
X11376610Y-14332984D02*
X11357563Y-14323460D01*
X11357563Y-14323460D02*
X11348039Y-14313936D01*
X11348039Y-14313936D02*
X11338515Y-14294888D01*
X11338515Y-14294888D02*
X11338515Y-14237746D01*
X11338515Y-14237746D02*
X11348039Y-14218698D01*
X11348039Y-14218698D02*
X11357563Y-14209174D01*
X11357563Y-14209174D02*
X11376610Y-14199650D01*
X11376610Y-14199650D02*
X11405182Y-14199650D01*
X11405182Y-14199650D02*
X11424230Y-14209174D01*
X11424230Y-14209174D02*
X11433753Y-14218698D01*
X11433753Y-14218698D02*
X11443277Y-14237746D01*
X11443277Y-14237746D02*
X11443277Y-14294888D01*
X11443277Y-14294888D02*
X11433753Y-14313936D01*
X11433753Y-14313936D02*
X11424230Y-14323460D01*
X11424230Y-14323460D02*
X11405182Y-14332984D01*
X11405182Y-14332984D02*
X11376610Y-14332984D01*
X11557563Y-14332984D02*
X11538515Y-14323460D01*
X11538515Y-14323460D02*
X11528991Y-14304412D01*
X11528991Y-14304412D02*
X11528991Y-14132984D01*
X11709944Y-14323460D02*
X11690896Y-14332984D01*
X11690896Y-14332984D02*
X11652801Y-14332984D01*
X11652801Y-14332984D02*
X11633753Y-14323460D01*
X11633753Y-14323460D02*
X11624230Y-14304412D01*
X11624230Y-14304412D02*
X11624230Y-14228222D01*
X11624230Y-14228222D02*
X11633753Y-14209174D01*
X11633753Y-14209174D02*
X11652801Y-14199650D01*
X11652801Y-14199650D02*
X11690896Y-14199650D01*
X11690896Y-14199650D02*
X11709944Y-14209174D01*
X11709944Y-14209174D02*
X11719468Y-14228222D01*
X11719468Y-14228222D02*
X11719468Y-14247269D01*
X11719468Y-14247269D02*
X11624230Y-14266317D01*
X11795658Y-14323460D02*
X11814706Y-14332984D01*
X11814706Y-14332984D02*
X11852801Y-14332984D01*
X11852801Y-14332984D02*
X11871849Y-14323460D01*
X11871849Y-14323460D02*
X11881372Y-14304412D01*
X11881372Y-14304412D02*
X11881372Y-14294888D01*
X11881372Y-14294888D02*
X11871849Y-14275841D01*
X11871849Y-14275841D02*
X11852801Y-14266317D01*
X11852801Y-14266317D02*
X11824230Y-14266317D01*
X11824230Y-14266317D02*
X11805182Y-14256793D01*
X11805182Y-14256793D02*
X11795658Y-14237746D01*
X11795658Y-14237746D02*
X11795658Y-14228222D01*
X11795658Y-14228222D02*
X11805182Y-14209174D01*
X11805182Y-14209174D02*
X11824230Y-14199650D01*
X11824230Y-14199650D02*
X11852801Y-14199650D01*
X11852801Y-14199650D02*
X11871849Y-14209174D01*
X11948039Y-14409174D02*
X11957563Y-14399650D01*
X11957563Y-14399650D02*
X11976611Y-14371079D01*
X11976611Y-14371079D02*
X11986134Y-14352031D01*
X11986134Y-14352031D02*
X11995658Y-14323460D01*
X11995658Y-14323460D02*
X12005182Y-14275841D01*
X12005182Y-14275841D02*
X12005182Y-14237746D01*
X12005182Y-14237746D02*
X11995658Y-14190127D01*
X11995658Y-14190127D02*
X11986134Y-14161555D01*
X11986134Y-14161555D02*
X11976611Y-14142508D01*
X11976611Y-14142508D02*
X11957563Y-14113936D01*
X11957563Y-14113936D02*
X11948039Y-14104412D01*
D12*
X6947500Y-14470500D02*
X6947500Y-14540500D01*
X6912500Y-14505500D02*
X6982500Y-14505500D01*
D11*
X7281372Y-14396984D02*
X7300420Y-14396984D01*
X7300420Y-14396984D02*
X7319467Y-14406508D01*
X7319467Y-14406508D02*
X7328991Y-14416031D01*
X7328991Y-14416031D02*
X7338515Y-14435079D01*
X7338515Y-14435079D02*
X7348039Y-14473174D01*
X7348039Y-14473174D02*
X7348039Y-14520793D01*
X7348039Y-14520793D02*
X7338515Y-14558888D01*
X7338515Y-14558888D02*
X7328991Y-14577936D01*
X7328991Y-14577936D02*
X7319467Y-14587460D01*
X7319467Y-14587460D02*
X7300420Y-14596984D01*
X7300420Y-14596984D02*
X7281372Y-14596984D01*
X7281372Y-14596984D02*
X7262324Y-14587460D01*
X7262324Y-14587460D02*
X7252801Y-14577936D01*
X7252801Y-14577936D02*
X7243277Y-14558888D01*
X7243277Y-14558888D02*
X7233753Y-14520793D01*
X7233753Y-14520793D02*
X7233753Y-14473174D01*
X7233753Y-14473174D02*
X7243277Y-14435079D01*
X7243277Y-14435079D02*
X7252801Y-14416031D01*
X7252801Y-14416031D02*
X7262324Y-14406508D01*
X7262324Y-14406508D02*
X7281372Y-14396984D01*
X7433753Y-14577936D02*
X7443277Y-14587460D01*
X7443277Y-14587460D02*
X7433753Y-14596984D01*
X7433753Y-14596984D02*
X7424229Y-14587460D01*
X7424229Y-14587460D02*
X7433753Y-14577936D01*
X7433753Y-14577936D02*
X7433753Y-14596984D01*
X7509943Y-14396984D02*
X7643277Y-14396984D01*
X7643277Y-14396984D02*
X7557562Y-14596984D01*
X7757562Y-14396984D02*
X7776610Y-14396984D01*
X7776610Y-14396984D02*
X7795658Y-14406508D01*
X7795658Y-14406508D02*
X7805182Y-14416031D01*
X7805182Y-14416031D02*
X7814705Y-14435079D01*
X7814705Y-14435079D02*
X7824229Y-14473174D01*
X7824229Y-14473174D02*
X7824229Y-14520793D01*
X7824229Y-14520793D02*
X7814705Y-14558888D01*
X7814705Y-14558888D02*
X7805182Y-14577936D01*
X7805182Y-14577936D02*
X7795658Y-14587460D01*
X7795658Y-14587460D02*
X7776610Y-14596984D01*
X7776610Y-14596984D02*
X7757562Y-14596984D01*
X7757562Y-14596984D02*
X7738515Y-14587460D01*
X7738515Y-14587460D02*
X7728991Y-14577936D01*
X7728991Y-14577936D02*
X7719467Y-14558888D01*
X7719467Y-14558888D02*
X7709943Y-14520793D01*
X7709943Y-14520793D02*
X7709943Y-14473174D01*
X7709943Y-14473174D02*
X7719467Y-14435079D01*
X7719467Y-14435079D02*
X7728991Y-14416031D01*
X7728991Y-14416031D02*
X7738515Y-14406508D01*
X7738515Y-14406508D02*
X7757562Y-14396984D01*
X7948039Y-14396984D02*
X7967086Y-14396984D01*
X7967086Y-14396984D02*
X7986134Y-14406508D01*
X7986134Y-14406508D02*
X7995658Y-14416031D01*
X7995658Y-14416031D02*
X8005182Y-14435079D01*
X8005182Y-14435079D02*
X8014705Y-14473174D01*
X8014705Y-14473174D02*
X8014705Y-14520793D01*
X8014705Y-14520793D02*
X8005182Y-14558888D01*
X8005182Y-14558888D02*
X7995658Y-14577936D01*
X7995658Y-14577936D02*
X7986134Y-14587460D01*
X7986134Y-14587460D02*
X7967086Y-14596984D01*
X7967086Y-14596984D02*
X7948039Y-14596984D01*
X7948039Y-14596984D02*
X7928991Y-14587460D01*
X7928991Y-14587460D02*
X7919467Y-14577936D01*
X7919467Y-14577936D02*
X7909943Y-14558888D01*
X7909943Y-14558888D02*
X7900420Y-14520793D01*
X7900420Y-14520793D02*
X7900420Y-14473174D01*
X7900420Y-14473174D02*
X7909943Y-14435079D01*
X7909943Y-14435079D02*
X7919467Y-14416031D01*
X7919467Y-14416031D02*
X7928991Y-14406508D01*
X7928991Y-14406508D02*
X7948039Y-14396984D01*
X8100420Y-14596984D02*
X8100420Y-14463650D01*
X8100420Y-14482698D02*
X8109943Y-14473174D01*
X8109943Y-14473174D02*
X8128991Y-14463650D01*
X8128991Y-14463650D02*
X8157563Y-14463650D01*
X8157563Y-14463650D02*
X8176610Y-14473174D01*
X8176610Y-14473174D02*
X8186134Y-14492222D01*
X8186134Y-14492222D02*
X8186134Y-14596984D01*
X8186134Y-14492222D02*
X8195658Y-14473174D01*
X8195658Y-14473174D02*
X8214705Y-14463650D01*
X8214705Y-14463650D02*
X8243277Y-14463650D01*
X8243277Y-14463650D02*
X8262324Y-14473174D01*
X8262324Y-14473174D02*
X8271848Y-14492222D01*
X8271848Y-14492222D02*
X8271848Y-14596984D01*
X8367086Y-14596984D02*
X8367086Y-14463650D01*
X8367086Y-14482698D02*
X8376610Y-14473174D01*
X8376610Y-14473174D02*
X8395658Y-14463650D01*
X8395658Y-14463650D02*
X8424229Y-14463650D01*
X8424229Y-14463650D02*
X8443277Y-14473174D01*
X8443277Y-14473174D02*
X8452801Y-14492222D01*
X8452801Y-14492222D02*
X8452801Y-14596984D01*
X8452801Y-14492222D02*
X8462325Y-14473174D01*
X8462325Y-14473174D02*
X8481372Y-14463650D01*
X8481372Y-14463650D02*
X8509944Y-14463650D01*
X8509944Y-14463650D02*
X8528991Y-14473174D01*
X8528991Y-14473174D02*
X8538515Y-14492222D01*
X8538515Y-14492222D02*
X8538515Y-14596984D01*
X8928991Y-14387460D02*
X8757563Y-14644603D01*
X9186134Y-14396984D02*
X9205182Y-14396984D01*
X9205182Y-14396984D02*
X9224229Y-14406508D01*
X9224229Y-14406508D02*
X9233753Y-14416031D01*
X9233753Y-14416031D02*
X9243277Y-14435079D01*
X9243277Y-14435079D02*
X9252801Y-14473174D01*
X9252801Y-14473174D02*
X9252801Y-14520793D01*
X9252801Y-14520793D02*
X9243277Y-14558888D01*
X9243277Y-14558888D02*
X9233753Y-14577936D01*
X9233753Y-14577936D02*
X9224229Y-14587460D01*
X9224229Y-14587460D02*
X9205182Y-14596984D01*
X9205182Y-14596984D02*
X9186134Y-14596984D01*
X9186134Y-14596984D02*
X9167087Y-14587460D01*
X9167087Y-14587460D02*
X9157563Y-14577936D01*
X9157563Y-14577936D02*
X9148039Y-14558888D01*
X9148039Y-14558888D02*
X9138515Y-14520793D01*
X9138515Y-14520793D02*
X9138515Y-14473174D01*
X9138515Y-14473174D02*
X9148039Y-14435079D01*
X9148039Y-14435079D02*
X9157563Y-14416031D01*
X9157563Y-14416031D02*
X9167087Y-14406508D01*
X9167087Y-14406508D02*
X9186134Y-14396984D01*
X9338515Y-14577936D02*
X9348039Y-14587460D01*
X9348039Y-14587460D02*
X9338515Y-14596984D01*
X9338515Y-14596984D02*
X9328991Y-14587460D01*
X9328991Y-14587460D02*
X9338515Y-14577936D01*
X9338515Y-14577936D02*
X9338515Y-14596984D01*
X9471848Y-14396984D02*
X9490896Y-14396984D01*
X9490896Y-14396984D02*
X9509944Y-14406508D01*
X9509944Y-14406508D02*
X9519468Y-14416031D01*
X9519468Y-14416031D02*
X9528991Y-14435079D01*
X9528991Y-14435079D02*
X9538515Y-14473174D01*
X9538515Y-14473174D02*
X9538515Y-14520793D01*
X9538515Y-14520793D02*
X9528991Y-14558888D01*
X9528991Y-14558888D02*
X9519468Y-14577936D01*
X9519468Y-14577936D02*
X9509944Y-14587460D01*
X9509944Y-14587460D02*
X9490896Y-14596984D01*
X9490896Y-14596984D02*
X9471848Y-14596984D01*
X9471848Y-14596984D02*
X9452801Y-14587460D01*
X9452801Y-14587460D02*
X9443277Y-14577936D01*
X9443277Y-14577936D02*
X9433753Y-14558888D01*
X9433753Y-14558888D02*
X9424229Y-14520793D01*
X9424229Y-14520793D02*
X9424229Y-14473174D01*
X9424229Y-14473174D02*
X9433753Y-14435079D01*
X9433753Y-14435079D02*
X9443277Y-14416031D01*
X9443277Y-14416031D02*
X9452801Y-14406508D01*
X9452801Y-14406508D02*
X9471848Y-14396984D01*
X9614706Y-14416031D02*
X9624229Y-14406508D01*
X9624229Y-14406508D02*
X9643277Y-14396984D01*
X9643277Y-14396984D02*
X9690896Y-14396984D01*
X9690896Y-14396984D02*
X9709944Y-14406508D01*
X9709944Y-14406508D02*
X9719468Y-14416031D01*
X9719468Y-14416031D02*
X9728991Y-14435079D01*
X9728991Y-14435079D02*
X9728991Y-14454127D01*
X9728991Y-14454127D02*
X9719468Y-14482698D01*
X9719468Y-14482698D02*
X9605182Y-14596984D01*
X9605182Y-14596984D02*
X9728991Y-14596984D01*
X9795658Y-14396984D02*
X9928991Y-14396984D01*
X9928991Y-14396984D02*
X9843277Y-14596984D01*
X10090896Y-14396984D02*
X10052801Y-14396984D01*
X10052801Y-14396984D02*
X10033753Y-14406508D01*
X10033753Y-14406508D02*
X10024229Y-14416031D01*
X10024229Y-14416031D02*
X10005182Y-14444603D01*
X10005182Y-14444603D02*
X9995658Y-14482698D01*
X9995658Y-14482698D02*
X9995658Y-14558888D01*
X9995658Y-14558888D02*
X10005182Y-14577936D01*
X10005182Y-14577936D02*
X10014706Y-14587460D01*
X10014706Y-14587460D02*
X10033753Y-14596984D01*
X10033753Y-14596984D02*
X10071849Y-14596984D01*
X10071849Y-14596984D02*
X10090896Y-14587460D01*
X10090896Y-14587460D02*
X10100420Y-14577936D01*
X10100420Y-14577936D02*
X10109944Y-14558888D01*
X10109944Y-14558888D02*
X10109944Y-14511269D01*
X10109944Y-14511269D02*
X10100420Y-14492222D01*
X10100420Y-14492222D02*
X10090896Y-14482698D01*
X10090896Y-14482698D02*
X10071849Y-14473174D01*
X10071849Y-14473174D02*
X10033753Y-14473174D01*
X10033753Y-14473174D02*
X10014706Y-14482698D01*
X10014706Y-14482698D02*
X10005182Y-14492222D01*
X10005182Y-14492222D02*
X9995658Y-14511269D01*
X10186134Y-14396984D02*
X10186134Y-14435079D01*
X10262325Y-14396984D02*
X10262325Y-14435079D01*
X10557563Y-14673174D02*
X10548039Y-14663650D01*
X10548039Y-14663650D02*
X10528991Y-14635079D01*
X10528991Y-14635079D02*
X10519468Y-14616031D01*
X10519468Y-14616031D02*
X10509944Y-14587460D01*
X10509944Y-14587460D02*
X10500420Y-14539841D01*
X10500420Y-14539841D02*
X10500420Y-14501746D01*
X10500420Y-14501746D02*
X10509944Y-14454127D01*
X10509944Y-14454127D02*
X10519468Y-14425555D01*
X10519468Y-14425555D02*
X10528991Y-14406508D01*
X10528991Y-14406508D02*
X10548039Y-14377936D01*
X10548039Y-14377936D02*
X10557563Y-14368412D01*
X10624230Y-14416031D02*
X10633753Y-14406508D01*
X10633753Y-14406508D02*
X10652801Y-14396984D01*
X10652801Y-14396984D02*
X10700420Y-14396984D01*
X10700420Y-14396984D02*
X10719468Y-14406508D01*
X10719468Y-14406508D02*
X10728991Y-14416031D01*
X10728991Y-14416031D02*
X10738515Y-14435079D01*
X10738515Y-14435079D02*
X10738515Y-14454127D01*
X10738515Y-14454127D02*
X10728991Y-14482698D01*
X10728991Y-14482698D02*
X10614706Y-14596984D01*
X10614706Y-14596984D02*
X10738515Y-14596984D01*
X10976611Y-14596984D02*
X10976611Y-14396984D01*
X11062325Y-14596984D02*
X11062325Y-14492222D01*
X11062325Y-14492222D02*
X11052801Y-14473174D01*
X11052801Y-14473174D02*
X11033753Y-14463650D01*
X11033753Y-14463650D02*
X11005182Y-14463650D01*
X11005182Y-14463650D02*
X10986134Y-14473174D01*
X10986134Y-14473174D02*
X10976611Y-14482698D01*
X11186134Y-14596984D02*
X11167087Y-14587460D01*
X11167087Y-14587460D02*
X11157563Y-14577936D01*
X11157563Y-14577936D02*
X11148039Y-14558888D01*
X11148039Y-14558888D02*
X11148039Y-14501746D01*
X11148039Y-14501746D02*
X11157563Y-14482698D01*
X11157563Y-14482698D02*
X11167087Y-14473174D01*
X11167087Y-14473174D02*
X11186134Y-14463650D01*
X11186134Y-14463650D02*
X11214706Y-14463650D01*
X11214706Y-14463650D02*
X11233753Y-14473174D01*
X11233753Y-14473174D02*
X11243277Y-14482698D01*
X11243277Y-14482698D02*
X11252801Y-14501746D01*
X11252801Y-14501746D02*
X11252801Y-14558888D01*
X11252801Y-14558888D02*
X11243277Y-14577936D01*
X11243277Y-14577936D02*
X11233753Y-14587460D01*
X11233753Y-14587460D02*
X11214706Y-14596984D01*
X11214706Y-14596984D02*
X11186134Y-14596984D01*
X11367087Y-14596984D02*
X11348039Y-14587460D01*
X11348039Y-14587460D02*
X11338515Y-14568412D01*
X11338515Y-14568412D02*
X11338515Y-14396984D01*
X11519468Y-14587460D02*
X11500420Y-14596984D01*
X11500420Y-14596984D02*
X11462325Y-14596984D01*
X11462325Y-14596984D02*
X11443277Y-14587460D01*
X11443277Y-14587460D02*
X11433753Y-14568412D01*
X11433753Y-14568412D02*
X11433753Y-14492222D01*
X11433753Y-14492222D02*
X11443277Y-14473174D01*
X11443277Y-14473174D02*
X11462325Y-14463650D01*
X11462325Y-14463650D02*
X11500420Y-14463650D01*
X11500420Y-14463650D02*
X11519468Y-14473174D01*
X11519468Y-14473174D02*
X11528991Y-14492222D01*
X11528991Y-14492222D02*
X11528991Y-14511269D01*
X11528991Y-14511269D02*
X11433753Y-14530317D01*
X11605182Y-14587460D02*
X11624230Y-14596984D01*
X11624230Y-14596984D02*
X11662325Y-14596984D01*
X11662325Y-14596984D02*
X11681372Y-14587460D01*
X11681372Y-14587460D02*
X11690896Y-14568412D01*
X11690896Y-14568412D02*
X11690896Y-14558888D01*
X11690896Y-14558888D02*
X11681372Y-14539841D01*
X11681372Y-14539841D02*
X11662325Y-14530317D01*
X11662325Y-14530317D02*
X11633753Y-14530317D01*
X11633753Y-14530317D02*
X11614706Y-14520793D01*
X11614706Y-14520793D02*
X11605182Y-14501746D01*
X11605182Y-14501746D02*
X11605182Y-14492222D01*
X11605182Y-14492222D02*
X11614706Y-14473174D01*
X11614706Y-14473174D02*
X11633753Y-14463650D01*
X11633753Y-14463650D02*
X11662325Y-14463650D01*
X11662325Y-14463650D02*
X11681372Y-14473174D01*
X11757563Y-14673174D02*
X11767087Y-14663650D01*
X11767087Y-14663650D02*
X11786134Y-14635079D01*
X11786134Y-14635079D02*
X11795658Y-14616031D01*
X11795658Y-14616031D02*
X11805182Y-14587460D01*
X11805182Y-14587460D02*
X11814706Y-14539841D01*
X11814706Y-14539841D02*
X11814706Y-14501746D01*
X11814706Y-14501746D02*
X11805182Y-14454127D01*
X11805182Y-14454127D02*
X11795658Y-14425555D01*
X11795658Y-14425555D02*
X11786134Y-14406508D01*
X11786134Y-14406508D02*
X11767087Y-14377936D01*
X11767087Y-14377936D02*
X11757563Y-14368412D01*
D12*
X6967856Y-14804856D02*
X6967856Y-14734144D01*
X6897144Y-14734144D01*
X6897144Y-14804856D01*
X6967856Y-14804856D01*
D11*
X7348039Y-14860984D02*
X7233753Y-14860984D01*
X7290896Y-14860984D02*
X7290896Y-14660984D01*
X7290896Y-14660984D02*
X7271848Y-14689555D01*
X7271848Y-14689555D02*
X7252801Y-14708603D01*
X7252801Y-14708603D02*
X7233753Y-14718127D01*
X7433753Y-14841936D02*
X7443277Y-14851460D01*
X7443277Y-14851460D02*
X7433753Y-14860984D01*
X7433753Y-14860984D02*
X7424229Y-14851460D01*
X7424229Y-14851460D02*
X7433753Y-14841936D01*
X7433753Y-14841936D02*
X7433753Y-14860984D01*
X7567086Y-14660984D02*
X7586134Y-14660984D01*
X7586134Y-14660984D02*
X7605182Y-14670508D01*
X7605182Y-14670508D02*
X7614705Y-14680031D01*
X7614705Y-14680031D02*
X7624229Y-14699079D01*
X7624229Y-14699079D02*
X7633753Y-14737174D01*
X7633753Y-14737174D02*
X7633753Y-14784793D01*
X7633753Y-14784793D02*
X7624229Y-14822888D01*
X7624229Y-14822888D02*
X7614705Y-14841936D01*
X7614705Y-14841936D02*
X7605182Y-14851460D01*
X7605182Y-14851460D02*
X7586134Y-14860984D01*
X7586134Y-14860984D02*
X7567086Y-14860984D01*
X7567086Y-14860984D02*
X7548039Y-14851460D01*
X7548039Y-14851460D02*
X7538515Y-14841936D01*
X7538515Y-14841936D02*
X7528991Y-14822888D01*
X7528991Y-14822888D02*
X7519467Y-14784793D01*
X7519467Y-14784793D02*
X7519467Y-14737174D01*
X7519467Y-14737174D02*
X7528991Y-14699079D01*
X7528991Y-14699079D02*
X7538515Y-14680031D01*
X7538515Y-14680031D02*
X7548039Y-14670508D01*
X7548039Y-14670508D02*
X7567086Y-14660984D01*
X7757562Y-14660984D02*
X7776610Y-14660984D01*
X7776610Y-14660984D02*
X7795658Y-14670508D01*
X7795658Y-14670508D02*
X7805182Y-14680031D01*
X7805182Y-14680031D02*
X7814705Y-14699079D01*
X7814705Y-14699079D02*
X7824229Y-14737174D01*
X7824229Y-14737174D02*
X7824229Y-14784793D01*
X7824229Y-14784793D02*
X7814705Y-14822888D01*
X7814705Y-14822888D02*
X7805182Y-14841936D01*
X7805182Y-14841936D02*
X7795658Y-14851460D01*
X7795658Y-14851460D02*
X7776610Y-14860984D01*
X7776610Y-14860984D02*
X7757562Y-14860984D01*
X7757562Y-14860984D02*
X7738515Y-14851460D01*
X7738515Y-14851460D02*
X7728991Y-14841936D01*
X7728991Y-14841936D02*
X7719467Y-14822888D01*
X7719467Y-14822888D02*
X7709943Y-14784793D01*
X7709943Y-14784793D02*
X7709943Y-14737174D01*
X7709943Y-14737174D02*
X7719467Y-14699079D01*
X7719467Y-14699079D02*
X7728991Y-14680031D01*
X7728991Y-14680031D02*
X7738515Y-14670508D01*
X7738515Y-14670508D02*
X7757562Y-14660984D01*
X7948039Y-14660984D02*
X7967086Y-14660984D01*
X7967086Y-14660984D02*
X7986134Y-14670508D01*
X7986134Y-14670508D02*
X7995658Y-14680031D01*
X7995658Y-14680031D02*
X8005182Y-14699079D01*
X8005182Y-14699079D02*
X8014705Y-14737174D01*
X8014705Y-14737174D02*
X8014705Y-14784793D01*
X8014705Y-14784793D02*
X8005182Y-14822888D01*
X8005182Y-14822888D02*
X7995658Y-14841936D01*
X7995658Y-14841936D02*
X7986134Y-14851460D01*
X7986134Y-14851460D02*
X7967086Y-14860984D01*
X7967086Y-14860984D02*
X7948039Y-14860984D01*
X7948039Y-14860984D02*
X7928991Y-14851460D01*
X7928991Y-14851460D02*
X7919467Y-14841936D01*
X7919467Y-14841936D02*
X7909943Y-14822888D01*
X7909943Y-14822888D02*
X7900420Y-14784793D01*
X7900420Y-14784793D02*
X7900420Y-14737174D01*
X7900420Y-14737174D02*
X7909943Y-14699079D01*
X7909943Y-14699079D02*
X7919467Y-14680031D01*
X7919467Y-14680031D02*
X7928991Y-14670508D01*
X7928991Y-14670508D02*
X7948039Y-14660984D01*
X8100420Y-14860984D02*
X8100420Y-14727650D01*
X8100420Y-14746698D02*
X8109943Y-14737174D01*
X8109943Y-14737174D02*
X8128991Y-14727650D01*
X8128991Y-14727650D02*
X8157563Y-14727650D01*
X8157563Y-14727650D02*
X8176610Y-14737174D01*
X8176610Y-14737174D02*
X8186134Y-14756222D01*
X8186134Y-14756222D02*
X8186134Y-14860984D01*
X8186134Y-14756222D02*
X8195658Y-14737174D01*
X8195658Y-14737174D02*
X8214705Y-14727650D01*
X8214705Y-14727650D02*
X8243277Y-14727650D01*
X8243277Y-14727650D02*
X8262324Y-14737174D01*
X8262324Y-14737174D02*
X8271848Y-14756222D01*
X8271848Y-14756222D02*
X8271848Y-14860984D01*
X8367086Y-14860984D02*
X8367086Y-14727650D01*
X8367086Y-14746698D02*
X8376610Y-14737174D01*
X8376610Y-14737174D02*
X8395658Y-14727650D01*
X8395658Y-14727650D02*
X8424229Y-14727650D01*
X8424229Y-14727650D02*
X8443277Y-14737174D01*
X8443277Y-14737174D02*
X8452801Y-14756222D01*
X8452801Y-14756222D02*
X8452801Y-14860984D01*
X8452801Y-14756222D02*
X8462325Y-14737174D01*
X8462325Y-14737174D02*
X8481372Y-14727650D01*
X8481372Y-14727650D02*
X8509944Y-14727650D01*
X8509944Y-14727650D02*
X8528991Y-14737174D01*
X8528991Y-14737174D02*
X8538515Y-14756222D01*
X8538515Y-14756222D02*
X8538515Y-14860984D01*
X8928991Y-14651460D02*
X8757563Y-14908603D01*
X9186134Y-14660984D02*
X9205182Y-14660984D01*
X9205182Y-14660984D02*
X9224229Y-14670508D01*
X9224229Y-14670508D02*
X9233753Y-14680031D01*
X9233753Y-14680031D02*
X9243277Y-14699079D01*
X9243277Y-14699079D02*
X9252801Y-14737174D01*
X9252801Y-14737174D02*
X9252801Y-14784793D01*
X9252801Y-14784793D02*
X9243277Y-14822888D01*
X9243277Y-14822888D02*
X9233753Y-14841936D01*
X9233753Y-14841936D02*
X9224229Y-14851460D01*
X9224229Y-14851460D02*
X9205182Y-14860984D01*
X9205182Y-14860984D02*
X9186134Y-14860984D01*
X9186134Y-14860984D02*
X9167087Y-14851460D01*
X9167087Y-14851460D02*
X9157563Y-14841936D01*
X9157563Y-14841936D02*
X9148039Y-14822888D01*
X9148039Y-14822888D02*
X9138515Y-14784793D01*
X9138515Y-14784793D02*
X9138515Y-14737174D01*
X9138515Y-14737174D02*
X9148039Y-14699079D01*
X9148039Y-14699079D02*
X9157563Y-14680031D01*
X9157563Y-14680031D02*
X9167087Y-14670508D01*
X9167087Y-14670508D02*
X9186134Y-14660984D01*
X9338515Y-14841936D02*
X9348039Y-14851460D01*
X9348039Y-14851460D02*
X9338515Y-14860984D01*
X9338515Y-14860984D02*
X9328991Y-14851460D01*
X9328991Y-14851460D02*
X9338515Y-14841936D01*
X9338515Y-14841936D02*
X9338515Y-14860984D01*
X9471848Y-14660984D02*
X9490896Y-14660984D01*
X9490896Y-14660984D02*
X9509944Y-14670508D01*
X9509944Y-14670508D02*
X9519468Y-14680031D01*
X9519468Y-14680031D02*
X9528991Y-14699079D01*
X9528991Y-14699079D02*
X9538515Y-14737174D01*
X9538515Y-14737174D02*
X9538515Y-14784793D01*
X9538515Y-14784793D02*
X9528991Y-14822888D01*
X9528991Y-14822888D02*
X9519468Y-14841936D01*
X9519468Y-14841936D02*
X9509944Y-14851460D01*
X9509944Y-14851460D02*
X9490896Y-14860984D01*
X9490896Y-14860984D02*
X9471848Y-14860984D01*
X9471848Y-14860984D02*
X9452801Y-14851460D01*
X9452801Y-14851460D02*
X9443277Y-14841936D01*
X9443277Y-14841936D02*
X9433753Y-14822888D01*
X9433753Y-14822888D02*
X9424229Y-14784793D01*
X9424229Y-14784793D02*
X9424229Y-14737174D01*
X9424229Y-14737174D02*
X9433753Y-14699079D01*
X9433753Y-14699079D02*
X9443277Y-14680031D01*
X9443277Y-14680031D02*
X9452801Y-14670508D01*
X9452801Y-14670508D02*
X9471848Y-14660984D01*
X9605182Y-14660984D02*
X9728991Y-14660984D01*
X9728991Y-14660984D02*
X9662325Y-14737174D01*
X9662325Y-14737174D02*
X9690896Y-14737174D01*
X9690896Y-14737174D02*
X9709944Y-14746698D01*
X9709944Y-14746698D02*
X9719468Y-14756222D01*
X9719468Y-14756222D02*
X9728991Y-14775269D01*
X9728991Y-14775269D02*
X9728991Y-14822888D01*
X9728991Y-14822888D02*
X9719468Y-14841936D01*
X9719468Y-14841936D02*
X9709944Y-14851460D01*
X9709944Y-14851460D02*
X9690896Y-14860984D01*
X9690896Y-14860984D02*
X9633753Y-14860984D01*
X9633753Y-14860984D02*
X9614706Y-14851460D01*
X9614706Y-14851460D02*
X9605182Y-14841936D01*
X9824229Y-14860984D02*
X9862325Y-14860984D01*
X9862325Y-14860984D02*
X9881372Y-14851460D01*
X9881372Y-14851460D02*
X9890896Y-14841936D01*
X9890896Y-14841936D02*
X9909944Y-14813365D01*
X9909944Y-14813365D02*
X9919468Y-14775269D01*
X9919468Y-14775269D02*
X9919468Y-14699079D01*
X9919468Y-14699079D02*
X9909944Y-14680031D01*
X9909944Y-14680031D02*
X9900420Y-14670508D01*
X9900420Y-14670508D02*
X9881372Y-14660984D01*
X9881372Y-14660984D02*
X9843277Y-14660984D01*
X9843277Y-14660984D02*
X9824229Y-14670508D01*
X9824229Y-14670508D02*
X9814706Y-14680031D01*
X9814706Y-14680031D02*
X9805182Y-14699079D01*
X9805182Y-14699079D02*
X9805182Y-14746698D01*
X9805182Y-14746698D02*
X9814706Y-14765746D01*
X9814706Y-14765746D02*
X9824229Y-14775269D01*
X9824229Y-14775269D02*
X9843277Y-14784793D01*
X9843277Y-14784793D02*
X9881372Y-14784793D01*
X9881372Y-14784793D02*
X9900420Y-14775269D01*
X9900420Y-14775269D02*
X9909944Y-14765746D01*
X9909944Y-14765746D02*
X9919468Y-14746698D01*
X10090896Y-14727650D02*
X10090896Y-14860984D01*
X10043277Y-14651460D02*
X9995658Y-14794317D01*
X9995658Y-14794317D02*
X10119468Y-14794317D01*
X10186134Y-14660984D02*
X10186134Y-14699079D01*
X10262325Y-14660984D02*
X10262325Y-14699079D01*
X10557563Y-14937174D02*
X10548039Y-14927650D01*
X10548039Y-14927650D02*
X10528991Y-14899079D01*
X10528991Y-14899079D02*
X10519468Y-14880031D01*
X10519468Y-14880031D02*
X10509944Y-14851460D01*
X10509944Y-14851460D02*
X10500420Y-14803841D01*
X10500420Y-14803841D02*
X10500420Y-14765746D01*
X10500420Y-14765746D02*
X10509944Y-14718127D01*
X10509944Y-14718127D02*
X10519468Y-14689555D01*
X10519468Y-14689555D02*
X10528991Y-14670508D01*
X10528991Y-14670508D02*
X10548039Y-14641936D01*
X10548039Y-14641936D02*
X10557563Y-14632412D01*
X10738515Y-14860984D02*
X10624230Y-14860984D01*
X10681372Y-14860984D02*
X10681372Y-14660984D01*
X10681372Y-14660984D02*
X10662325Y-14689555D01*
X10662325Y-14689555D02*
X10643277Y-14708603D01*
X10643277Y-14708603D02*
X10624230Y-14718127D01*
X10919468Y-14660984D02*
X10824230Y-14660984D01*
X10824230Y-14660984D02*
X10814706Y-14756222D01*
X10814706Y-14756222D02*
X10824230Y-14746698D01*
X10824230Y-14746698D02*
X10843277Y-14737174D01*
X10843277Y-14737174D02*
X10890896Y-14737174D01*
X10890896Y-14737174D02*
X10909944Y-14746698D01*
X10909944Y-14746698D02*
X10919468Y-14756222D01*
X10919468Y-14756222D02*
X10928991Y-14775269D01*
X10928991Y-14775269D02*
X10928991Y-14822888D01*
X10928991Y-14822888D02*
X10919468Y-14841936D01*
X10919468Y-14841936D02*
X10909944Y-14851460D01*
X10909944Y-14851460D02*
X10890896Y-14860984D01*
X10890896Y-14860984D02*
X10843277Y-14860984D01*
X10843277Y-14860984D02*
X10824230Y-14851460D01*
X10824230Y-14851460D02*
X10814706Y-14841936D01*
X11167087Y-14860984D02*
X11167087Y-14660984D01*
X11252801Y-14860984D02*
X11252801Y-14756222D01*
X11252801Y-14756222D02*
X11243277Y-14737174D01*
X11243277Y-14737174D02*
X11224230Y-14727650D01*
X11224230Y-14727650D02*
X11195658Y-14727650D01*
X11195658Y-14727650D02*
X11176611Y-14737174D01*
X11176611Y-14737174D02*
X11167087Y-14746698D01*
X11376610Y-14860984D02*
X11357563Y-14851460D01*
X11357563Y-14851460D02*
X11348039Y-14841936D01*
X11348039Y-14841936D02*
X11338515Y-14822888D01*
X11338515Y-14822888D02*
X11338515Y-14765746D01*
X11338515Y-14765746D02*
X11348039Y-14746698D01*
X11348039Y-14746698D02*
X11357563Y-14737174D01*
X11357563Y-14737174D02*
X11376610Y-14727650D01*
X11376610Y-14727650D02*
X11405182Y-14727650D01*
X11405182Y-14727650D02*
X11424230Y-14737174D01*
X11424230Y-14737174D02*
X11433753Y-14746698D01*
X11433753Y-14746698D02*
X11443277Y-14765746D01*
X11443277Y-14765746D02*
X11443277Y-14822888D01*
X11443277Y-14822888D02*
X11433753Y-14841936D01*
X11433753Y-14841936D02*
X11424230Y-14851460D01*
X11424230Y-14851460D02*
X11405182Y-14860984D01*
X11405182Y-14860984D02*
X11376610Y-14860984D01*
X11557563Y-14860984D02*
X11538515Y-14851460D01*
X11538515Y-14851460D02*
X11528991Y-14832412D01*
X11528991Y-14832412D02*
X11528991Y-14660984D01*
X11709944Y-14851460D02*
X11690896Y-14860984D01*
X11690896Y-14860984D02*
X11652801Y-14860984D01*
X11652801Y-14860984D02*
X11633753Y-14851460D01*
X11633753Y-14851460D02*
X11624230Y-14832412D01*
X11624230Y-14832412D02*
X11624230Y-14756222D01*
X11624230Y-14756222D02*
X11633753Y-14737174D01*
X11633753Y-14737174D02*
X11652801Y-14727650D01*
X11652801Y-14727650D02*
X11690896Y-14727650D01*
X11690896Y-14727650D02*
X11709944Y-14737174D01*
X11709944Y-14737174D02*
X11719468Y-14756222D01*
X11719468Y-14756222D02*
X11719468Y-14775269D01*
X11719468Y-14775269D02*
X11624230Y-14794317D01*
X11795658Y-14851460D02*
X11814706Y-14860984D01*
X11814706Y-14860984D02*
X11852801Y-14860984D01*
X11852801Y-14860984D02*
X11871849Y-14851460D01*
X11871849Y-14851460D02*
X11881372Y-14832412D01*
X11881372Y-14832412D02*
X11881372Y-14822888D01*
X11881372Y-14822888D02*
X11871849Y-14803841D01*
X11871849Y-14803841D02*
X11852801Y-14794317D01*
X11852801Y-14794317D02*
X11824230Y-14794317D01*
X11824230Y-14794317D02*
X11805182Y-14784793D01*
X11805182Y-14784793D02*
X11795658Y-14765746D01*
X11795658Y-14765746D02*
X11795658Y-14756222D01*
X11795658Y-14756222D02*
X11805182Y-14737174D01*
X11805182Y-14737174D02*
X11824230Y-14727650D01*
X11824230Y-14727650D02*
X11852801Y-14727650D01*
X11852801Y-14727650D02*
X11871849Y-14737174D01*
X11948039Y-14937174D02*
X11957563Y-14927650D01*
X11957563Y-14927650D02*
X11976611Y-14899079D01*
X11976611Y-14899079D02*
X11986134Y-14880031D01*
X11986134Y-14880031D02*
X11995658Y-14851460D01*
X11995658Y-14851460D02*
X12005182Y-14803841D01*
X12005182Y-14803841D02*
X12005182Y-14765746D01*
X12005182Y-14765746D02*
X11995658Y-14718127D01*
X11995658Y-14718127D02*
X11986134Y-14689555D01*
X11986134Y-14689555D02*
X11976611Y-14670508D01*
X11976611Y-14670508D02*
X11957563Y-14641936D01*
X11957563Y-14641936D02*
X11948039Y-14632412D01*
D13*
X6931500Y-15084500D02*
X6982500Y-15033500D01*
X6931500Y-14982500D01*
X6880500Y-15033500D01*
X6931500Y-15084500D01*
D11*
X7348039Y-15124984D02*
X7233753Y-15124984D01*
X7290896Y-15124984D02*
X7290896Y-14924984D01*
X7290896Y-14924984D02*
X7271848Y-14953555D01*
X7271848Y-14953555D02*
X7252801Y-14972603D01*
X7252801Y-14972603D02*
X7233753Y-14982127D01*
X7433753Y-15105936D02*
X7443277Y-15115460D01*
X7443277Y-15115460D02*
X7433753Y-15124984D01*
X7433753Y-15124984D02*
X7424229Y-15115460D01*
X7424229Y-15115460D02*
X7433753Y-15105936D01*
X7433753Y-15105936D02*
X7433753Y-15124984D01*
X7567086Y-14924984D02*
X7586134Y-14924984D01*
X7586134Y-14924984D02*
X7605182Y-14934508D01*
X7605182Y-14934508D02*
X7614705Y-14944031D01*
X7614705Y-14944031D02*
X7624229Y-14963079D01*
X7624229Y-14963079D02*
X7633753Y-15001174D01*
X7633753Y-15001174D02*
X7633753Y-15048793D01*
X7633753Y-15048793D02*
X7624229Y-15086888D01*
X7624229Y-15086888D02*
X7614705Y-15105936D01*
X7614705Y-15105936D02*
X7605182Y-15115460D01*
X7605182Y-15115460D02*
X7586134Y-15124984D01*
X7586134Y-15124984D02*
X7567086Y-15124984D01*
X7567086Y-15124984D02*
X7548039Y-15115460D01*
X7548039Y-15115460D02*
X7538515Y-15105936D01*
X7538515Y-15105936D02*
X7528991Y-15086888D01*
X7528991Y-15086888D02*
X7519467Y-15048793D01*
X7519467Y-15048793D02*
X7519467Y-15001174D01*
X7519467Y-15001174D02*
X7528991Y-14963079D01*
X7528991Y-14963079D02*
X7538515Y-14944031D01*
X7538515Y-14944031D02*
X7548039Y-14934508D01*
X7548039Y-14934508D02*
X7567086Y-14924984D01*
X7709943Y-14944031D02*
X7719467Y-14934508D01*
X7719467Y-14934508D02*
X7738515Y-14924984D01*
X7738515Y-14924984D02*
X7786134Y-14924984D01*
X7786134Y-14924984D02*
X7805182Y-14934508D01*
X7805182Y-14934508D02*
X7814705Y-14944031D01*
X7814705Y-14944031D02*
X7824229Y-14963079D01*
X7824229Y-14963079D02*
X7824229Y-14982127D01*
X7824229Y-14982127D02*
X7814705Y-15010698D01*
X7814705Y-15010698D02*
X7700420Y-15124984D01*
X7700420Y-15124984D02*
X7824229Y-15124984D01*
X7948039Y-14924984D02*
X7967086Y-14924984D01*
X7967086Y-14924984D02*
X7986134Y-14934508D01*
X7986134Y-14934508D02*
X7995658Y-14944031D01*
X7995658Y-14944031D02*
X8005182Y-14963079D01*
X8005182Y-14963079D02*
X8014705Y-15001174D01*
X8014705Y-15001174D02*
X8014705Y-15048793D01*
X8014705Y-15048793D02*
X8005182Y-15086888D01*
X8005182Y-15086888D02*
X7995658Y-15105936D01*
X7995658Y-15105936D02*
X7986134Y-15115460D01*
X7986134Y-15115460D02*
X7967086Y-15124984D01*
X7967086Y-15124984D02*
X7948039Y-15124984D01*
X7948039Y-15124984D02*
X7928991Y-15115460D01*
X7928991Y-15115460D02*
X7919467Y-15105936D01*
X7919467Y-15105936D02*
X7909943Y-15086888D01*
X7909943Y-15086888D02*
X7900420Y-15048793D01*
X7900420Y-15048793D02*
X7900420Y-15001174D01*
X7900420Y-15001174D02*
X7909943Y-14963079D01*
X7909943Y-14963079D02*
X7919467Y-14944031D01*
X7919467Y-14944031D02*
X7928991Y-14934508D01*
X7928991Y-14934508D02*
X7948039Y-14924984D01*
X8100420Y-15124984D02*
X8100420Y-14991650D01*
X8100420Y-15010698D02*
X8109943Y-15001174D01*
X8109943Y-15001174D02*
X8128991Y-14991650D01*
X8128991Y-14991650D02*
X8157563Y-14991650D01*
X8157563Y-14991650D02*
X8176610Y-15001174D01*
X8176610Y-15001174D02*
X8186134Y-15020222D01*
X8186134Y-15020222D02*
X8186134Y-15124984D01*
X8186134Y-15020222D02*
X8195658Y-15001174D01*
X8195658Y-15001174D02*
X8214705Y-14991650D01*
X8214705Y-14991650D02*
X8243277Y-14991650D01*
X8243277Y-14991650D02*
X8262324Y-15001174D01*
X8262324Y-15001174D02*
X8271848Y-15020222D01*
X8271848Y-15020222D02*
X8271848Y-15124984D01*
X8367086Y-15124984D02*
X8367086Y-14991650D01*
X8367086Y-15010698D02*
X8376610Y-15001174D01*
X8376610Y-15001174D02*
X8395658Y-14991650D01*
X8395658Y-14991650D02*
X8424229Y-14991650D01*
X8424229Y-14991650D02*
X8443277Y-15001174D01*
X8443277Y-15001174D02*
X8452801Y-15020222D01*
X8452801Y-15020222D02*
X8452801Y-15124984D01*
X8452801Y-15020222D02*
X8462325Y-15001174D01*
X8462325Y-15001174D02*
X8481372Y-14991650D01*
X8481372Y-14991650D02*
X8509944Y-14991650D01*
X8509944Y-14991650D02*
X8528991Y-15001174D01*
X8528991Y-15001174D02*
X8538515Y-15020222D01*
X8538515Y-15020222D02*
X8538515Y-15124984D01*
X8928991Y-14915460D02*
X8757563Y-15172603D01*
X9186134Y-14924984D02*
X9205182Y-14924984D01*
X9205182Y-14924984D02*
X9224229Y-14934508D01*
X9224229Y-14934508D02*
X9233753Y-14944031D01*
X9233753Y-14944031D02*
X9243277Y-14963079D01*
X9243277Y-14963079D02*
X9252801Y-15001174D01*
X9252801Y-15001174D02*
X9252801Y-15048793D01*
X9252801Y-15048793D02*
X9243277Y-15086888D01*
X9243277Y-15086888D02*
X9233753Y-15105936D01*
X9233753Y-15105936D02*
X9224229Y-15115460D01*
X9224229Y-15115460D02*
X9205182Y-15124984D01*
X9205182Y-15124984D02*
X9186134Y-15124984D01*
X9186134Y-15124984D02*
X9167087Y-15115460D01*
X9167087Y-15115460D02*
X9157563Y-15105936D01*
X9157563Y-15105936D02*
X9148039Y-15086888D01*
X9148039Y-15086888D02*
X9138515Y-15048793D01*
X9138515Y-15048793D02*
X9138515Y-15001174D01*
X9138515Y-15001174D02*
X9148039Y-14963079D01*
X9148039Y-14963079D02*
X9157563Y-14944031D01*
X9157563Y-14944031D02*
X9167087Y-14934508D01*
X9167087Y-14934508D02*
X9186134Y-14924984D01*
X9338515Y-15105936D02*
X9348039Y-15115460D01*
X9348039Y-15115460D02*
X9338515Y-15124984D01*
X9338515Y-15124984D02*
X9328991Y-15115460D01*
X9328991Y-15115460D02*
X9338515Y-15105936D01*
X9338515Y-15105936D02*
X9338515Y-15124984D01*
X9471848Y-14924984D02*
X9490896Y-14924984D01*
X9490896Y-14924984D02*
X9509944Y-14934508D01*
X9509944Y-14934508D02*
X9519468Y-14944031D01*
X9519468Y-14944031D02*
X9528991Y-14963079D01*
X9528991Y-14963079D02*
X9538515Y-15001174D01*
X9538515Y-15001174D02*
X9538515Y-15048793D01*
X9538515Y-15048793D02*
X9528991Y-15086888D01*
X9528991Y-15086888D02*
X9519468Y-15105936D01*
X9519468Y-15105936D02*
X9509944Y-15115460D01*
X9509944Y-15115460D02*
X9490896Y-15124984D01*
X9490896Y-15124984D02*
X9471848Y-15124984D01*
X9471848Y-15124984D02*
X9452801Y-15115460D01*
X9452801Y-15115460D02*
X9443277Y-15105936D01*
X9443277Y-15105936D02*
X9433753Y-15086888D01*
X9433753Y-15086888D02*
X9424229Y-15048793D01*
X9424229Y-15048793D02*
X9424229Y-15001174D01*
X9424229Y-15001174D02*
X9433753Y-14963079D01*
X9433753Y-14963079D02*
X9443277Y-14944031D01*
X9443277Y-14944031D02*
X9452801Y-14934508D01*
X9452801Y-14934508D02*
X9471848Y-14924984D01*
X9709944Y-14991650D02*
X9709944Y-15124984D01*
X9662325Y-14915460D02*
X9614706Y-15058317D01*
X9614706Y-15058317D02*
X9738515Y-15058317D01*
X9852801Y-14924984D02*
X9871849Y-14924984D01*
X9871849Y-14924984D02*
X9890896Y-14934508D01*
X9890896Y-14934508D02*
X9900420Y-14944031D01*
X9900420Y-14944031D02*
X9909944Y-14963079D01*
X9909944Y-14963079D02*
X9919468Y-15001174D01*
X9919468Y-15001174D02*
X9919468Y-15048793D01*
X9919468Y-15048793D02*
X9909944Y-15086888D01*
X9909944Y-15086888D02*
X9900420Y-15105936D01*
X9900420Y-15105936D02*
X9890896Y-15115460D01*
X9890896Y-15115460D02*
X9871849Y-15124984D01*
X9871849Y-15124984D02*
X9852801Y-15124984D01*
X9852801Y-15124984D02*
X9833753Y-15115460D01*
X9833753Y-15115460D02*
X9824229Y-15105936D01*
X9824229Y-15105936D02*
X9814706Y-15086888D01*
X9814706Y-15086888D02*
X9805182Y-15048793D01*
X9805182Y-15048793D02*
X9805182Y-15001174D01*
X9805182Y-15001174D02*
X9814706Y-14963079D01*
X9814706Y-14963079D02*
X9824229Y-14944031D01*
X9824229Y-14944031D02*
X9833753Y-14934508D01*
X9833753Y-14934508D02*
X9852801Y-14924984D01*
X9995658Y-14944031D02*
X10005182Y-14934508D01*
X10005182Y-14934508D02*
X10024229Y-14924984D01*
X10024229Y-14924984D02*
X10071849Y-14924984D01*
X10071849Y-14924984D02*
X10090896Y-14934508D01*
X10090896Y-14934508D02*
X10100420Y-14944031D01*
X10100420Y-14944031D02*
X10109944Y-14963079D01*
X10109944Y-14963079D02*
X10109944Y-14982127D01*
X10109944Y-14982127D02*
X10100420Y-15010698D01*
X10100420Y-15010698D02*
X9986134Y-15124984D01*
X9986134Y-15124984D02*
X10109944Y-15124984D01*
X10186134Y-14924984D02*
X10186134Y-14963079D01*
X10262325Y-14924984D02*
X10262325Y-14963079D01*
X10557563Y-15201174D02*
X10548039Y-15191650D01*
X10548039Y-15191650D02*
X10528991Y-15163079D01*
X10528991Y-15163079D02*
X10519468Y-15144031D01*
X10519468Y-15144031D02*
X10509944Y-15115460D01*
X10509944Y-15115460D02*
X10500420Y-15067841D01*
X10500420Y-15067841D02*
X10500420Y-15029746D01*
X10500420Y-15029746D02*
X10509944Y-14982127D01*
X10509944Y-14982127D02*
X10519468Y-14953555D01*
X10519468Y-14953555D02*
X10528991Y-14934508D01*
X10528991Y-14934508D02*
X10548039Y-14905936D01*
X10548039Y-14905936D02*
X10557563Y-14896412D01*
X10719468Y-14991650D02*
X10719468Y-15124984D01*
X10671849Y-14915460D02*
X10624230Y-15058317D01*
X10624230Y-15058317D02*
X10748039Y-15058317D01*
X10862325Y-14924984D02*
X10881372Y-14924984D01*
X10881372Y-14924984D02*
X10900420Y-14934508D01*
X10900420Y-14934508D02*
X10909944Y-14944031D01*
X10909944Y-14944031D02*
X10919468Y-14963079D01*
X10919468Y-14963079D02*
X10928991Y-15001174D01*
X10928991Y-15001174D02*
X10928991Y-15048793D01*
X10928991Y-15048793D02*
X10919468Y-15086888D01*
X10919468Y-15086888D02*
X10909944Y-15105936D01*
X10909944Y-15105936D02*
X10900420Y-15115460D01*
X10900420Y-15115460D02*
X10881372Y-15124984D01*
X10881372Y-15124984D02*
X10862325Y-15124984D01*
X10862325Y-15124984D02*
X10843277Y-15115460D01*
X10843277Y-15115460D02*
X10833753Y-15105936D01*
X10833753Y-15105936D02*
X10824230Y-15086888D01*
X10824230Y-15086888D02*
X10814706Y-15048793D01*
X10814706Y-15048793D02*
X10814706Y-15001174D01*
X10814706Y-15001174D02*
X10824230Y-14963079D01*
X10824230Y-14963079D02*
X10833753Y-14944031D01*
X10833753Y-14944031D02*
X10843277Y-14934508D01*
X10843277Y-14934508D02*
X10862325Y-14924984D01*
X11167087Y-15124984D02*
X11167087Y-14924984D01*
X11252801Y-15124984D02*
X11252801Y-15020222D01*
X11252801Y-15020222D02*
X11243277Y-15001174D01*
X11243277Y-15001174D02*
X11224230Y-14991650D01*
X11224230Y-14991650D02*
X11195658Y-14991650D01*
X11195658Y-14991650D02*
X11176611Y-15001174D01*
X11176611Y-15001174D02*
X11167087Y-15010698D01*
X11376610Y-15124984D02*
X11357563Y-15115460D01*
X11357563Y-15115460D02*
X11348039Y-15105936D01*
X11348039Y-15105936D02*
X11338515Y-15086888D01*
X11338515Y-15086888D02*
X11338515Y-15029746D01*
X11338515Y-15029746D02*
X11348039Y-15010698D01*
X11348039Y-15010698D02*
X11357563Y-15001174D01*
X11357563Y-15001174D02*
X11376610Y-14991650D01*
X11376610Y-14991650D02*
X11405182Y-14991650D01*
X11405182Y-14991650D02*
X11424230Y-15001174D01*
X11424230Y-15001174D02*
X11433753Y-15010698D01*
X11433753Y-15010698D02*
X11443277Y-15029746D01*
X11443277Y-15029746D02*
X11443277Y-15086888D01*
X11443277Y-15086888D02*
X11433753Y-15105936D01*
X11433753Y-15105936D02*
X11424230Y-15115460D01*
X11424230Y-15115460D02*
X11405182Y-15124984D01*
X11405182Y-15124984D02*
X11376610Y-15124984D01*
X11557563Y-15124984D02*
X11538515Y-15115460D01*
X11538515Y-15115460D02*
X11528991Y-15096412D01*
X11528991Y-15096412D02*
X11528991Y-14924984D01*
X11709944Y-15115460D02*
X11690896Y-15124984D01*
X11690896Y-15124984D02*
X11652801Y-15124984D01*
X11652801Y-15124984D02*
X11633753Y-15115460D01*
X11633753Y-15115460D02*
X11624230Y-15096412D01*
X11624230Y-15096412D02*
X11624230Y-15020222D01*
X11624230Y-15020222D02*
X11633753Y-15001174D01*
X11633753Y-15001174D02*
X11652801Y-14991650D01*
X11652801Y-14991650D02*
X11690896Y-14991650D01*
X11690896Y-14991650D02*
X11709944Y-15001174D01*
X11709944Y-15001174D02*
X11719468Y-15020222D01*
X11719468Y-15020222D02*
X11719468Y-15039269D01*
X11719468Y-15039269D02*
X11624230Y-15058317D01*
X11795658Y-15115460D02*
X11814706Y-15124984D01*
X11814706Y-15124984D02*
X11852801Y-15124984D01*
X11852801Y-15124984D02*
X11871849Y-15115460D01*
X11871849Y-15115460D02*
X11881372Y-15096412D01*
X11881372Y-15096412D02*
X11881372Y-15086888D01*
X11881372Y-15086888D02*
X11871849Y-15067841D01*
X11871849Y-15067841D02*
X11852801Y-15058317D01*
X11852801Y-15058317D02*
X11824230Y-15058317D01*
X11824230Y-15058317D02*
X11805182Y-15048793D01*
X11805182Y-15048793D02*
X11795658Y-15029746D01*
X11795658Y-15029746D02*
X11795658Y-15020222D01*
X11795658Y-15020222D02*
X11805182Y-15001174D01*
X11805182Y-15001174D02*
X11824230Y-14991650D01*
X11824230Y-14991650D02*
X11852801Y-14991650D01*
X11852801Y-14991650D02*
X11871849Y-15001174D01*
X11948039Y-15201174D02*
X11957563Y-15191650D01*
X11957563Y-15191650D02*
X11976611Y-15163079D01*
X11976611Y-15163079D02*
X11986134Y-15144031D01*
X11986134Y-15144031D02*
X11995658Y-15115460D01*
X11995658Y-15115460D02*
X12005182Y-15067841D01*
X12005182Y-15067841D02*
X12005182Y-15029746D01*
X12005182Y-15029746D02*
X11995658Y-14982127D01*
X11995658Y-14982127D02*
X11986134Y-14953555D01*
X11986134Y-14953555D02*
X11976611Y-14934508D01*
X11976611Y-14934508D02*
X11957563Y-14905936D01*
X11957563Y-14905936D02*
X11948039Y-14896412D01*
D14*
X6863120Y-15237810D02*
X6982500Y-15357190D01*
X6982500Y-15237810D02*
X6863120Y-15357190D01*
X6982500Y-15297500D02*
G75*
G02*
X6863120Y-15297500I-59690J0D01*
G01*
X6863120Y-15297500D02*
G75*
G02*
X6982500Y-15297500I59690J0D01*
G01*
D11*
X7348039Y-15388984D02*
X7233753Y-15388984D01*
X7290896Y-15388984D02*
X7290896Y-15188984D01*
X7290896Y-15188984D02*
X7271848Y-15217555D01*
X7271848Y-15217555D02*
X7252801Y-15236603D01*
X7252801Y-15236603D02*
X7233753Y-15246127D01*
X7433753Y-15369936D02*
X7443277Y-15379460D01*
X7443277Y-15379460D02*
X7433753Y-15388984D01*
X7433753Y-15388984D02*
X7424229Y-15379460D01*
X7424229Y-15379460D02*
X7433753Y-15369936D01*
X7433753Y-15369936D02*
X7433753Y-15388984D01*
X7633753Y-15388984D02*
X7519467Y-15388984D01*
X7576610Y-15388984D02*
X7576610Y-15188984D01*
X7576610Y-15188984D02*
X7557562Y-15217555D01*
X7557562Y-15217555D02*
X7538515Y-15236603D01*
X7538515Y-15236603D02*
X7519467Y-15246127D01*
X7728991Y-15388984D02*
X7767086Y-15388984D01*
X7767086Y-15388984D02*
X7786134Y-15379460D01*
X7786134Y-15379460D02*
X7795658Y-15369936D01*
X7795658Y-15369936D02*
X7814705Y-15341365D01*
X7814705Y-15341365D02*
X7824229Y-15303269D01*
X7824229Y-15303269D02*
X7824229Y-15227079D01*
X7824229Y-15227079D02*
X7814705Y-15208031D01*
X7814705Y-15208031D02*
X7805182Y-15198508D01*
X7805182Y-15198508D02*
X7786134Y-15188984D01*
X7786134Y-15188984D02*
X7748039Y-15188984D01*
X7748039Y-15188984D02*
X7728991Y-15198508D01*
X7728991Y-15198508D02*
X7719467Y-15208031D01*
X7719467Y-15208031D02*
X7709943Y-15227079D01*
X7709943Y-15227079D02*
X7709943Y-15274698D01*
X7709943Y-15274698D02*
X7719467Y-15293746D01*
X7719467Y-15293746D02*
X7728991Y-15303269D01*
X7728991Y-15303269D02*
X7748039Y-15312793D01*
X7748039Y-15312793D02*
X7786134Y-15312793D01*
X7786134Y-15312793D02*
X7805182Y-15303269D01*
X7805182Y-15303269D02*
X7814705Y-15293746D01*
X7814705Y-15293746D02*
X7824229Y-15274698D01*
X7995658Y-15255650D02*
X7995658Y-15388984D01*
X7948039Y-15179460D02*
X7900420Y-15322317D01*
X7900420Y-15322317D02*
X8024229Y-15322317D01*
X8100420Y-15388984D02*
X8100420Y-15255650D01*
X8100420Y-15274698D02*
X8109943Y-15265174D01*
X8109943Y-15265174D02*
X8128991Y-15255650D01*
X8128991Y-15255650D02*
X8157563Y-15255650D01*
X8157563Y-15255650D02*
X8176610Y-15265174D01*
X8176610Y-15265174D02*
X8186134Y-15284222D01*
X8186134Y-15284222D02*
X8186134Y-15388984D01*
X8186134Y-15284222D02*
X8195658Y-15265174D01*
X8195658Y-15265174D02*
X8214705Y-15255650D01*
X8214705Y-15255650D02*
X8243277Y-15255650D01*
X8243277Y-15255650D02*
X8262324Y-15265174D01*
X8262324Y-15265174D02*
X8271848Y-15284222D01*
X8271848Y-15284222D02*
X8271848Y-15388984D01*
X8367086Y-15388984D02*
X8367086Y-15255650D01*
X8367086Y-15274698D02*
X8376610Y-15265174D01*
X8376610Y-15265174D02*
X8395658Y-15255650D01*
X8395658Y-15255650D02*
X8424229Y-15255650D01*
X8424229Y-15255650D02*
X8443277Y-15265174D01*
X8443277Y-15265174D02*
X8452801Y-15284222D01*
X8452801Y-15284222D02*
X8452801Y-15388984D01*
X8452801Y-15284222D02*
X8462325Y-15265174D01*
X8462325Y-15265174D02*
X8481372Y-15255650D01*
X8481372Y-15255650D02*
X8509944Y-15255650D01*
X8509944Y-15255650D02*
X8528991Y-15265174D01*
X8528991Y-15265174D02*
X8538515Y-15284222D01*
X8538515Y-15284222D02*
X8538515Y-15388984D01*
X8928991Y-15179460D02*
X8757563Y-15436603D01*
X9186134Y-15188984D02*
X9205182Y-15188984D01*
X9205182Y-15188984D02*
X9224229Y-15198508D01*
X9224229Y-15198508D02*
X9233753Y-15208031D01*
X9233753Y-15208031D02*
X9243277Y-15227079D01*
X9243277Y-15227079D02*
X9252801Y-15265174D01*
X9252801Y-15265174D02*
X9252801Y-15312793D01*
X9252801Y-15312793D02*
X9243277Y-15350888D01*
X9243277Y-15350888D02*
X9233753Y-15369936D01*
X9233753Y-15369936D02*
X9224229Y-15379460D01*
X9224229Y-15379460D02*
X9205182Y-15388984D01*
X9205182Y-15388984D02*
X9186134Y-15388984D01*
X9186134Y-15388984D02*
X9167087Y-15379460D01*
X9167087Y-15379460D02*
X9157563Y-15369936D01*
X9157563Y-15369936D02*
X9148039Y-15350888D01*
X9148039Y-15350888D02*
X9138515Y-15312793D01*
X9138515Y-15312793D02*
X9138515Y-15265174D01*
X9138515Y-15265174D02*
X9148039Y-15227079D01*
X9148039Y-15227079D02*
X9157563Y-15208031D01*
X9157563Y-15208031D02*
X9167087Y-15198508D01*
X9167087Y-15198508D02*
X9186134Y-15188984D01*
X9338515Y-15369936D02*
X9348039Y-15379460D01*
X9348039Y-15379460D02*
X9338515Y-15388984D01*
X9338515Y-15388984D02*
X9328991Y-15379460D01*
X9328991Y-15379460D02*
X9338515Y-15369936D01*
X9338515Y-15369936D02*
X9338515Y-15388984D01*
X9471848Y-15188984D02*
X9490896Y-15188984D01*
X9490896Y-15188984D02*
X9509944Y-15198508D01*
X9509944Y-15198508D02*
X9519468Y-15208031D01*
X9519468Y-15208031D02*
X9528991Y-15227079D01*
X9528991Y-15227079D02*
X9538515Y-15265174D01*
X9538515Y-15265174D02*
X9538515Y-15312793D01*
X9538515Y-15312793D02*
X9528991Y-15350888D01*
X9528991Y-15350888D02*
X9519468Y-15369936D01*
X9519468Y-15369936D02*
X9509944Y-15379460D01*
X9509944Y-15379460D02*
X9490896Y-15388984D01*
X9490896Y-15388984D02*
X9471848Y-15388984D01*
X9471848Y-15388984D02*
X9452801Y-15379460D01*
X9452801Y-15379460D02*
X9443277Y-15369936D01*
X9443277Y-15369936D02*
X9433753Y-15350888D01*
X9433753Y-15350888D02*
X9424229Y-15312793D01*
X9424229Y-15312793D02*
X9424229Y-15265174D01*
X9424229Y-15265174D02*
X9433753Y-15227079D01*
X9433753Y-15227079D02*
X9443277Y-15208031D01*
X9443277Y-15208031D02*
X9452801Y-15198508D01*
X9452801Y-15198508D02*
X9471848Y-15188984D01*
X9709944Y-15255650D02*
X9709944Y-15388984D01*
X9662325Y-15179460D02*
X9614706Y-15322317D01*
X9614706Y-15322317D02*
X9738515Y-15322317D01*
X9795658Y-15188984D02*
X9928991Y-15188984D01*
X9928991Y-15188984D02*
X9843277Y-15388984D01*
X10043277Y-15188984D02*
X10062325Y-15188984D01*
X10062325Y-15188984D02*
X10081372Y-15198508D01*
X10081372Y-15198508D02*
X10090896Y-15208031D01*
X10090896Y-15208031D02*
X10100420Y-15227079D01*
X10100420Y-15227079D02*
X10109944Y-15265174D01*
X10109944Y-15265174D02*
X10109944Y-15312793D01*
X10109944Y-15312793D02*
X10100420Y-15350888D01*
X10100420Y-15350888D02*
X10090896Y-15369936D01*
X10090896Y-15369936D02*
X10081372Y-15379460D01*
X10081372Y-15379460D02*
X10062325Y-15388984D01*
X10062325Y-15388984D02*
X10043277Y-15388984D01*
X10043277Y-15388984D02*
X10024229Y-15379460D01*
X10024229Y-15379460D02*
X10014706Y-15369936D01*
X10014706Y-15369936D02*
X10005182Y-15350888D01*
X10005182Y-15350888D02*
X9995658Y-15312793D01*
X9995658Y-15312793D02*
X9995658Y-15265174D01*
X9995658Y-15265174D02*
X10005182Y-15227079D01*
X10005182Y-15227079D02*
X10014706Y-15208031D01*
X10014706Y-15208031D02*
X10024229Y-15198508D01*
X10024229Y-15198508D02*
X10043277Y-15188984D01*
X10186134Y-15188984D02*
X10186134Y-15227079D01*
X10262325Y-15188984D02*
X10262325Y-15227079D01*
X10557563Y-15465174D02*
X10548039Y-15455650D01*
X10548039Y-15455650D02*
X10528991Y-15427079D01*
X10528991Y-15427079D02*
X10519468Y-15408031D01*
X10519468Y-15408031D02*
X10509944Y-15379460D01*
X10509944Y-15379460D02*
X10500420Y-15331841D01*
X10500420Y-15331841D02*
X10500420Y-15293746D01*
X10500420Y-15293746D02*
X10509944Y-15246127D01*
X10509944Y-15246127D02*
X10519468Y-15217555D01*
X10519468Y-15217555D02*
X10528991Y-15198508D01*
X10528991Y-15198508D02*
X10548039Y-15169936D01*
X10548039Y-15169936D02*
X10557563Y-15160412D01*
X10738515Y-15388984D02*
X10624230Y-15388984D01*
X10681372Y-15388984D02*
X10681372Y-15188984D01*
X10681372Y-15188984D02*
X10662325Y-15217555D01*
X10662325Y-15217555D02*
X10643277Y-15236603D01*
X10643277Y-15236603D02*
X10624230Y-15246127D01*
X10814706Y-15208031D02*
X10824230Y-15198508D01*
X10824230Y-15198508D02*
X10843277Y-15188984D01*
X10843277Y-15188984D02*
X10890896Y-15188984D01*
X10890896Y-15188984D02*
X10909944Y-15198508D01*
X10909944Y-15198508D02*
X10919468Y-15208031D01*
X10919468Y-15208031D02*
X10928991Y-15227079D01*
X10928991Y-15227079D02*
X10928991Y-15246127D01*
X10928991Y-15246127D02*
X10919468Y-15274698D01*
X10919468Y-15274698D02*
X10805182Y-15388984D01*
X10805182Y-15388984D02*
X10928991Y-15388984D01*
X11167087Y-15388984D02*
X11167087Y-15188984D01*
X11252801Y-15388984D02*
X11252801Y-15284222D01*
X11252801Y-15284222D02*
X11243277Y-15265174D01*
X11243277Y-15265174D02*
X11224230Y-15255650D01*
X11224230Y-15255650D02*
X11195658Y-15255650D01*
X11195658Y-15255650D02*
X11176611Y-15265174D01*
X11176611Y-15265174D02*
X11167087Y-15274698D01*
X11376610Y-15388984D02*
X11357563Y-15379460D01*
X11357563Y-15379460D02*
X11348039Y-15369936D01*
X11348039Y-15369936D02*
X11338515Y-15350888D01*
X11338515Y-15350888D02*
X11338515Y-15293746D01*
X11338515Y-15293746D02*
X11348039Y-15274698D01*
X11348039Y-15274698D02*
X11357563Y-15265174D01*
X11357563Y-15265174D02*
X11376610Y-15255650D01*
X11376610Y-15255650D02*
X11405182Y-15255650D01*
X11405182Y-15255650D02*
X11424230Y-15265174D01*
X11424230Y-15265174D02*
X11433753Y-15274698D01*
X11433753Y-15274698D02*
X11443277Y-15293746D01*
X11443277Y-15293746D02*
X11443277Y-15350888D01*
X11443277Y-15350888D02*
X11433753Y-15369936D01*
X11433753Y-15369936D02*
X11424230Y-15379460D01*
X11424230Y-15379460D02*
X11405182Y-15388984D01*
X11405182Y-15388984D02*
X11376610Y-15388984D01*
X11557563Y-15388984D02*
X11538515Y-15379460D01*
X11538515Y-15379460D02*
X11528991Y-15360412D01*
X11528991Y-15360412D02*
X11528991Y-15188984D01*
X11709944Y-15379460D02*
X11690896Y-15388984D01*
X11690896Y-15388984D02*
X11652801Y-15388984D01*
X11652801Y-15388984D02*
X11633753Y-15379460D01*
X11633753Y-15379460D02*
X11624230Y-15360412D01*
X11624230Y-15360412D02*
X11624230Y-15284222D01*
X11624230Y-15284222D02*
X11633753Y-15265174D01*
X11633753Y-15265174D02*
X11652801Y-15255650D01*
X11652801Y-15255650D02*
X11690896Y-15255650D01*
X11690896Y-15255650D02*
X11709944Y-15265174D01*
X11709944Y-15265174D02*
X11719468Y-15284222D01*
X11719468Y-15284222D02*
X11719468Y-15303269D01*
X11719468Y-15303269D02*
X11624230Y-15322317D01*
X11795658Y-15379460D02*
X11814706Y-15388984D01*
X11814706Y-15388984D02*
X11852801Y-15388984D01*
X11852801Y-15388984D02*
X11871849Y-15379460D01*
X11871849Y-15379460D02*
X11881372Y-15360412D01*
X11881372Y-15360412D02*
X11881372Y-15350888D01*
X11881372Y-15350888D02*
X11871849Y-15331841D01*
X11871849Y-15331841D02*
X11852801Y-15322317D01*
X11852801Y-15322317D02*
X11824230Y-15322317D01*
X11824230Y-15322317D02*
X11805182Y-15312793D01*
X11805182Y-15312793D02*
X11795658Y-15293746D01*
X11795658Y-15293746D02*
X11795658Y-15284222D01*
X11795658Y-15284222D02*
X11805182Y-15265174D01*
X11805182Y-15265174D02*
X11824230Y-15255650D01*
X11824230Y-15255650D02*
X11852801Y-15255650D01*
X11852801Y-15255650D02*
X11871849Y-15265174D01*
X11948039Y-15465174D02*
X11957563Y-15455650D01*
X11957563Y-15455650D02*
X11976611Y-15427079D01*
X11976611Y-15427079D02*
X11986134Y-15408031D01*
X11986134Y-15408031D02*
X11995658Y-15379460D01*
X11995658Y-15379460D02*
X12005182Y-15331841D01*
X12005182Y-15331841D02*
X12005182Y-15293746D01*
X12005182Y-15293746D02*
X11995658Y-15246127D01*
X11995658Y-15246127D02*
X11986134Y-15217555D01*
X11986134Y-15217555D02*
X11976611Y-15198508D01*
X11976611Y-15198508D02*
X11957563Y-15169936D01*
X11957563Y-15169936D02*
X11948039Y-15160412D01*
D15*
X6862500Y-15501500D02*
X6982500Y-15621500D01*
X6982500Y-15501500D02*
X6862500Y-15621500D01*
X6922500Y-15501500D02*
X6922500Y-15621500D01*
X6862500Y-15561500D02*
X6982500Y-15561500D01*
D11*
X7348039Y-15652984D02*
X7233753Y-15652984D01*
X7290896Y-15652984D02*
X7290896Y-15452984D01*
X7290896Y-15452984D02*
X7271848Y-15481555D01*
X7271848Y-15481555D02*
X7252801Y-15500603D01*
X7252801Y-15500603D02*
X7233753Y-15510127D01*
X7433753Y-15633936D02*
X7443277Y-15643460D01*
X7443277Y-15643460D02*
X7433753Y-15652984D01*
X7433753Y-15652984D02*
X7424229Y-15643460D01*
X7424229Y-15643460D02*
X7433753Y-15633936D01*
X7433753Y-15633936D02*
X7433753Y-15652984D01*
X7519467Y-15472031D02*
X7528991Y-15462508D01*
X7528991Y-15462508D02*
X7548039Y-15452984D01*
X7548039Y-15452984D02*
X7595658Y-15452984D01*
X7595658Y-15452984D02*
X7614705Y-15462508D01*
X7614705Y-15462508D02*
X7624229Y-15472031D01*
X7624229Y-15472031D02*
X7633753Y-15491079D01*
X7633753Y-15491079D02*
X7633753Y-15510127D01*
X7633753Y-15510127D02*
X7624229Y-15538698D01*
X7624229Y-15538698D02*
X7509943Y-15652984D01*
X7509943Y-15652984D02*
X7633753Y-15652984D01*
X7757562Y-15452984D02*
X7776610Y-15452984D01*
X7776610Y-15452984D02*
X7795658Y-15462508D01*
X7795658Y-15462508D02*
X7805182Y-15472031D01*
X7805182Y-15472031D02*
X7814705Y-15491079D01*
X7814705Y-15491079D02*
X7824229Y-15529174D01*
X7824229Y-15529174D02*
X7824229Y-15576793D01*
X7824229Y-15576793D02*
X7814705Y-15614888D01*
X7814705Y-15614888D02*
X7805182Y-15633936D01*
X7805182Y-15633936D02*
X7795658Y-15643460D01*
X7795658Y-15643460D02*
X7776610Y-15652984D01*
X7776610Y-15652984D02*
X7757562Y-15652984D01*
X7757562Y-15652984D02*
X7738515Y-15643460D01*
X7738515Y-15643460D02*
X7728991Y-15633936D01*
X7728991Y-15633936D02*
X7719467Y-15614888D01*
X7719467Y-15614888D02*
X7709943Y-15576793D01*
X7709943Y-15576793D02*
X7709943Y-15529174D01*
X7709943Y-15529174D02*
X7719467Y-15491079D01*
X7719467Y-15491079D02*
X7728991Y-15472031D01*
X7728991Y-15472031D02*
X7738515Y-15462508D01*
X7738515Y-15462508D02*
X7757562Y-15452984D01*
X7948039Y-15452984D02*
X7967086Y-15452984D01*
X7967086Y-15452984D02*
X7986134Y-15462508D01*
X7986134Y-15462508D02*
X7995658Y-15472031D01*
X7995658Y-15472031D02*
X8005182Y-15491079D01*
X8005182Y-15491079D02*
X8014705Y-15529174D01*
X8014705Y-15529174D02*
X8014705Y-15576793D01*
X8014705Y-15576793D02*
X8005182Y-15614888D01*
X8005182Y-15614888D02*
X7995658Y-15633936D01*
X7995658Y-15633936D02*
X7986134Y-15643460D01*
X7986134Y-15643460D02*
X7967086Y-15652984D01*
X7967086Y-15652984D02*
X7948039Y-15652984D01*
X7948039Y-15652984D02*
X7928991Y-15643460D01*
X7928991Y-15643460D02*
X7919467Y-15633936D01*
X7919467Y-15633936D02*
X7909943Y-15614888D01*
X7909943Y-15614888D02*
X7900420Y-15576793D01*
X7900420Y-15576793D02*
X7900420Y-15529174D01*
X7900420Y-15529174D02*
X7909943Y-15491079D01*
X7909943Y-15491079D02*
X7919467Y-15472031D01*
X7919467Y-15472031D02*
X7928991Y-15462508D01*
X7928991Y-15462508D02*
X7948039Y-15452984D01*
X8100420Y-15652984D02*
X8100420Y-15519650D01*
X8100420Y-15538698D02*
X8109943Y-15529174D01*
X8109943Y-15529174D02*
X8128991Y-15519650D01*
X8128991Y-15519650D02*
X8157563Y-15519650D01*
X8157563Y-15519650D02*
X8176610Y-15529174D01*
X8176610Y-15529174D02*
X8186134Y-15548222D01*
X8186134Y-15548222D02*
X8186134Y-15652984D01*
X8186134Y-15548222D02*
X8195658Y-15529174D01*
X8195658Y-15529174D02*
X8214705Y-15519650D01*
X8214705Y-15519650D02*
X8243277Y-15519650D01*
X8243277Y-15519650D02*
X8262324Y-15529174D01*
X8262324Y-15529174D02*
X8271848Y-15548222D01*
X8271848Y-15548222D02*
X8271848Y-15652984D01*
X8367086Y-15652984D02*
X8367086Y-15519650D01*
X8367086Y-15538698D02*
X8376610Y-15529174D01*
X8376610Y-15529174D02*
X8395658Y-15519650D01*
X8395658Y-15519650D02*
X8424229Y-15519650D01*
X8424229Y-15519650D02*
X8443277Y-15529174D01*
X8443277Y-15529174D02*
X8452801Y-15548222D01*
X8452801Y-15548222D02*
X8452801Y-15652984D01*
X8452801Y-15548222D02*
X8462325Y-15529174D01*
X8462325Y-15529174D02*
X8481372Y-15519650D01*
X8481372Y-15519650D02*
X8509944Y-15519650D01*
X8509944Y-15519650D02*
X8528991Y-15529174D01*
X8528991Y-15529174D02*
X8538515Y-15548222D01*
X8538515Y-15548222D02*
X8538515Y-15652984D01*
X8928991Y-15443460D02*
X8757563Y-15700603D01*
X9186134Y-15452984D02*
X9205182Y-15452984D01*
X9205182Y-15452984D02*
X9224229Y-15462508D01*
X9224229Y-15462508D02*
X9233753Y-15472031D01*
X9233753Y-15472031D02*
X9243277Y-15491079D01*
X9243277Y-15491079D02*
X9252801Y-15529174D01*
X9252801Y-15529174D02*
X9252801Y-15576793D01*
X9252801Y-15576793D02*
X9243277Y-15614888D01*
X9243277Y-15614888D02*
X9233753Y-15633936D01*
X9233753Y-15633936D02*
X9224229Y-15643460D01*
X9224229Y-15643460D02*
X9205182Y-15652984D01*
X9205182Y-15652984D02*
X9186134Y-15652984D01*
X9186134Y-15652984D02*
X9167087Y-15643460D01*
X9167087Y-15643460D02*
X9157563Y-15633936D01*
X9157563Y-15633936D02*
X9148039Y-15614888D01*
X9148039Y-15614888D02*
X9138515Y-15576793D01*
X9138515Y-15576793D02*
X9138515Y-15529174D01*
X9138515Y-15529174D02*
X9148039Y-15491079D01*
X9148039Y-15491079D02*
X9157563Y-15472031D01*
X9157563Y-15472031D02*
X9167087Y-15462508D01*
X9167087Y-15462508D02*
X9186134Y-15452984D01*
X9338515Y-15633936D02*
X9348039Y-15643460D01*
X9348039Y-15643460D02*
X9338515Y-15652984D01*
X9338515Y-15652984D02*
X9328991Y-15643460D01*
X9328991Y-15643460D02*
X9338515Y-15633936D01*
X9338515Y-15633936D02*
X9338515Y-15652984D01*
X9471848Y-15452984D02*
X9490896Y-15452984D01*
X9490896Y-15452984D02*
X9509944Y-15462508D01*
X9509944Y-15462508D02*
X9519468Y-15472031D01*
X9519468Y-15472031D02*
X9528991Y-15491079D01*
X9528991Y-15491079D02*
X9538515Y-15529174D01*
X9538515Y-15529174D02*
X9538515Y-15576793D01*
X9538515Y-15576793D02*
X9528991Y-15614888D01*
X9528991Y-15614888D02*
X9519468Y-15633936D01*
X9519468Y-15633936D02*
X9509944Y-15643460D01*
X9509944Y-15643460D02*
X9490896Y-15652984D01*
X9490896Y-15652984D02*
X9471848Y-15652984D01*
X9471848Y-15652984D02*
X9452801Y-15643460D01*
X9452801Y-15643460D02*
X9443277Y-15633936D01*
X9443277Y-15633936D02*
X9433753Y-15614888D01*
X9433753Y-15614888D02*
X9424229Y-15576793D01*
X9424229Y-15576793D02*
X9424229Y-15529174D01*
X9424229Y-15529174D02*
X9433753Y-15491079D01*
X9433753Y-15491079D02*
X9443277Y-15472031D01*
X9443277Y-15472031D02*
X9452801Y-15462508D01*
X9452801Y-15462508D02*
X9471848Y-15452984D01*
X9709944Y-15519650D02*
X9709944Y-15652984D01*
X9662325Y-15443460D02*
X9614706Y-15586317D01*
X9614706Y-15586317D02*
X9738515Y-15586317D01*
X9795658Y-15452984D02*
X9928991Y-15452984D01*
X9928991Y-15452984D02*
X9843277Y-15652984D01*
X9995658Y-15472031D02*
X10005182Y-15462508D01*
X10005182Y-15462508D02*
X10024229Y-15452984D01*
X10024229Y-15452984D02*
X10071849Y-15452984D01*
X10071849Y-15452984D02*
X10090896Y-15462508D01*
X10090896Y-15462508D02*
X10100420Y-15472031D01*
X10100420Y-15472031D02*
X10109944Y-15491079D01*
X10109944Y-15491079D02*
X10109944Y-15510127D01*
X10109944Y-15510127D02*
X10100420Y-15538698D01*
X10100420Y-15538698D02*
X9986134Y-15652984D01*
X9986134Y-15652984D02*
X10109944Y-15652984D01*
X10186134Y-15452984D02*
X10186134Y-15491079D01*
X10262325Y-15452984D02*
X10262325Y-15491079D01*
X10557563Y-15729174D02*
X10548039Y-15719650D01*
X10548039Y-15719650D02*
X10528991Y-15691079D01*
X10528991Y-15691079D02*
X10519468Y-15672031D01*
X10519468Y-15672031D02*
X10509944Y-15643460D01*
X10509944Y-15643460D02*
X10500420Y-15595841D01*
X10500420Y-15595841D02*
X10500420Y-15557746D01*
X10500420Y-15557746D02*
X10509944Y-15510127D01*
X10509944Y-15510127D02*
X10519468Y-15481555D01*
X10519468Y-15481555D02*
X10528991Y-15462508D01*
X10528991Y-15462508D02*
X10548039Y-15433936D01*
X10548039Y-15433936D02*
X10557563Y-15424412D01*
X10738515Y-15652984D02*
X10624230Y-15652984D01*
X10681372Y-15652984D02*
X10681372Y-15452984D01*
X10681372Y-15452984D02*
X10662325Y-15481555D01*
X10662325Y-15481555D02*
X10643277Y-15500603D01*
X10643277Y-15500603D02*
X10624230Y-15510127D01*
X10909944Y-15519650D02*
X10909944Y-15652984D01*
X10862325Y-15443460D02*
X10814706Y-15586317D01*
X10814706Y-15586317D02*
X10938515Y-15586317D01*
X11167087Y-15652984D02*
X11167087Y-15452984D01*
X11252801Y-15652984D02*
X11252801Y-15548222D01*
X11252801Y-15548222D02*
X11243277Y-15529174D01*
X11243277Y-15529174D02*
X11224230Y-15519650D01*
X11224230Y-15519650D02*
X11195658Y-15519650D01*
X11195658Y-15519650D02*
X11176611Y-15529174D01*
X11176611Y-15529174D02*
X11167087Y-15538698D01*
X11376610Y-15652984D02*
X11357563Y-15643460D01*
X11357563Y-15643460D02*
X11348039Y-15633936D01*
X11348039Y-15633936D02*
X11338515Y-15614888D01*
X11338515Y-15614888D02*
X11338515Y-15557746D01*
X11338515Y-15557746D02*
X11348039Y-15538698D01*
X11348039Y-15538698D02*
X11357563Y-15529174D01*
X11357563Y-15529174D02*
X11376610Y-15519650D01*
X11376610Y-15519650D02*
X11405182Y-15519650D01*
X11405182Y-15519650D02*
X11424230Y-15529174D01*
X11424230Y-15529174D02*
X11433753Y-15538698D01*
X11433753Y-15538698D02*
X11443277Y-15557746D01*
X11443277Y-15557746D02*
X11443277Y-15614888D01*
X11443277Y-15614888D02*
X11433753Y-15633936D01*
X11433753Y-15633936D02*
X11424230Y-15643460D01*
X11424230Y-15643460D02*
X11405182Y-15652984D01*
X11405182Y-15652984D02*
X11376610Y-15652984D01*
X11557563Y-15652984D02*
X11538515Y-15643460D01*
X11538515Y-15643460D02*
X11528991Y-15624412D01*
X11528991Y-15624412D02*
X11528991Y-15452984D01*
X11709944Y-15643460D02*
X11690896Y-15652984D01*
X11690896Y-15652984D02*
X11652801Y-15652984D01*
X11652801Y-15652984D02*
X11633753Y-15643460D01*
X11633753Y-15643460D02*
X11624230Y-15624412D01*
X11624230Y-15624412D02*
X11624230Y-15548222D01*
X11624230Y-15548222D02*
X11633753Y-15529174D01*
X11633753Y-15529174D02*
X11652801Y-15519650D01*
X11652801Y-15519650D02*
X11690896Y-15519650D01*
X11690896Y-15519650D02*
X11709944Y-15529174D01*
X11709944Y-15529174D02*
X11719468Y-15548222D01*
X11719468Y-15548222D02*
X11719468Y-15567269D01*
X11719468Y-15567269D02*
X11624230Y-15586317D01*
X11795658Y-15643460D02*
X11814706Y-15652984D01*
X11814706Y-15652984D02*
X11852801Y-15652984D01*
X11852801Y-15652984D02*
X11871849Y-15643460D01*
X11871849Y-15643460D02*
X11881372Y-15624412D01*
X11881372Y-15624412D02*
X11881372Y-15614888D01*
X11881372Y-15614888D02*
X11871849Y-15595841D01*
X11871849Y-15595841D02*
X11852801Y-15586317D01*
X11852801Y-15586317D02*
X11824230Y-15586317D01*
X11824230Y-15586317D02*
X11805182Y-15576793D01*
X11805182Y-15576793D02*
X11795658Y-15557746D01*
X11795658Y-15557746D02*
X11795658Y-15548222D01*
X11795658Y-15548222D02*
X11805182Y-15529174D01*
X11805182Y-15529174D02*
X11824230Y-15519650D01*
X11824230Y-15519650D02*
X11852801Y-15519650D01*
X11852801Y-15519650D02*
X11871849Y-15529174D01*
X11948039Y-15729174D02*
X11957563Y-15719650D01*
X11957563Y-15719650D02*
X11976611Y-15691079D01*
X11976611Y-15691079D02*
X11986134Y-15672031D01*
X11986134Y-15672031D02*
X11995658Y-15643460D01*
X11995658Y-15643460D02*
X12005182Y-15595841D01*
X12005182Y-15595841D02*
X12005182Y-15557746D01*
X12005182Y-15557746D02*
X11995658Y-15510127D01*
X11995658Y-15510127D02*
X11986134Y-15481555D01*
X11986134Y-15481555D02*
X11976611Y-15462508D01*
X11976611Y-15462508D02*
X11957563Y-15433936D01*
X11957563Y-15433936D02*
X11948039Y-15424412D01*
M02*
