%TF.GenerationSoftware,KiCad,Pcbnew,8.0.8*%
%TF.CreationDate,2025-11-10T08:34:54-07:00*%
%TF.ProjectId,WiegandTest,57696567-616e-4645-9465-73742e6b6963,A*%
%TF.SameCoordinates,Original*%
%TF.FileFunction,Copper,L1,Top*%
%TF.FilePolarity,Positive*%
%FSLAX46Y46*%
G04 Gerber Fmt 4.6, Leading zero omitted, Abs format (unit mm)*
G04 Created by KiCad (PCBNEW 8.0.8) date 2025-11-10 08:34:54*
%MOMM*%
%LPD*%
G01*
G04 APERTURE LIST*
G04 Aperture macros list*
%AMRoundRect*
0 Rectangle with rounded corners*
0 $1 Rounding radius*
0 $2 $3 $4 $5 $6 $7 $8 $9 X,Y pos of 4 corners*
0 Add a 4 corners polygon primitive as box body*
4,1,4,$2,$3,$4,$5,$6,$7,$8,$9,$2,$3,0*
0 Add four circle primitives for the rounded corners*
1,1,$1+$1,$2,$3*
1,1,$1+$1,$4,$5*
1,1,$1+$1,$6,$7*
1,1,$1+$1,$8,$9*
0 Add four rect primitives between the rounded corners*
20,1,$1+$1,$2,$3,$4,$5,0*
20,1,$1+$1,$4,$5,$6,$7,0*
20,1,$1+$1,$6,$7,$8,$9,0*
20,1,$1+$1,$8,$9,$2,$3,0*%
G04 Aperture macros list end*
%TA.AperFunction,ComponentPad*%
%ADD10C,1.701800*%
%TD*%
%TA.AperFunction,SMDPad,CuDef*%
%ADD11RoundRect,0.150000X-0.150000X0.587500X-0.150000X-0.587500X0.150000X-0.587500X0.150000X0.587500X0*%
%TD*%
%TA.AperFunction,SMDPad,CuDef*%
%ADD12RoundRect,0.237500X-0.250000X-0.237500X0.250000X-0.237500X0.250000X0.237500X-0.250000X0.237500X0*%
%TD*%
%TA.AperFunction,SMDPad,CuDef*%
%ADD13RoundRect,0.237500X0.250000X0.237500X-0.250000X0.237500X-0.250000X-0.237500X0.250000X-0.237500X0*%
%TD*%
%TA.AperFunction,ComponentPad*%
%ADD14R,1.500000X1.500000*%
%TD*%
%TA.AperFunction,SMDPad,CuDef*%
%ADD15RoundRect,0.150000X0.150000X-0.587500X0.150000X0.587500X-0.150000X0.587500X-0.150000X-0.587500X0*%
%TD*%
%TA.AperFunction,SMDPad,CuDef*%
%ADD16RoundRect,0.237500X-0.237500X0.250000X-0.237500X-0.250000X0.237500X-0.250000X0.237500X0.250000X0*%
%TD*%
%TA.AperFunction,SMDPad,CuDef*%
%ADD17RoundRect,0.250000X0.475000X-0.337500X0.475000X0.337500X-0.475000X0.337500X-0.475000X-0.337500X0*%
%TD*%
%TA.AperFunction,SMDPad,CuDef*%
%ADD18RoundRect,0.250000X-0.475000X0.337500X-0.475000X-0.337500X0.475000X-0.337500X0.475000X0.337500X0*%
%TD*%
%TA.AperFunction,ComponentPad*%
%ADD19R,1.700000X1.700000*%
%TD*%
%TA.AperFunction,ComponentPad*%
%ADD20O,1.700000X1.700000*%
%TD*%
%TA.AperFunction,SMDPad,CuDef*%
%ADD21RoundRect,0.250000X-0.900000X1.000000X-0.900000X-1.000000X0.900000X-1.000000X0.900000X1.000000X0*%
%TD*%
%TA.AperFunction,SMDPad,CuDef*%
%ADD22RoundRect,0.237500X0.237500X-0.250000X0.237500X0.250000X-0.237500X0.250000X-0.237500X-0.250000X0*%
%TD*%
%TA.AperFunction,SMDPad,CuDef*%
%ADD23R,3.500000X1.700000*%
%TD*%
%TA.AperFunction,ComponentPad*%
%ADD24R,2.000000X2.000000*%
%TD*%
%TA.AperFunction,ComponentPad*%
%ADD25C,2.000000*%
%TD*%
%TA.AperFunction,ViaPad*%
%ADD26C,1.000000*%
%TD*%
%TA.AperFunction,ViaPad*%
%ADD27C,0.500000*%
%TD*%
%TA.AperFunction,Conductor*%
%ADD28C,1.270000*%
%TD*%
%TA.AperFunction,Conductor*%
%ADD29C,0.381000*%
%TD*%
%TA.AperFunction,Conductor*%
%ADD30C,0.635000*%
%TD*%
%TA.AperFunction,Conductor*%
%ADD31C,0.203200*%
%TD*%
%TA.AperFunction,Profile*%
%ADD32C,0.050000*%
%TD*%
G04 APERTURE END LIST*
D10*
%TO.P,J10,1,Pin_1*%
%TO.N,GND*%
X98033200Y-58572400D03*
%TO.P,J10,2,Pin_2*%
%TO.N,Net-(J10-Pin_2)*%
X100533200Y-58572400D03*
%TO.P,J10,3,Pin_3*%
%TO.N,Net-(J10-Pin_3)*%
X103033200Y-58572400D03*
%TO.P,J10,4,Pin_4*%
%TO.N,Net-(J10-Pin_4)*%
X105533200Y-58572400D03*
%TD*%
D11*
%TO.P,D6,1,A*%
%TO.N,GND*%
X160197200Y-68766300D03*
%TO.P,D6,2,K*%
%TO.N,+3V3*%
X158297200Y-68766300D03*
%TO.P,D6,3,common*%
%TO.N,Net-(D6-common)*%
X159247200Y-70641300D03*
%TD*%
D12*
%TO.P,R29,1*%
%TO.N,Net-(D17-Pad2)*%
X91405700Y-68097400D03*
%TO.P,R29,2*%
%TO.N,Net-(D19-common)*%
X93230700Y-68097400D03*
%TD*%
D11*
%TO.P,D4,1,A*%
%TO.N,GND*%
X152576700Y-69217300D03*
%TO.P,D4,2,K*%
%TO.N,+3V3*%
X150676700Y-69217300D03*
%TO.P,D4,3,common*%
%TO.N,Net-(D4-common)*%
X151626700Y-71092300D03*
%TD*%
D13*
%TO.P,R35,1*%
%TO.N,Net-(D21-common)*%
X101485700Y-73177400D03*
%TO.P,R35,2*%
%TO.N,Net-(D22-common)*%
X99660700Y-73177400D03*
%TD*%
D14*
%TO.P,TP2,1,1*%
%TO.N,GND*%
X72110600Y-65989200D03*
%TD*%
D15*
%TO.P,Q1,1,G*%
%TO.N,Net-(Q1-G)*%
X154128300Y-74114900D03*
%TO.P,Q1,2,S*%
%TO.N,GND*%
X156028300Y-74114900D03*
%TO.P,Q1,3,D*%
%TO.N,Net-(D3-common)*%
X155078300Y-72239900D03*
%TD*%
%TO.P,D1,1*%
%TO.N,Net-(D1-Pad1)*%
X154715800Y-69619100D03*
%TO.P,D1,2*%
%TO.N,Net-(D1-Pad2)*%
X156615800Y-69619100D03*
%TO.P,D1,3*%
%TO.N,Net-(J1-Pin_2)*%
X155665800Y-67744100D03*
%TD*%
D16*
%TO.P,R12,1*%
%TO.N,Net-(Q2-G)*%
X162331400Y-78030700D03*
%TO.P,R12,2*%
%TO.N,/CPU/{slash}DA1_TX*%
X162331400Y-79855700D03*
%TD*%
D15*
%TO.P,Q7,1,G*%
%TO.N,Net-(Q7-G)*%
X91368200Y-75384900D03*
%TO.P,Q7,2,S*%
%TO.N,GND*%
X93268200Y-75384900D03*
%TO.P,Q7,3,D*%
%TO.N,Net-(D21-common)*%
X92318200Y-73509900D03*
%TD*%
%TO.P,Q2,1,G*%
%TO.N,Net-(Q2-G)*%
X162335800Y-75334100D03*
%TO.P,Q2,2,S*%
%TO.N,GND*%
X164235800Y-75334100D03*
%TO.P,Q2,3,D*%
%TO.N,Net-(D5-common)*%
X163285800Y-73459100D03*
%TD*%
D12*
%TO.P,R27,1*%
%TO.N,Net-(Q4-G)*%
X118639900Y-76168400D03*
%TO.P,R27,2*%
%TO.N,/CPU/{slash}DB0_TX*%
X120464900Y-76168400D03*
%TD*%
%TO.P,R10,1*%
%TO.N,Net-(D5-common)*%
X170029500Y-65506600D03*
%TO.P,R10,2*%
%TO.N,GND*%
X171854500Y-65506600D03*
%TD*%
D11*
%TO.P,D22,1,A*%
%TO.N,GND*%
X89229600Y-68817100D03*
%TO.P,D22,2,K*%
%TO.N,+3V3*%
X87329600Y-68817100D03*
%TO.P,D22,3,common*%
%TO.N,Net-(D22-common)*%
X88279600Y-70692100D03*
%TD*%
D17*
%TO.P,C6,1*%
%TO.N,+3V3*%
X145409600Y-62200700D03*
%TO.P,C6,2*%
%TO.N,GND*%
X145409600Y-60125700D03*
%TD*%
D16*
%TO.P,R5,1*%
%TO.N,Net-(D4-common)*%
X157911800Y-72493500D03*
%TO.P,R5,2*%
%TO.N,/CPU/DA0_RX*%
X157911800Y-74318500D03*
%TD*%
D18*
%TO.P,C1,1*%
%TO.N,+5V*%
X88366600Y-128578700D03*
%TO.P,C1,2*%
%TO.N,GND*%
X88366600Y-130653700D03*
%TD*%
D16*
%TO.P,R13,1*%
%TO.N,Net-(D7-A)*%
X173786800Y-62104900D03*
%TO.P,R13,2*%
%TO.N,+3V3*%
X173786800Y-63929900D03*
%TD*%
%TO.P,R24,1*%
%TO.N,Net-(D16-common)*%
X123972000Y-72512700D03*
%TO.P,R24,2*%
%TO.N,/CPU/DB0_RX*%
X123972000Y-74337700D03*
%TD*%
D18*
%TO.P,C4,1*%
%TO.N,+5V*%
X149822000Y-56032400D03*
%TO.P,C4,2*%
%TO.N,GND*%
X149822000Y-58107400D03*
%TD*%
D14*
%TO.P,TP1,1,1*%
%TO.N,GND*%
X186842400Y-68656200D03*
%TD*%
D12*
%TO.P,R9,1*%
%TO.N,Net-(D3-common)*%
X166473500Y-65455800D03*
%TO.P,R9,2*%
%TO.N,GND*%
X168298500Y-65455800D03*
%TD*%
D15*
%TO.P,Q4,1,G*%
%TO.N,Net-(Q4-G)*%
X118664500Y-74134100D03*
%TO.P,Q4,2,S*%
%TO.N,GND*%
X120564500Y-74134100D03*
%TO.P,Q4,3,D*%
%TO.N,Net-(D13-common)*%
X119614500Y-72259100D03*
%TD*%
D16*
%TO.P,R8,1*%
%TO.N,Net-(D6-common)*%
X159435800Y-72493500D03*
%TO.P,R8,2*%
%TO.N,/CPU/DA1_RX*%
X159435800Y-74318500D03*
%TD*%
D19*
%TO.P,J1,1,Pin_1*%
%TO.N,+5V*%
X153613400Y-64750800D03*
D20*
%TO.P,J1,2,Pin_2*%
%TO.N,Net-(J1-Pin_2)*%
X156153400Y-64750800D03*
%TO.P,J1,3,Pin_3*%
%TO.N,+3V3*%
X158693400Y-64750800D03*
%TO.P,J1,4,Pin_4*%
%TO.N,Net-(J1-Pin_2)*%
X161233400Y-64750800D03*
%TO.P,J1,5,Pin_5*%
%TO.N,Net-(J1-Pin_5)*%
X163773400Y-64750800D03*
%TD*%
D11*
%TO.P,D14,1,A*%
%TO.N,GND*%
X117112900Y-69236500D03*
%TO.P,D14,2,K*%
%TO.N,+3V3*%
X115212900Y-69236500D03*
%TO.P,D14,3,common*%
%TO.N,Net-(D14-common)*%
X116162900Y-71111500D03*
%TD*%
D12*
%TO.P,R1,1*%
%TO.N,Net-(D1-Pad2)*%
X162373300Y-68046600D03*
%TO.P,R1,2*%
%TO.N,Net-(D3-common)*%
X164198300Y-68046600D03*
%TD*%
D13*
%TO.P,R32,1*%
%TO.N,Net-(D19-common)*%
X97675700Y-73177400D03*
%TO.P,R32,2*%
%TO.N,Net-(D20-common)*%
X95850700Y-73177400D03*
%TD*%
D11*
%TO.P,D20,1,A*%
%TO.N,GND*%
X81609100Y-69268100D03*
%TO.P,D20,2,K*%
%TO.N,+3V3*%
X79709100Y-69268100D03*
%TO.P,D20,3,common*%
%TO.N,Net-(D20-common)*%
X80659100Y-71143100D03*
%TD*%
D13*
%TO.P,R19,1*%
%TO.N,Net-(J7-Pin_2)*%
X132860100Y-62249200D03*
%TO.P,R19,2*%
%TO.N,Net-(D13-common)*%
X131035100Y-62249200D03*
%TD*%
D17*
%TO.P,C2,1*%
%TO.N,+3V3*%
X88341200Y-117166300D03*
%TO.P,C2,2*%
%TO.N,GND*%
X88341200Y-115091300D03*
%TD*%
D15*
%TO.P,D3,1,A*%
%TO.N,GND*%
X166780800Y-70889100D03*
%TO.P,D3,2,K*%
%TO.N,Net-(D2-K)*%
X168680800Y-70889100D03*
%TO.P,D3,3,common*%
%TO.N,Net-(D3-common)*%
X167730800Y-69014100D03*
%TD*%
%TO.P,D17,1*%
%TO.N,Net-(D17-Pad1)*%
X83748200Y-69669900D03*
%TO.P,D17,2*%
%TO.N,Net-(D17-Pad2)*%
X85648200Y-69669900D03*
%TO.P,D17,3*%
%TO.N,Net-(J8-Pin_2)*%
X84698200Y-67794900D03*
%TD*%
D11*
%TO.P,D16,1,A*%
%TO.N,GND*%
X124733400Y-68785500D03*
%TO.P,D16,2,K*%
%TO.N,+3V3*%
X122833400Y-68785500D03*
%TO.P,D16,3,common*%
%TO.N,Net-(D16-common)*%
X123783400Y-70660500D03*
%TD*%
D15*
%TO.P,D19,1,A*%
%TO.N,GND*%
X95813200Y-70939900D03*
%TO.P,D19,2,K*%
%TO.N,Net-(D18-K)*%
X97713200Y-70939900D03*
%TO.P,D19,3,common*%
%TO.N,Net-(D19-common)*%
X96763200Y-69064900D03*
%TD*%
D13*
%TO.P,R34,1*%
%TO.N,Net-(J10-Pin_3)*%
X100912300Y-62280800D03*
%TO.P,R34,2*%
%TO.N,Net-(D21-common)*%
X99087300Y-62280800D03*
%TD*%
D15*
%TO.P,Q6,1,G*%
%TO.N,Net-(Q6-G)*%
X83352600Y-74165700D03*
%TO.P,Q6,2,S*%
%TO.N,GND*%
X85252600Y-74165700D03*
%TO.P,Q6,3,D*%
%TO.N,Net-(D19-common)*%
X84302600Y-72290700D03*
%TD*%
D13*
%TO.P,R7,1*%
%TO.N,Net-(D5-common)*%
X172453300Y-73126600D03*
%TO.P,R7,2*%
%TO.N,Net-(D6-common)*%
X170628300Y-73126600D03*
%TD*%
D18*
%TO.P,C3,1*%
%TO.N,+5V*%
X86283800Y-128600200D03*
%TO.P,C3,2*%
%TO.N,GND*%
X86283800Y-130675200D03*
%TD*%
D12*
%TO.P,R2,1*%
%TO.N,Net-(D1-Pad1)*%
X162373300Y-71221600D03*
%TO.P,R2,2*%
%TO.N,Net-(D5-common)*%
X164198300Y-71221600D03*
%TD*%
D21*
%TO.P,D2,1,K*%
%TO.N,Net-(D2-K)*%
X176620800Y-69706600D03*
%TO.P,D2,2,A*%
%TO.N,GND*%
X176620800Y-74006600D03*
%TD*%
D16*
%TO.P,R41,1*%
%TO.N,Net-(D23-A)*%
X138323000Y-62124100D03*
%TO.P,R41,2*%
%TO.N,+3V3*%
X138323000Y-63949100D03*
%TD*%
D13*
%TO.P,R20,1*%
%TO.N,Net-(D13-common)*%
X133179500Y-73145800D03*
%TO.P,R20,2*%
%TO.N,Net-(D14-common)*%
X131354500Y-73145800D03*
%TD*%
D21*
%TO.P,D12,1,K*%
%TO.N,Net-(D12-K)*%
X141157000Y-69725800D03*
%TO.P,D12,2,A*%
%TO.N,GND*%
X141157000Y-74025800D03*
%TD*%
D12*
%TO.P,R25,1*%
%TO.N,Net-(D13-common)*%
X131009700Y-65475000D03*
%TO.P,R25,2*%
%TO.N,GND*%
X132834700Y-65475000D03*
%TD*%
%TO.P,R18,1*%
%TO.N,Net-(D11-Pad1)*%
X126909500Y-71240800D03*
%TO.P,R18,2*%
%TO.N,Net-(D15-common)*%
X128734500Y-71240800D03*
%TD*%
%TO.P,R30,1*%
%TO.N,Net-(D17-Pad1)*%
X91405700Y-71272400D03*
%TO.P,R30,2*%
%TO.N,Net-(D21-common)*%
X93230700Y-71272400D03*
%TD*%
D10*
%TO.P,J7,1,Pin_1*%
%TO.N,GND*%
X133537000Y-58540800D03*
%TO.P,J7,2,Pin_2*%
%TO.N,Net-(J7-Pin_2)*%
X136037000Y-58540800D03*
%TO.P,J7,3,Pin_3*%
%TO.N,Net-(J7-Pin_3)*%
X138537000Y-58540800D03*
%TO.P,J7,4,Pin_4*%
%TO.N,Net-(J5-Pin_5)*%
X141037000Y-58540800D03*
%TD*%
D12*
%TO.P,R17,1*%
%TO.N,Net-(D11-Pad2)*%
X126909500Y-68065800D03*
%TO.P,R17,2*%
%TO.N,Net-(D13-common)*%
X128734500Y-68065800D03*
%TD*%
D15*
%TO.P,D21,1,A*%
%TO.N,GND*%
X99943200Y-70939900D03*
%TO.P,D21,2,K*%
%TO.N,Net-(D18-K)*%
X101843200Y-70939900D03*
%TO.P,D21,3,common*%
%TO.N,Net-(D21-common)*%
X100893200Y-69064900D03*
%TD*%
D12*
%TO.P,R38,1*%
%TO.N,Net-(D21-common)*%
X99061900Y-65557400D03*
%TO.P,R38,2*%
%TO.N,GND*%
X100886900Y-65557400D03*
%TD*%
D15*
%TO.P,Q5,1,G*%
%TO.N,Net-(Q5-G)*%
X126872000Y-75353300D03*
%TO.P,Q5,2,S*%
%TO.N,GND*%
X128772000Y-75353300D03*
%TO.P,Q5,3,D*%
%TO.N,Net-(D15-common)*%
X127822000Y-73478300D03*
%TD*%
D13*
%TO.P,R31,1*%
%TO.N,Net-(J10-Pin_2)*%
X97356300Y-62280800D03*
%TO.P,R31,2*%
%TO.N,Net-(D19-common)*%
X95531300Y-62280800D03*
%TD*%
D10*
%TO.P,J3,1,Pin_1*%
%TO.N,GND*%
X169000800Y-58521600D03*
%TO.P,J3,2,Pin_2*%
%TO.N,Net-(J3-Pin_2)*%
X171500800Y-58521600D03*
%TO.P,J3,3,Pin_3*%
%TO.N,Net-(J3-Pin_3)*%
X174000800Y-58521600D03*
%TO.P,J3,4,Pin_4*%
%TO.N,Net-(J1-Pin_5)*%
X176500800Y-58521600D03*
%TD*%
D16*
%TO.P,R36,1*%
%TO.N,Net-(D22-common)*%
X88468200Y-72544300D03*
%TO.P,R36,2*%
%TO.N,/CPU/DC1_RX*%
X88468200Y-74369300D03*
%TD*%
%TO.P,R21,1*%
%TO.N,Net-(D14-common)*%
X122448000Y-72512700D03*
%TO.P,R21,2*%
%TO.N,/CPU/DB1_RX*%
X122448000Y-74337700D03*
%TD*%
D13*
%TO.P,R23,1*%
%TO.N,Net-(D15-common)*%
X136989500Y-73145800D03*
%TO.P,R23,2*%
%TO.N,Net-(D16-common)*%
X135164500Y-73145800D03*
%TD*%
D12*
%TO.P,R40,1*%
%TO.N,Net-(Q7-G)*%
X91467300Y-77673200D03*
%TO.P,R40,2*%
%TO.N,/CPU/{slash}DC1_TX*%
X93292300Y-77673200D03*
%TD*%
D13*
%TO.P,R3,1*%
%TO.N,Net-(J3-Pin_2)*%
X168323900Y-62230000D03*
%TO.P,R3,2*%
%TO.N,Net-(D3-common)*%
X166498900Y-62230000D03*
%TD*%
D15*
%TO.P,D11,1*%
%TO.N,Net-(D11-Pad1)*%
X119252000Y-69638300D03*
%TO.P,D11,2*%
%TO.N,Net-(D11-Pad2)*%
X121152000Y-69638300D03*
%TO.P,D11,3*%
%TO.N,Net-(J5-Pin_2)*%
X120202000Y-67763300D03*
%TD*%
D13*
%TO.P,R6,1*%
%TO.N,Net-(J3-Pin_3)*%
X171879900Y-62230000D03*
%TO.P,R6,2*%
%TO.N,Net-(D5-common)*%
X170054900Y-62230000D03*
%TD*%
D15*
%TO.P,D5,1,A*%
%TO.N,GND*%
X170910800Y-70889100D03*
%TO.P,D5,2,K*%
%TO.N,Net-(D2-K)*%
X172810800Y-70889100D03*
%TO.P,D5,3,common*%
%TO.N,Net-(D5-common)*%
X171860800Y-69014100D03*
%TD*%
D16*
%TO.P,R42,1*%
%TO.N,Net-(D24-A)*%
X102819200Y-62155700D03*
%TO.P,R42,2*%
%TO.N,+3V3*%
X102819200Y-63980700D03*
%TD*%
D22*
%TO.P,R14,1*%
%TO.N,Net-(D9-A)*%
X84074000Y-125651900D03*
%TO.P,R14,2*%
%TO.N,+5V*%
X84074000Y-123826900D03*
%TD*%
D21*
%TO.P,D18,1,K*%
%TO.N,Net-(D18-K)*%
X105653200Y-69757400D03*
%TO.P,D18,2,A*%
%TO.N,GND*%
X105653200Y-74057400D03*
%TD*%
D13*
%TO.P,R4,1*%
%TO.N,Net-(D3-common)*%
X168643300Y-73126600D03*
%TO.P,R4,2*%
%TO.N,Net-(D4-common)*%
X166818300Y-73126600D03*
%TD*%
D15*
%TO.P,D15,1,A*%
%TO.N,GND*%
X135447000Y-70908300D03*
%TO.P,D15,2,K*%
%TO.N,Net-(D12-K)*%
X137347000Y-70908300D03*
%TO.P,D15,3,common*%
%TO.N,Net-(D15-common)*%
X136397000Y-69033300D03*
%TD*%
D12*
%TO.P,R37,1*%
%TO.N,Net-(D19-common)*%
X95505900Y-65506600D03*
%TO.P,R37,2*%
%TO.N,GND*%
X97330900Y-65506600D03*
%TD*%
D20*
%TO.P,U1,1,GPIO0_TX0_SDA0_MISO0*%
%TO.N,/CPU/ACTIVE_A*%
X114579400Y-131927600D03*
D23*
X115479400Y-131927600D03*
D20*
%TO.P,U1,2,GPIO1_RX0_SCL0_CS0*%
%TO.N,/CPU/{slash}DA1_TX*%
X114579400Y-129387600D03*
D23*
X115479400Y-129387600D03*
D19*
%TO.P,U1,3,GND*%
%TO.N,GND*%
X114579400Y-126847600D03*
D23*
X115479400Y-126847600D03*
D20*
%TO.P,U1,4,GPIO2_SCK0*%
%TO.N,/CPU/DA1_RX*%
X114579400Y-124307600D03*
D23*
X115479400Y-124307600D03*
D20*
%TO.P,U1,5,GPIO3_MOSI0*%
%TO.N,/CPU/DA0_RX*%
X114579400Y-121767600D03*
D23*
X115479400Y-121767600D03*
D20*
%TO.P,U1,6,GPIO4_TX1_MISO0*%
%TO.N,/CPU/{slash}DA0_TX*%
X114579400Y-119227600D03*
D23*
X115479400Y-119227600D03*
D20*
%TO.P,U1,7,GPIO5_RX1_CS0*%
%TO.N,/CPU/ACTIVE_B*%
X114579400Y-116687600D03*
D23*
X115479400Y-116687600D03*
D19*
%TO.P,U1,8,GND*%
%TO.N,GND*%
X114579400Y-114147600D03*
D23*
X115479400Y-114147600D03*
D20*
%TO.P,U1,9,GPIO6_SCK0*%
%TO.N,/CPU/DB0_RX*%
X114579400Y-111607600D03*
D23*
X115479400Y-111607600D03*
D20*
%TO.P,U1,10,GPIO7_MOSI0*%
%TO.N,/CPU/{slash}DB1_TX*%
X114579400Y-109067600D03*
D23*
X115479400Y-109067600D03*
D20*
%TO.P,U1,11,GPIO8*%
%TO.N,/CPU/DB1_RX*%
X114579400Y-106527600D03*
D23*
X115479400Y-106527600D03*
D20*
%TO.P,U1,12,GPIO9*%
%TO.N,/CPU/{slash}DB0_TX*%
X114579400Y-103987600D03*
D23*
X115479400Y-103987600D03*
D19*
%TO.P,U1,13,GND*%
%TO.N,GND*%
X114579400Y-101447600D03*
D23*
X115479400Y-101447600D03*
D20*
%TO.P,U1,14,GPIO10*%
%TO.N,unconnected-(U1-GPIO10-Pad14)*%
X114579400Y-98907600D03*
D23*
%TO.N,unconnected-(U1-GPIO10-Pad14)_1*%
X115479400Y-98907600D03*
D20*
%TO.P,U1,15,GPIO11*%
%TO.N,/CPU/{slash}DC0_TX*%
X114579400Y-96367600D03*
D23*
X115479400Y-96367600D03*
D20*
%TO.P,U1,16,GPIO12/UART0TX*%
%TO.N,/CPU/DC0_RX*%
X114579400Y-93827600D03*
D23*
X115479400Y-93827600D03*
D20*
%TO.P,U1,17,GPIO13/UART0RX*%
%TO.N,/CPU/DC1_RX*%
X114579400Y-91287600D03*
D23*
X115479400Y-91287600D03*
D19*
%TO.P,U1,18,GND*%
%TO.N,GND*%
X114579400Y-88747600D03*
D23*
X115479400Y-88747600D03*
D20*
%TO.P,U1,19,GPIO14/I2C1SDA*%
%TO.N,/CPU/{slash}DC1_TX*%
X114579400Y-86207600D03*
D23*
X115479400Y-86207600D03*
D20*
%TO.P,U1,20,GPIO15/I2C1SCL*%
%TO.N,/CPU/ACTIVE_C*%
X114579400Y-83667600D03*
D23*
X115479400Y-83667600D03*
D20*
%TO.P,U1,21,GPIO16_TX0_SDA0*%
%TO.N,SDA0*%
X96799400Y-83667600D03*
D23*
X95899400Y-83667600D03*
D20*
%TO.P,U1,22,GPIO17_RX0_SCL0*%
%TO.N,SCL0*%
X96799400Y-86207600D03*
D23*
X95899400Y-86207600D03*
D19*
%TO.P,U1,23,GND*%
%TO.N,GND*%
X96799400Y-88747600D03*
D23*
X95899400Y-88747600D03*
D20*
%TO.P,U1,24,GPIO18*%
%TO.N,SD_CS*%
X96799400Y-91287600D03*
D23*
X95899400Y-91287600D03*
D20*
%TO.P,U1,25,GPIO19*%
%TO.N,CTP_INT*%
X96799400Y-93827600D03*
D23*
X95899400Y-93827600D03*
D20*
%TO.P,U1,26,GPIO20*%
%TO.N,LCD_RS*%
X96799400Y-96367600D03*
D23*
X95899400Y-96367600D03*
D20*
%TO.P,U1,27,GPIO21*%
%TO.N,LCD_RST*%
X96799400Y-98907600D03*
D23*
X95899400Y-98907600D03*
D19*
%TO.P,U1,28,GND*%
%TO.N,GND*%
X96799400Y-101447600D03*
D23*
X95899400Y-101447600D03*
D20*
%TO.P,U1,29,GPIO22*%
%TO.N,LCD_CS*%
X96799400Y-103987600D03*
D23*
X95899400Y-103987600D03*
D20*
%TO.P,U1,30,RUN*%
%TO.N,unconnected-(U1-RUN-Pad30)_1*%
X96799400Y-106527600D03*
D23*
%TO.N,unconnected-(U1-RUN-Pad30)*%
X95899400Y-106527600D03*
D20*
%TO.P,U1,31,GPIO26_ADC0*%
%TO.N,LCD_SCK*%
X96799400Y-109067600D03*
D23*
X95899400Y-109067600D03*
D20*
%TO.P,U1,32,GPIO27_ADC1*%
%TO.N,LCD_MOSI*%
X96799400Y-111607600D03*
D23*
X95899400Y-111607600D03*
D19*
%TO.P,U1,33,AGND*%
%TO.N,GND*%
X96799400Y-114147600D03*
D23*
X95899400Y-114147600D03*
D20*
%TO.P,U1,34,GPIO28_ADC2*%
%TO.N,LCD_MISO*%
X96799400Y-116687600D03*
D23*
X95899400Y-116687600D03*
D20*
%TO.P,U1,35,ADC_VREF*%
%TO.N,+3V3*%
X96799400Y-119227600D03*
D23*
X95899400Y-119227600D03*
D20*
%TO.P,U1,36,3V3*%
X96799400Y-121767600D03*
D23*
X95899400Y-121767600D03*
D20*
%TO.P,U1,37,3V3_EN*%
%TO.N,unconnected-(U1-3V3_EN-Pad37)_1*%
X96799400Y-124307600D03*
D23*
%TO.N,unconnected-(U1-3V3_EN-Pad37)*%
X95899400Y-124307600D03*
D19*
%TO.P,U1,38,GND*%
%TO.N,GND*%
X96799400Y-126847600D03*
D23*
X95899400Y-126847600D03*
D20*
%TO.P,U1,39,VSYS*%
%TO.N,+5V*%
X96799400Y-129387600D03*
D23*
X95899400Y-129387600D03*
D20*
%TO.P,U1,40,VBUS*%
%TO.N,unconnected-(U1-VBUS-Pad40)*%
X96799400Y-131927600D03*
D23*
%TO.N,unconnected-(U1-VBUS-Pad40)_1*%
X95899400Y-131927600D03*
%TD*%
D12*
%TO.P,R26,1*%
%TO.N,Net-(D15-common)*%
X134565700Y-65525800D03*
%TO.P,R26,2*%
%TO.N,GND*%
X136390700Y-65525800D03*
%TD*%
D16*
%TO.P,R33,1*%
%TO.N,Net-(D20-common)*%
X86944200Y-72544300D03*
%TO.P,R33,2*%
%TO.N,/CPU/DC0_RX*%
X86944200Y-74369300D03*
%TD*%
%TO.P,R11,1*%
%TO.N,Net-(Q1-G)*%
X152298400Y-76913100D03*
%TO.P,R11,2*%
%TO.N,/CPU/{slash}DA0_TX*%
X152298400Y-78738100D03*
%TD*%
D15*
%TO.P,D13,1,A*%
%TO.N,GND*%
X131317000Y-70908300D03*
%TO.P,D13,2,K*%
%TO.N,Net-(D12-K)*%
X133217000Y-70908300D03*
%TO.P,D13,3,common*%
%TO.N,Net-(D13-common)*%
X132267000Y-69033300D03*
%TD*%
D12*
%TO.P,R39,1*%
%TO.N,Net-(Q6-G)*%
X83390100Y-76250800D03*
%TO.P,R39,2*%
%TO.N,/CPU/{slash}DC0_TX*%
X85215100Y-76250800D03*
%TD*%
D13*
%TO.P,R22,1*%
%TO.N,Net-(J7-Pin_3)*%
X136416100Y-62249200D03*
%TO.P,R22,2*%
%TO.N,Net-(D15-common)*%
X134591100Y-62249200D03*
%TD*%
D19*
%TO.P,J5,1,Pin_1*%
%TO.N,+5V*%
X118149600Y-64770000D03*
D20*
%TO.P,J5,2,Pin_2*%
%TO.N,Net-(J5-Pin_2)*%
X120689600Y-64770000D03*
%TO.P,J5,3,Pin_3*%
%TO.N,+3V3*%
X123229600Y-64770000D03*
%TO.P,J5,4,Pin_4*%
%TO.N,Net-(J5-Pin_2)*%
X125769600Y-64770000D03*
%TO.P,J5,5,Pin_5*%
%TO.N,Net-(J5-Pin_5)*%
X128309600Y-64770000D03*
%TD*%
D19*
%TO.P,J8,1,Pin_1*%
%TO.N,+5V*%
X82645800Y-64801600D03*
D20*
%TO.P,J8,2,Pin_2*%
%TO.N,Net-(J8-Pin_2)*%
X85185800Y-64801600D03*
%TO.P,J8,3,Pin_3*%
%TO.N,+3V3*%
X87725800Y-64801600D03*
%TO.P,J8,4,Pin_4*%
%TO.N,Net-(J8-Pin_2)*%
X90265800Y-64801600D03*
%TO.P,J8,5,Pin_5*%
%TO.N,Net-(J10-Pin_4)*%
X92805800Y-64801600D03*
%TD*%
D13*
%TO.P,R28,1*%
%TO.N,Net-(Q5-G)*%
X124873700Y-76149200D03*
%TO.P,R28,2*%
%TO.N,/CPU/{slash}DB1_TX*%
X123048700Y-76149200D03*
%TD*%
D24*
%TO.P,J4,1,Pin_1*%
%TO.N,SD_CS*%
X76327000Y-75336400D03*
D25*
%TO.P,J4,2,Pin_2*%
%TO.N,CTP_INT*%
X76327000Y-77876400D03*
%TO.P,J4,3,Pin_3*%
%TO.N,SDA0*%
X76327000Y-80416400D03*
%TO.P,J4,4,Pin_4*%
%TO.N,LCD_RST*%
X76327000Y-82956400D03*
%TO.P,J4,5,Pin_5*%
%TO.N,SCL0*%
X76327000Y-85496400D03*
%TO.P,J4,6,Pin_6*%
%TO.N,LCD_MISO*%
X76327000Y-88036400D03*
%TO.P,J4,7,Pin_7*%
%TO.N,unconnected-(J4-Pin_7-Pad7)*%
X76327000Y-90576400D03*
%TO.P,J4,8,Pin_8*%
%TO.N,LCD_SCK*%
X76327000Y-93116400D03*
%TO.P,J4,9,Pin_9*%
%TO.N,LCD_MOSI*%
X76327000Y-95656400D03*
%TO.P,J4,10,Pin_10*%
%TO.N,LCD_RS*%
X76327000Y-98196400D03*
%TO.P,J4,11,Pin_11*%
%TO.N,LCD_RST*%
X76327000Y-100736400D03*
%TO.P,J4,12,Pin_12*%
%TO.N,LCD_CS*%
X76327000Y-103276400D03*
%TO.P,J4,13,Pin_13*%
%TO.N,GND*%
X76327000Y-105816400D03*
%TO.P,J4,14,Pin_14*%
%TO.N,+3V3*%
X76327000Y-108356400D03*
%TD*%
D26*
%TO.N,+5V*%
X82645800Y-55428600D03*
X153593800Y-55295800D03*
X118104600Y-54457600D03*
X74066400Y-68351400D03*
%TO.N,GND*%
X174574200Y-73990200D03*
D27*
X130195000Y-70910600D03*
X86156800Y-75184000D03*
D26*
X145435000Y-58801000D03*
D27*
X169799000Y-70256400D03*
X156819600Y-75184000D03*
D26*
X86334600Y-132003800D03*
D27*
X124251400Y-67380000D03*
X159715200Y-67360800D03*
X171856400Y-66725800D03*
D26*
X149809200Y-59537600D03*
D27*
X129737800Y-75152400D03*
X88315800Y-113385600D03*
X88747600Y-67411600D03*
X152577800Y-67691000D03*
X98831400Y-70307200D03*
X117114000Y-67710200D03*
D26*
X103606600Y-74041000D03*
D27*
X100888800Y-66776600D03*
X134335200Y-70275600D03*
X88392000Y-132003800D03*
X168300400Y-66497200D03*
X132836600Y-66516400D03*
D26*
X139110400Y-74009400D03*
D27*
X136392600Y-66745000D03*
X121355800Y-75203200D03*
X97332800Y-66548000D03*
X165201600Y-75133200D03*
X94691200Y-70942200D03*
X94234000Y-75184000D03*
X165658800Y-70891400D03*
X81610200Y-67741800D03*
D26*
%TO.N,+3V3*%
X122833400Y-67291400D03*
X142641000Y-63982600D03*
X142691800Y-53543200D03*
X107848400Y-53416200D03*
X87477600Y-67175000D03*
X87745400Y-53416200D03*
X123184600Y-53390800D03*
X158445200Y-67124200D03*
X107823000Y-63906400D03*
X75387200Y-70459600D03*
D27*
%TO.N,Net-(D4-common)*%
X156921200Y-72618600D03*
X165049200Y-72618600D03*
X153593800Y-71831200D03*
%TO.N,Net-(D1-Pad1)*%
X155651200Y-70053200D03*
X162356800Y-70128003D03*
%TO.N,Net-(D2-K)*%
X173913800Y-70889100D03*
X169773600Y-71983600D03*
%TO.N,/CPU/DB0_RX*%
X125113839Y-74838426D03*
X126568200Y-76784200D03*
%TO.N,Net-(D6-common)*%
X161417000Y-73380600D03*
X165252400Y-73380600D03*
%TO.N,Net-(D7-A)*%
X173786800Y-60731400D03*
%TO.N,Net-(D14-common)*%
X118130000Y-71850400D03*
X121457400Y-72637800D03*
X129585400Y-72637800D03*
%TO.N,Net-(D9-A)*%
X82651600Y-126542800D03*
%TO.N,Net-(D11-Pad1)*%
X120187400Y-70072400D03*
X126893000Y-70147203D03*
%TO.N,Net-(D12-K)*%
X134309800Y-72002800D03*
X138450000Y-70908300D03*
%TO.N,Net-(D13-common)*%
X120187400Y-70910600D03*
X125673800Y-70758200D03*
%TO.N,Net-(J1-Pin_5)*%
X163773400Y-57841600D03*
%TO.N,Net-(D17-Pad1)*%
X91389200Y-70178803D03*
X84683600Y-70104000D03*
%TO.N,Net-(D18-K)*%
X102946200Y-70939900D03*
X98806000Y-72034400D03*
%TO.N,Net-(D19-common)*%
X84683600Y-70942200D03*
X90170000Y-70789800D03*
%TO.N,Net-(D21-common)*%
X98018600Y-68046600D03*
X94361000Y-69189600D03*
D26*
%TO.N,LCD_MOSI*%
X78257400Y-111175800D03*
D27*
%TO.N,Net-(D16-common)*%
X129788600Y-73399800D03*
X125953200Y-73399800D03*
%TO.N,Net-(D3-common)*%
X155651200Y-70891400D03*
X161137600Y-70739000D03*
%TO.N,Net-(D5-common)*%
X165328600Y-69138800D03*
X168986200Y-67995800D03*
%TO.N,Net-(D20-common)*%
X85775800Y-72186800D03*
X94081600Y-72669400D03*
X82626200Y-71882000D03*
%TO.N,Net-(D22-common)*%
X94284800Y-73431400D03*
X90449400Y-73431400D03*
%TO.N,Net-(D15-common)*%
X133522400Y-68015000D03*
X129864800Y-69158000D03*
%TO.N,Net-(J5-Pin_5)*%
X128309600Y-57860800D03*
%TO.N,CTP_INT*%
X83464400Y-87122000D03*
X83464400Y-82931000D03*
%TO.N,Net-(J10-Pin_4)*%
X92805800Y-57892400D03*
D26*
%TO.N,LCD_MISO*%
X76225400Y-111633000D03*
D27*
%TO.N,/CPU/ACTIVE_A*%
X173736000Y-65278000D03*
%TO.N,Net-(D23-A)*%
X138323000Y-60750600D03*
%TO.N,/CPU/ACTIVE_B*%
X138272200Y-65455800D03*
%TO.N,Net-(D24-A)*%
X102819200Y-60782200D03*
%TO.N,/CPU/ACTIVE_C*%
X102819200Y-65430400D03*
%TO.N,SD_CS*%
X84683600Y-87122000D03*
X84709000Y-83007200D03*
%TD*%
D28*
%TO.N,+5V*%
X71145400Y-71272400D02*
X74066400Y-68351400D01*
X93011986Y-129438400D02*
X89571693Y-125998107D01*
D29*
X84074000Y-123826900D02*
X84074000Y-122758200D01*
X82645800Y-55428600D02*
X83515200Y-54559200D01*
D28*
X96748600Y-129438400D02*
X93011986Y-129438400D01*
D29*
X84074000Y-122758200D02*
X85202893Y-121629307D01*
D30*
X88366600Y-128578700D02*
X86305300Y-128578700D01*
X88366600Y-128578700D02*
X88366600Y-127203200D01*
D28*
X79676986Y-116103400D02*
X74904600Y-116103400D01*
D29*
X149822000Y-56032400D02*
X149822000Y-54521000D01*
X149860000Y-54483000D02*
X149961600Y-54483000D01*
X149961600Y-54483000D02*
X152781000Y-54483000D01*
D30*
X86305300Y-128578700D02*
X86283800Y-128600200D01*
D29*
X83515200Y-54559200D02*
X118003000Y-54559200D01*
D28*
X85202893Y-121629307D02*
X79676986Y-116103400D01*
X89571693Y-125998107D02*
X85202893Y-121629307D01*
X71145400Y-112344200D02*
X71145400Y-71272400D01*
D29*
X152781000Y-54483000D02*
X153613400Y-55315400D01*
X149936200Y-54457600D02*
X149961600Y-54483000D01*
X118003000Y-54559200D02*
X118104600Y-54457600D01*
X118104600Y-54457600D02*
X149936200Y-54457600D01*
D28*
X96799400Y-129387600D02*
X96748600Y-129438400D01*
D30*
X88366600Y-127203200D02*
X89571693Y-125998107D01*
D29*
X149822000Y-54521000D02*
X149860000Y-54483000D01*
D28*
X74904600Y-116103400D02*
X71145400Y-112344200D01*
D30*
%TO.N,GND*%
X88366600Y-131978400D02*
X88392000Y-132003800D01*
D31*
X134967900Y-70908300D02*
X135447000Y-70908300D01*
X85252600Y-74279800D02*
X85252600Y-74165700D01*
X98831400Y-70307200D02*
X99464100Y-70939900D01*
X169799000Y-70256400D02*
X170431700Y-70889100D01*
X152576700Y-67692100D02*
X152577800Y-67691000D01*
X171856400Y-65508500D02*
X171854500Y-65506600D01*
X120564500Y-74134100D02*
X120564500Y-74411900D01*
X130195000Y-70910600D02*
X130474400Y-70910600D01*
D29*
X139126800Y-74025800D02*
X139110400Y-74009400D01*
D30*
X86283800Y-131953000D02*
X86334600Y-132003800D01*
D29*
X141157000Y-74025800D02*
X139126800Y-74025800D01*
D31*
X160197200Y-67842800D02*
X160197200Y-68766300D01*
X171856400Y-66725800D02*
X171856400Y-65508500D01*
D30*
X145409600Y-60125700D02*
X145409600Y-58826400D01*
D31*
X152576700Y-69217300D02*
X152576700Y-67692100D01*
D29*
X141140600Y-74009400D02*
X141157000Y-74025800D01*
D30*
X86283800Y-130675200D02*
X86283800Y-131953000D01*
D29*
X174590600Y-74006600D02*
X174574200Y-73990200D01*
X105636800Y-74041000D02*
X105653200Y-74057400D01*
D31*
X97332800Y-66548000D02*
X97332800Y-65508500D01*
X170431700Y-70889100D02*
X170910800Y-70889100D01*
X129536900Y-75353300D02*
X129737800Y-75152400D01*
D29*
X176604400Y-73990200D02*
X176620800Y-74006600D01*
D31*
X130476700Y-70908300D02*
X131317000Y-70908300D01*
X81609100Y-69268100D02*
X81609100Y-67742900D01*
X165940500Y-70889100D02*
X166780800Y-70889100D01*
X124251400Y-67380000D02*
X124733400Y-67862000D01*
X89229600Y-67893600D02*
X89229600Y-68817100D01*
X120564500Y-74411900D02*
X121355800Y-75203200D01*
X168300400Y-65457700D02*
X168298500Y-65455800D01*
X128772000Y-75353300D02*
X129536900Y-75353300D01*
X88747600Y-67411600D02*
X89229600Y-67893600D01*
X81609100Y-67742900D02*
X81610200Y-67741800D01*
X156028300Y-74114900D02*
X156028300Y-74392700D01*
X124733400Y-67862000D02*
X124733400Y-68785500D01*
X168300400Y-66497200D02*
X168300400Y-65457700D01*
X100888800Y-65559300D02*
X100886900Y-65557400D01*
D29*
X176620800Y-74006600D02*
X174590600Y-74006600D01*
D31*
X94691200Y-70942200D02*
X94970600Y-70942200D01*
X94970600Y-70942200D02*
X94972900Y-70939900D01*
X94033100Y-75384900D02*
X94234000Y-75184000D01*
X136392600Y-66745000D02*
X136392600Y-65527700D01*
X159715200Y-67360800D02*
X160197200Y-67842800D01*
X117112900Y-67711300D02*
X117114000Y-67710200D01*
X117112900Y-69236500D02*
X117112900Y-67711300D01*
D30*
X149822000Y-59524800D02*
X149809200Y-59537600D01*
X88341200Y-113411000D02*
X88315800Y-113385600D01*
X149822000Y-58107400D02*
X149822000Y-59524800D01*
D31*
X164235800Y-75334100D02*
X165000700Y-75334100D01*
X136392600Y-65527700D02*
X136390700Y-65525800D01*
D30*
X145409600Y-58826400D02*
X145435000Y-58801000D01*
D31*
X165658800Y-70891400D02*
X165938200Y-70891400D01*
X132836600Y-65476900D02*
X132834700Y-65475000D01*
X97332800Y-65508500D02*
X97330900Y-65506600D01*
X134335200Y-70275600D02*
X134967900Y-70908300D01*
X100888800Y-66776600D02*
X100888800Y-65559300D01*
X132836600Y-66516400D02*
X132836600Y-65476900D01*
X86156800Y-75184000D02*
X85252600Y-74279800D01*
D29*
X105653200Y-74057400D02*
X103623000Y-74057400D01*
D31*
X165000700Y-75334100D02*
X165201600Y-75133200D01*
X156028300Y-74392700D02*
X156819600Y-75184000D01*
X93268200Y-75384900D02*
X94033100Y-75384900D01*
X99464100Y-70939900D02*
X99943200Y-70939900D01*
D30*
X88366600Y-130653700D02*
X88366600Y-131978400D01*
D31*
X94972900Y-70939900D02*
X95813200Y-70939900D01*
X165938200Y-70891400D02*
X165940500Y-70889100D01*
D29*
X103623000Y-74057400D02*
X103606600Y-74041000D01*
D31*
X130474400Y-70910600D02*
X130476700Y-70908300D01*
D30*
X88341200Y-115091300D02*
X88341200Y-113411000D01*
D29*
%TO.N,+3V3*%
X81508600Y-62534800D02*
X86817200Y-62534800D01*
X116504400Y-62433200D02*
X122321000Y-62433200D01*
X178435000Y-53568600D02*
X158673800Y-53568600D01*
X178587400Y-60325000D02*
X179197000Y-59715400D01*
X107873800Y-53390800D02*
X107848400Y-53416200D01*
X107748700Y-63980700D02*
X107823000Y-63906400D01*
D28*
X73177400Y-107899200D02*
X73177400Y-72669400D01*
D29*
X123337000Y-53543200D02*
X123184600Y-53390800D01*
D28*
X73583800Y-108305600D02*
X73177400Y-107899200D01*
X73177400Y-72669400D02*
X75387200Y-70459600D01*
D29*
X115212900Y-69236500D02*
X115212900Y-63724700D01*
X158693400Y-62839600D02*
X158693400Y-53588200D01*
X80594200Y-63449200D02*
X81508600Y-62534800D01*
X87329600Y-67323000D02*
X87329600Y-68817100D01*
X79709100Y-68322100D02*
X80594200Y-67437000D01*
X123184600Y-53390800D02*
X107873800Y-53390800D01*
X92278200Y-119507000D02*
X92278200Y-121716800D01*
X150676700Y-64131100D02*
X151968200Y-62839600D01*
X138323000Y-63949100D02*
X142607500Y-63949100D01*
X175183800Y-63398400D02*
X175183800Y-61290200D01*
D28*
X87579200Y-119811800D02*
X81584800Y-113817400D01*
D29*
X176098200Y-60375800D02*
X176098200Y-60325000D01*
X158693400Y-64750800D02*
X158693400Y-62839600D01*
X87725800Y-63443400D02*
X87725800Y-64801600D01*
X80594200Y-67437000D02*
X80594200Y-63449200D01*
X92557600Y-119227600D02*
X92278200Y-119507000D01*
X107848400Y-53416200D02*
X87745400Y-53416200D01*
D28*
X92252800Y-121742200D02*
X89509600Y-121742200D01*
D29*
X179197000Y-59715400D02*
X179197000Y-54330600D01*
D28*
X73583800Y-111810800D02*
X73583800Y-108305600D01*
D29*
X176098200Y-60325000D02*
X178587400Y-60325000D01*
X142691800Y-53543200D02*
X123337000Y-53543200D01*
X87706200Y-53416200D02*
X87745400Y-53416200D01*
X122833400Y-67291400D02*
X122833400Y-68785500D01*
X151968200Y-62839600D02*
X158693400Y-62839600D01*
X142641000Y-63982600D02*
X142641000Y-63068200D01*
X142717200Y-53568600D02*
X142691800Y-53543200D01*
X158445200Y-67124200D02*
X158297200Y-67272200D01*
X115212900Y-63724700D02*
X116504400Y-62433200D01*
X179197000Y-54330600D02*
X178435000Y-53568600D01*
D28*
X75590400Y-113817400D02*
X73583800Y-111810800D01*
D29*
X158673800Y-53568600D02*
X142717200Y-53568600D01*
X158297200Y-67272200D02*
X158297200Y-68766300D01*
X174652300Y-63929900D02*
X175183800Y-63398400D01*
X79709100Y-69268100D02*
X79709100Y-68322100D01*
X122321000Y-62433200D02*
X123229600Y-63341800D01*
D28*
X89509600Y-121742200D02*
X87579200Y-119811800D01*
D30*
X88341200Y-119049800D02*
X87579200Y-119811800D01*
D29*
X102819200Y-63980700D02*
X107748700Y-63980700D01*
X150676700Y-69217300D02*
X150676700Y-64131100D01*
X158693400Y-53588200D02*
X158673800Y-53568600D01*
X142641000Y-63068200D02*
X143508500Y-62200700D01*
D28*
X73583800Y-108305600D02*
X74345800Y-108305600D01*
X74345800Y-108305600D02*
X74396600Y-108356400D01*
D29*
X87477600Y-67175000D02*
X87329600Y-67323000D01*
X175183800Y-61290200D02*
X176098200Y-60375800D01*
X96799400Y-119227600D02*
X92557600Y-119227600D01*
X173786800Y-63929900D02*
X174652300Y-63929900D01*
D28*
X74396600Y-108356400D02*
X76327000Y-108356400D01*
D29*
X86817200Y-62534800D02*
X87725800Y-63443400D01*
D28*
X81584800Y-113817400D02*
X75590400Y-113817400D01*
X96774000Y-121742200D02*
X92252800Y-121742200D01*
D29*
X143508500Y-62200700D02*
X145409600Y-62200700D01*
D28*
X96799400Y-121767600D02*
X96774000Y-121742200D01*
D30*
X88341200Y-117166300D02*
X88341200Y-119049800D01*
D29*
X123229600Y-63341800D02*
X123229600Y-64770000D01*
X92278200Y-121716800D02*
X92252800Y-121742200D01*
X142607500Y-63949100D02*
X142641000Y-63982600D01*
D31*
%TO.N,Net-(D4-common)*%
X157046300Y-72493500D02*
X157911800Y-72493500D01*
X152854900Y-71092300D02*
X151626700Y-71092300D01*
X156921200Y-72618600D02*
X157046300Y-72493500D01*
X153593800Y-71831200D02*
X152854900Y-71092300D01*
X165354000Y-72618600D02*
X165862000Y-73126600D01*
X165049200Y-72618600D02*
X165354000Y-72618600D01*
X165862000Y-73126600D02*
X166818300Y-73126600D01*
%TO.N,Net-(D1-Pad1)*%
X155651200Y-70053200D02*
X155217100Y-69619100D01*
X162356800Y-70553600D02*
X162373300Y-70570100D01*
X155217100Y-69619100D02*
X154715800Y-69619100D01*
X162356800Y-70128003D02*
X162356800Y-70553600D01*
X162373300Y-70570100D02*
X162373300Y-71221600D01*
%TO.N,Net-(D1-Pad2)*%
X157911800Y-66319400D02*
X159461200Y-66319400D01*
X159461200Y-66319400D02*
X161188400Y-68046600D01*
X156615800Y-69619100D02*
X156615800Y-67615400D01*
X156615800Y-67615400D02*
X157911800Y-66319400D01*
X161188400Y-68046600D02*
X162373300Y-68046600D01*
D29*
%TO.N,Net-(D2-K)*%
X173913800Y-70889100D02*
X172810800Y-70889100D01*
X169468800Y-70942200D02*
X169773600Y-71247000D01*
X174167800Y-70866000D02*
X174144700Y-70889100D01*
X175581200Y-69706600D02*
X174421800Y-70866000D01*
X168680800Y-70889100D02*
X169415700Y-70889100D01*
X169415700Y-70889100D02*
X169468800Y-70942200D01*
X176620800Y-69706600D02*
X175581200Y-69706600D01*
X174144700Y-70889100D02*
X173913800Y-70889100D01*
X169773600Y-71247000D02*
X169773600Y-71983600D01*
X174421800Y-70866000D02*
X174167800Y-70866000D01*
D31*
%TO.N,/CPU/DB1_RX*%
X114528600Y-106705400D02*
X118389400Y-106705400D01*
X122580400Y-102514400D02*
X122580400Y-77825600D01*
X122580400Y-77825600D02*
X122047000Y-77292200D01*
X122047000Y-77292200D02*
X122047000Y-77165200D01*
X122041600Y-77159800D02*
X122041600Y-75412600D01*
X122448000Y-75006200D02*
X122448000Y-74337700D01*
X118389400Y-106705400D02*
X122580400Y-102514400D01*
X122047000Y-77165200D02*
X122041600Y-77159800D01*
X122041600Y-75412600D02*
X122448000Y-75006200D01*
%TO.N,/CPU/DB0_RX*%
X119430800Y-111582200D02*
X114604800Y-111582200D01*
X124472726Y-74838426D02*
X123972000Y-74337700D01*
X126568200Y-77266800D02*
X127838200Y-78536800D01*
X127838200Y-103174800D02*
X119430800Y-111582200D01*
X126568200Y-76784200D02*
X126568200Y-77266800D01*
X114604800Y-111582200D02*
X114579400Y-111607600D01*
X127838200Y-78536800D02*
X127838200Y-103174800D01*
X125113839Y-74838426D02*
X124472726Y-74838426D01*
%TO.N,Net-(D6-common)*%
X165252400Y-73380600D02*
X165252400Y-73812400D01*
X160322900Y-73380600D02*
X159435800Y-72493500D01*
X159247200Y-70641300D02*
X159247200Y-71591800D01*
X159247200Y-71591800D02*
X159435800Y-71780400D01*
X159435800Y-71780400D02*
X159435800Y-72493500D01*
X169799000Y-74295000D02*
X170628300Y-73465700D01*
X161417000Y-73380600D02*
X160322900Y-73380600D01*
X170628300Y-73465700D02*
X170628300Y-73126600D01*
X165735000Y-74295000D02*
X169799000Y-74295000D01*
X165252400Y-73812400D02*
X165735000Y-74295000D01*
%TO.N,Net-(D7-A)*%
X173786800Y-62104900D02*
X173786800Y-60731400D01*
%TO.N,Net-(D14-common)*%
X129890200Y-72637800D02*
X130398200Y-73145800D01*
X121582500Y-72512700D02*
X122448000Y-72512700D01*
X130398200Y-73145800D02*
X131354500Y-73145800D01*
X129585400Y-72637800D02*
X129890200Y-72637800D01*
X118130000Y-71850400D02*
X117391100Y-71111500D01*
X117391100Y-71111500D02*
X116162900Y-71111500D01*
X121457400Y-72637800D02*
X121582500Y-72512700D01*
%TO.N,Net-(D9-A)*%
X84074000Y-125651900D02*
X83542500Y-125651900D01*
X83542500Y-125651900D02*
X82651600Y-126542800D01*
%TO.N,Net-(D11-Pad2)*%
X121152000Y-69638300D02*
X121152000Y-67634600D01*
X124130600Y-66471800D02*
X125724600Y-68065800D01*
X122314800Y-66471800D02*
X124130600Y-66471800D01*
X125724600Y-68065800D02*
X126909500Y-68065800D01*
X121152000Y-67634600D02*
X122314800Y-66471800D01*
%TO.N,Net-(D11-Pad1)*%
X119753300Y-69638300D02*
X119252000Y-69638300D01*
X120187400Y-70072400D02*
X119753300Y-69638300D01*
X126893000Y-70572800D02*
X126909500Y-70589300D01*
X126893000Y-70147203D02*
X126893000Y-70572800D01*
X126909500Y-70589300D02*
X126909500Y-71240800D01*
D29*
%TO.N,Net-(D12-K)*%
X133951900Y-70908300D02*
X134005000Y-70961400D01*
X138958000Y-70885200D02*
X138704000Y-70885200D01*
X140117400Y-69725800D02*
X138958000Y-70885200D01*
X133217000Y-70908300D02*
X133951900Y-70908300D01*
X141157000Y-69725800D02*
X140117400Y-69725800D01*
X134309800Y-71266200D02*
X134309800Y-72002800D01*
X138704000Y-70885200D02*
X138680900Y-70908300D01*
X134005000Y-70961400D02*
X134309800Y-71266200D01*
X138450000Y-70908300D02*
X137347000Y-70908300D01*
X138680900Y-70908300D02*
X138450000Y-70908300D01*
D31*
%TO.N,Net-(D13-common)*%
X131896800Y-64587900D02*
X131009700Y-65475000D01*
X128036000Y-69539000D02*
X128734500Y-68840500D01*
X131035100Y-62249200D02*
X131896800Y-63110900D01*
X132241600Y-67583200D02*
X132267000Y-67557800D01*
X132267000Y-67035200D02*
X132267000Y-67557800D01*
X131009700Y-65777900D02*
X132267000Y-67035200D01*
X132267000Y-67557800D02*
X132267000Y-69033300D01*
X133179500Y-72802900D02*
X133179500Y-73145800D01*
X120187400Y-70910600D02*
X119614500Y-71483500D01*
X131693600Y-67583200D02*
X132241600Y-67583200D01*
X128734500Y-68065800D02*
X131211000Y-68065800D01*
X131009700Y-65475000D02*
X131009700Y-65777900D01*
X128734500Y-68840500D02*
X128734500Y-68065800D01*
X126435800Y-69539000D02*
X128036000Y-69539000D01*
X132267000Y-71890400D02*
X133179500Y-72802900D01*
X132267000Y-69033300D02*
X132267000Y-71890400D01*
X119614500Y-71483500D02*
X119614500Y-72259100D01*
X131896800Y-63110900D02*
X131896800Y-64587900D01*
X125673800Y-70758200D02*
X125673800Y-70301000D01*
X125673800Y-70301000D02*
X126435800Y-69539000D01*
X131211000Y-68065800D02*
X131693600Y-67583200D01*
%TO.N,/CPU/DC0_RX*%
X114579400Y-93827600D02*
X114554000Y-93853000D01*
X103225600Y-83312000D02*
X100076000Y-80162400D01*
X103225600Y-87249000D02*
X103225600Y-83312000D01*
X86944200Y-76885800D02*
X86944200Y-74369300D01*
X90220800Y-80162400D02*
X86944200Y-76885800D01*
X114554000Y-93853000D02*
X109829600Y-93853000D01*
X109829600Y-93853000D02*
X103225600Y-87249000D01*
X100076000Y-80162400D02*
X90220800Y-80162400D01*
D29*
%TO.N,Net-(J1-Pin_5)*%
X165328600Y-56286400D02*
X175793400Y-56286400D01*
X175793400Y-56286400D02*
X176500800Y-56993800D01*
X176500800Y-56993800D02*
X176500800Y-58521600D01*
X163773400Y-57841600D02*
X165328600Y-56286400D01*
D31*
%TO.N,/CPU/DC1_RX*%
X107264200Y-85953600D02*
X107264200Y-82143600D01*
X89966800Y-77825600D02*
X89966800Y-76403200D01*
X107264200Y-82143600D02*
X103987600Y-78867000D01*
X112598200Y-91287600D02*
X107264200Y-85953600D01*
X114579400Y-91287600D02*
X112598200Y-91287600D01*
X89966800Y-76403200D02*
X88468200Y-74904600D01*
X91008200Y-78867000D02*
X89966800Y-77825600D01*
X103987600Y-78867000D02*
X91008200Y-78867000D01*
X88468200Y-74904600D02*
X88468200Y-74369300D01*
%TO.N,Net-(D17-Pad1)*%
X91405700Y-70620900D02*
X91405700Y-71272400D01*
X91389200Y-70604400D02*
X91405700Y-70620900D01*
X84683600Y-70104000D02*
X84249500Y-69669900D01*
X84249500Y-69669900D02*
X83748200Y-69669900D01*
X91389200Y-70178803D02*
X91389200Y-70604400D01*
%TO.N,Net-(D17-Pad2)*%
X86944200Y-66370200D02*
X88493600Y-66370200D01*
X88493600Y-66370200D02*
X90220800Y-68097400D01*
X90220800Y-68097400D02*
X91405700Y-68097400D01*
X85648200Y-69669900D02*
X85648200Y-67666200D01*
X85648200Y-67666200D02*
X86944200Y-66370200D01*
D29*
%TO.N,Net-(D18-K)*%
X98806000Y-71297800D02*
X98806000Y-72034400D01*
X103177100Y-70939900D02*
X102946200Y-70939900D01*
X105653200Y-69757400D02*
X104613600Y-69757400D01*
X97713200Y-70939900D02*
X98448100Y-70939900D01*
X98448100Y-70939900D02*
X98501200Y-70993000D01*
X104613600Y-69757400D02*
X103454200Y-70916800D01*
X103200200Y-70916800D02*
X103177100Y-70939900D01*
X98501200Y-70993000D02*
X98806000Y-71297800D01*
X102946200Y-70939900D02*
X101843200Y-70939900D01*
X103454200Y-70916800D02*
X103200200Y-70916800D01*
D31*
%TO.N,Net-(D19-common)*%
X97675700Y-72834500D02*
X97675700Y-73177400D01*
X90170000Y-70332600D02*
X90932000Y-69570600D01*
X96763200Y-67589400D02*
X96763200Y-69064900D01*
X95505900Y-65809500D02*
X96763200Y-67066800D01*
X96763200Y-71922000D02*
X97675700Y-72834500D01*
X84683600Y-70942200D02*
X84302600Y-71323200D01*
X93230700Y-68097400D02*
X95707200Y-68097400D01*
X96393000Y-64619500D02*
X95505900Y-65506600D01*
X84302600Y-71323200D02*
X84302600Y-72290700D01*
X90932000Y-69570600D02*
X92532200Y-69570600D01*
X96189800Y-67614800D02*
X96737800Y-67614800D01*
X92532200Y-69570600D02*
X93230700Y-68872100D01*
X96737800Y-67614800D02*
X96763200Y-67589400D01*
X95531300Y-62280800D02*
X96393000Y-63142500D01*
X93230700Y-68872100D02*
X93230700Y-68097400D01*
X95707200Y-68097400D02*
X96189800Y-67614800D01*
X90170000Y-70789800D02*
X90170000Y-70332600D01*
X96763200Y-69064900D02*
X96763200Y-71922000D01*
X95505900Y-65506600D02*
X95505900Y-65809500D01*
X96393000Y-63142500D02*
X96393000Y-64619500D01*
X96763200Y-67066800D02*
X96763200Y-67589400D01*
%TO.N,/CPU/DA0_RX*%
X157911800Y-76174600D02*
X157911800Y-74318500D01*
X156667200Y-86360000D02*
X156667200Y-77419200D01*
X114579400Y-121767600D02*
X114630200Y-121818400D01*
X114630200Y-121818400D02*
X121208800Y-121818400D01*
X121208800Y-121818400D02*
X156667200Y-86360000D01*
X156667200Y-77419200D02*
X157911800Y-76174600D01*
%TO.N,Net-(D21-common)*%
X99087300Y-62280800D02*
X99087300Y-65532000D01*
X98018600Y-67284600D02*
X99061900Y-66241300D01*
X98018600Y-68046600D02*
X98806000Y-68046600D01*
X93230700Y-70319900D02*
X93230700Y-71272400D01*
X100893200Y-71937200D02*
X101485700Y-72529700D01*
X94361000Y-69189600D02*
X93230700Y-70319900D01*
X98806000Y-68046600D02*
X99796600Y-69037200D01*
X92961700Y-73509900D02*
X93218000Y-73253600D01*
X100560900Y-69064900D02*
X100893200Y-69064900D01*
X92318200Y-73509900D02*
X92961700Y-73509900D01*
X99087300Y-65532000D02*
X99061900Y-65557400D01*
X98018600Y-68046600D02*
X98018600Y-67284600D01*
X93218000Y-72974200D02*
X93230700Y-72961500D01*
X100893200Y-69064900D02*
X100893200Y-71937200D01*
X101485700Y-72529700D02*
X101485700Y-73177400D01*
X100533200Y-69037200D02*
X100560900Y-69064900D01*
X99061900Y-66241300D02*
X99061900Y-65557400D01*
X93230700Y-72961500D02*
X93230700Y-71272400D01*
X99796600Y-69037200D02*
X100533200Y-69037200D01*
X93218000Y-73253600D02*
X93218000Y-72974200D01*
%TO.N,LCD_MOSI*%
X93472000Y-111607600D02*
X93040200Y-111175800D01*
X93040200Y-111175800D02*
X78257400Y-111175800D01*
X96799400Y-111607600D02*
X93472000Y-111607600D01*
%TO.N,LCD_RS*%
X96799400Y-96367600D02*
X96774000Y-96393000D01*
X84632800Y-98196400D02*
X76327000Y-98196400D01*
X96774000Y-96393000D02*
X86487000Y-96393000D01*
X84658200Y-98221800D02*
X84632800Y-98196400D01*
X86487000Y-96393000D02*
X84658200Y-98221800D01*
%TO.N,LCD_CS*%
X85064600Y-103276400D02*
X76327000Y-103276400D01*
X96799400Y-103987600D02*
X96748600Y-104038400D01*
X85826600Y-104038400D02*
X85064600Y-103276400D01*
X96748600Y-104038400D02*
X85826600Y-104038400D01*
%TO.N,LCD_SCK*%
X98044000Y-95148400D02*
X81026000Y-95148400D01*
X78968600Y-93091000D02*
X78943200Y-93116400D01*
X99060000Y-96164400D02*
X98044000Y-95148400D01*
X98577400Y-109067600D02*
X99060000Y-108585000D01*
X99060000Y-108585000D02*
X99060000Y-96291400D01*
X81026000Y-95148400D02*
X78968600Y-93091000D01*
X99060000Y-96291400D02*
X99060000Y-96164400D01*
X78943200Y-93116400D02*
X76327000Y-93116400D01*
X99060000Y-96291400D02*
X99060000Y-96189800D01*
X96799400Y-109067600D02*
X98577400Y-109067600D01*
%TO.N,Net-(D16-common)*%
X134335200Y-74314200D02*
X135164500Y-73484900D01*
X123972000Y-71799600D02*
X123972000Y-72512700D01*
X129788600Y-73831600D02*
X130271200Y-74314200D01*
X125953200Y-73399800D02*
X124859100Y-73399800D01*
X124859100Y-73399800D02*
X123972000Y-72512700D01*
X123783400Y-71611000D02*
X123972000Y-71799600D01*
X135164500Y-73484900D02*
X135164500Y-73145800D01*
X129788600Y-73399800D02*
X129788600Y-73831600D01*
X130271200Y-74314200D02*
X134335200Y-74314200D01*
X123783400Y-70660500D02*
X123783400Y-71611000D01*
%TO.N,LCD_RST*%
X74472800Y-99949000D02*
X75285600Y-100761800D01*
X75234800Y-82956400D02*
X74472800Y-83718400D01*
X87579200Y-100711000D02*
X87299800Y-100711000D01*
X74472800Y-83718400D02*
X74472800Y-99949000D01*
X75311000Y-100736400D02*
X76327000Y-100736400D01*
X96799400Y-98907600D02*
X89382600Y-98907600D01*
X87274400Y-100736400D02*
X76327000Y-100736400D01*
X76327000Y-82956400D02*
X75234800Y-82956400D01*
X89382600Y-98907600D02*
X87579200Y-100711000D01*
X75285600Y-100761800D02*
X75311000Y-100736400D01*
X87299800Y-100711000D02*
X87274400Y-100736400D01*
%TO.N,Net-(J5-Pin_2)*%
X124614800Y-65924800D02*
X125769600Y-64770000D01*
X121844400Y-65924800D02*
X124614800Y-65924800D01*
X120689600Y-66002600D02*
X120689600Y-64770000D01*
X120202000Y-67763300D02*
X120202000Y-66679600D01*
X120695400Y-66186200D02*
X120695400Y-66008400D01*
X120689600Y-64770000D02*
X121844400Y-65924800D01*
X120202000Y-66679600D02*
X120695400Y-66186200D01*
X120695400Y-66008400D02*
X120689600Y-66002600D01*
%TO.N,Net-(Q1-G)*%
X154103700Y-74139500D02*
X154128300Y-74114900D01*
X153037300Y-74114900D02*
X154128300Y-74114900D01*
X152298400Y-74853800D02*
X153037300Y-74114900D01*
X152298400Y-76913100D02*
X152298400Y-74853800D01*
%TO.N,/CPU/DA1_RX*%
X159435800Y-88646000D02*
X159435800Y-74318500D01*
X123698000Y-124383800D02*
X159435800Y-88646000D01*
X114579400Y-124307600D02*
X114655600Y-124383800D01*
X114655600Y-124383800D02*
X123698000Y-124383800D01*
%TO.N,Net-(D3-common)*%
X168643300Y-72783700D02*
X168643300Y-73126600D01*
X167730800Y-69014100D02*
X167730800Y-71871200D01*
X155651200Y-70891400D02*
X155078300Y-71464300D01*
X167730800Y-67538600D02*
X167730800Y-69014100D01*
X167360600Y-64568700D02*
X166473500Y-65455800D01*
X161137600Y-70281800D02*
X161899600Y-69519800D01*
X166473500Y-65758700D02*
X167730800Y-67016000D01*
X167157400Y-67564000D02*
X167705400Y-67564000D01*
X161137600Y-70739000D02*
X161137600Y-70281800D01*
X167730800Y-71871200D02*
X168643300Y-72783700D01*
X161899600Y-69519800D02*
X163499800Y-69519800D01*
X163499800Y-69519800D02*
X164198300Y-68821300D01*
X166473500Y-65455800D02*
X166473500Y-65758700D01*
X167705400Y-67564000D02*
X167730800Y-67538600D01*
X164198300Y-68046600D02*
X166674800Y-68046600D01*
X166498900Y-62230000D02*
X167360600Y-63091700D01*
X167360600Y-63091700D02*
X167360600Y-64568700D01*
X164198300Y-68821300D02*
X164198300Y-68046600D01*
X167730800Y-67016000D02*
X167730800Y-67538600D01*
X166674800Y-68046600D02*
X167157400Y-67564000D01*
X155078300Y-71464300D02*
X155078300Y-72239900D01*
%TO.N,Net-(J8-Pin_2)*%
X85185800Y-66034200D02*
X85185800Y-64801600D01*
X86055200Y-65684400D02*
X86334600Y-65963800D01*
X85191600Y-66217800D02*
X85191600Y-66040000D01*
X85185800Y-64801600D02*
X86055200Y-65671000D01*
X90265800Y-65410800D02*
X90265800Y-64801600D01*
X86055200Y-65671000D02*
X86055200Y-65684400D01*
X84698200Y-66711200D02*
X85191600Y-66217800D01*
X86334600Y-65963800D02*
X89712800Y-65963800D01*
X89712800Y-65963800D02*
X90265800Y-65410800D01*
X84698200Y-67794900D02*
X84698200Y-66711200D01*
X85191600Y-66040000D02*
X85185800Y-66034200D01*
%TO.N,Net-(D5-common)*%
X170764200Y-68986400D02*
X171500800Y-68986400D01*
X171528500Y-69014100D02*
X171860800Y-69014100D01*
X170029500Y-66190500D02*
X170029500Y-65506600D01*
X171860800Y-71886400D02*
X172453300Y-72478900D01*
X168986200Y-67995800D02*
X169773600Y-67995800D01*
X163929300Y-73459100D02*
X164185600Y-73202800D01*
X163285800Y-73459100D02*
X163929300Y-73459100D01*
X171860800Y-69014100D02*
X171860800Y-71886400D01*
X170054900Y-62230000D02*
X170054900Y-65481200D01*
X165328600Y-69138800D02*
X164198300Y-70269100D01*
X170054900Y-65481200D02*
X170029500Y-65506600D01*
X164198300Y-72910700D02*
X164198300Y-71221600D01*
X164198300Y-70269100D02*
X164198300Y-71221600D01*
X168986200Y-67233800D02*
X170029500Y-66190500D01*
X164185600Y-73202800D02*
X164185600Y-72923400D01*
X164185600Y-72923400D02*
X164198300Y-72910700D01*
X169773600Y-67995800D02*
X170764200Y-68986400D01*
X172453300Y-72478900D02*
X172453300Y-73126600D01*
X168986200Y-67995800D02*
X168986200Y-67233800D01*
X171500800Y-68986400D02*
X171528500Y-69014100D01*
%TO.N,Net-(Q4-G)*%
X118639900Y-74158700D02*
X118664500Y-74134100D01*
X118639900Y-76168400D02*
X118639900Y-74158700D01*
%TO.N,Net-(Q5-G)*%
X125320500Y-75353300D02*
X126872000Y-75353300D01*
X124873700Y-76149200D02*
X124873700Y-75800100D01*
X124873700Y-75800100D02*
X125320500Y-75353300D01*
%TO.N,Net-(J1-Pin_2)*%
X156159200Y-66167000D02*
X156159200Y-65989200D01*
X155665800Y-67744100D02*
X155665800Y-66660400D01*
X155665800Y-66660400D02*
X156159200Y-66167000D01*
X156153400Y-65983400D02*
X156153400Y-64750800D01*
X156159200Y-65989200D02*
X156153400Y-65983400D01*
%TO.N,Net-(Q7-G)*%
X91368200Y-77574100D02*
X91467300Y-77673200D01*
X91368200Y-75384900D02*
X91368200Y-77574100D01*
%TO.N,Net-(D20-common)*%
X86133300Y-72544300D02*
X86944200Y-72544300D01*
X94081600Y-72669400D02*
X94386400Y-72669400D01*
X81887300Y-71143100D02*
X80659100Y-71143100D01*
X94894400Y-73177400D02*
X95850700Y-73177400D01*
X94386400Y-72669400D02*
X94894400Y-73177400D01*
X82626200Y-71882000D02*
X81887300Y-71143100D01*
X85775800Y-72186800D02*
X86133300Y-72544300D01*
%TO.N,Net-(D22-common)*%
X94284800Y-73863200D02*
X94767400Y-74345800D01*
X99660700Y-73516500D02*
X99660700Y-73177400D01*
X94284800Y-73431400D02*
X94284800Y-73863200D01*
X94767400Y-74345800D02*
X98831400Y-74345800D01*
X90449400Y-73431400D02*
X89355300Y-73431400D01*
X88279600Y-71642600D02*
X88468200Y-71831200D01*
X89355300Y-73431400D02*
X88468200Y-72544300D01*
X98831400Y-74345800D02*
X99660700Y-73516500D01*
X88279600Y-70692100D02*
X88279600Y-71642600D01*
X88468200Y-71831200D02*
X88468200Y-72544300D01*
%TO.N,Net-(D15-common)*%
X134565700Y-66209700D02*
X134565700Y-65525800D01*
X128734500Y-70288300D02*
X128734500Y-71240800D01*
X135300400Y-69005600D02*
X136037000Y-69005600D01*
X136397000Y-71905600D02*
X136989500Y-72498100D01*
X136064700Y-69033300D02*
X136397000Y-69033300D01*
X129864800Y-69158000D02*
X128734500Y-70288300D01*
X136989500Y-72498100D02*
X136989500Y-73145800D01*
X136397000Y-69033300D02*
X136397000Y-71905600D01*
X128465500Y-73478300D02*
X128721800Y-73222000D01*
X133522400Y-68015000D02*
X134309800Y-68015000D01*
X134591100Y-65500400D02*
X134565700Y-65525800D01*
X128721800Y-72942600D02*
X128734500Y-72929900D01*
X128734500Y-72929900D02*
X128734500Y-71240800D01*
X133522400Y-68015000D02*
X133522400Y-67253000D01*
X136037000Y-69005600D02*
X136064700Y-69033300D01*
X128721800Y-73222000D02*
X128721800Y-72942600D01*
X133522400Y-67253000D02*
X134565700Y-66209700D01*
X127822000Y-73478300D02*
X128465500Y-73478300D01*
X134591100Y-62249200D02*
X134591100Y-65500400D01*
X134309800Y-68015000D02*
X135300400Y-69005600D01*
D29*
%TO.N,Net-(J5-Pin_5)*%
X129864800Y-56305600D02*
X140329600Y-56305600D01*
X140329600Y-56305600D02*
X141037000Y-57013000D01*
X128309600Y-57860800D02*
X129864800Y-56305600D01*
X141037000Y-57013000D02*
X141037000Y-58540800D01*
D31*
%TO.N,CTP_INT*%
X83464400Y-87122000D02*
X83439000Y-87147400D01*
X83439000Y-91922600D02*
X85344000Y-93827600D01*
X85344000Y-93827600D02*
X96799400Y-93827600D01*
X83464400Y-82931000D02*
X78409800Y-77876400D01*
X78409800Y-77876400D02*
X76327000Y-77876400D01*
X83439000Y-87147400D02*
X83439000Y-91922600D01*
%TO.N,/CPU/{slash}DB0_TX*%
X114528600Y-104165400D02*
X118287800Y-104165400D01*
X118287800Y-104165400D02*
X120464900Y-101988300D01*
X120464900Y-101988300D02*
X120464900Y-76168400D01*
%TO.N,/CPU/{slash}DB1_TX*%
X124688600Y-78003400D02*
X123621800Y-78003400D01*
X118516400Y-109093000D02*
X125323600Y-102285800D01*
X123048700Y-77430300D02*
X123048700Y-76149200D01*
X125323600Y-102285800D02*
X125323600Y-78638400D01*
X125323600Y-78638400D02*
X124688600Y-78003400D01*
X123621800Y-78003400D02*
X123048700Y-77430300D01*
X114579400Y-109067600D02*
X114604800Y-109093000D01*
X114604800Y-109093000D02*
X118516400Y-109093000D01*
%TO.N,/CPU/{slash}DC0_TX*%
X114579400Y-96367600D02*
X107899200Y-96367600D01*
X107899200Y-96367600D02*
X99822000Y-88290400D01*
X85215100Y-77214100D02*
X85215100Y-76250800D01*
X99822000Y-83870800D02*
X97739200Y-81788000D01*
X89789000Y-81788000D02*
X85215100Y-77214100D01*
X97739200Y-81788000D02*
X89789000Y-81788000D01*
X99822000Y-88290400D02*
X99822000Y-83870800D01*
%TO.N,SCL0*%
X96799400Y-86207600D02*
X96697800Y-86309200D01*
X78257400Y-85496400D02*
X76327000Y-85496400D01*
X78282800Y-85521800D02*
X78257400Y-85496400D01*
X79248000Y-86309200D02*
X78460600Y-85521800D01*
X78460600Y-85521800D02*
X78282800Y-85521800D01*
X96697800Y-86309200D02*
X79248000Y-86309200D01*
D29*
%TO.N,Net-(J10-Pin_4)*%
X105533200Y-57044600D02*
X105533200Y-58572400D01*
X94361000Y-56337200D02*
X104825800Y-56337200D01*
X92805800Y-57892400D02*
X94361000Y-56337200D01*
X104825800Y-56337200D02*
X105533200Y-57044600D01*
D31*
%TO.N,SDA0*%
X80695800Y-83743800D02*
X77368400Y-80416400D01*
X77368400Y-80416400D02*
X76327000Y-80416400D01*
X96799400Y-83667600D02*
X96723200Y-83743800D01*
X96723200Y-83743800D02*
X80695800Y-83743800D01*
%TO.N,LCD_MISO*%
X89687400Y-113004600D02*
X88798400Y-112115600D01*
X90855800Y-116738400D02*
X89687400Y-115570000D01*
X88798400Y-112115600D02*
X76708000Y-112115600D01*
X76708000Y-112115600D02*
X76225400Y-111633000D01*
X96799400Y-116687600D02*
X96748600Y-116738400D01*
X89687400Y-115570000D02*
X89687400Y-113004600D01*
X96748600Y-116738400D02*
X90855800Y-116738400D01*
%TO.N,/CPU/{slash}DC1_TX*%
X93292300Y-77673200D02*
X94107000Y-77673200D01*
X95300800Y-76479400D02*
X106121200Y-76479400D01*
X114554000Y-86233000D02*
X114579400Y-86207600D01*
X106121200Y-76479400D02*
X111226600Y-81584800D01*
X111226600Y-84861400D02*
X112598200Y-86233000D01*
X111226600Y-81584800D02*
X111226600Y-84861400D01*
X94107000Y-77673200D02*
X95300800Y-76479400D01*
X112598200Y-86233000D02*
X114554000Y-86233000D01*
%TO.N,/CPU/{slash}DA0_TX*%
X118770400Y-119303800D02*
X152298400Y-85775800D01*
X152298400Y-85775800D02*
X152298400Y-78738100D01*
X114655600Y-119303800D02*
X118770400Y-119303800D01*
X114579400Y-119227600D02*
X114655600Y-119303800D01*
%TO.N,/CPU/{slash}DA1_TX*%
X124282200Y-129413000D02*
X114604800Y-129413000D01*
X162331400Y-79855700D02*
X162331400Y-91363800D01*
X114604800Y-129413000D02*
X114579400Y-129387600D01*
X162331400Y-91363800D02*
X124282200Y-129413000D01*
%TO.N,Net-(J10-Pin_2)*%
X98552000Y-59893200D02*
X97356300Y-61088900D01*
X97356300Y-61088900D02*
X97356300Y-62280800D01*
X100533200Y-58572400D02*
X99212400Y-59893200D01*
X99212400Y-59893200D02*
X98552000Y-59893200D01*
%TO.N,Net-(J10-Pin_3)*%
X100912300Y-60834900D02*
X100912300Y-62280800D01*
X103033200Y-58714000D02*
X100912300Y-60834900D01*
X103033200Y-58572400D02*
X103033200Y-58714000D01*
%TO.N,Net-(Q2-G)*%
X162331400Y-75338500D02*
X162335800Y-75334100D01*
X162331400Y-78030700D02*
X162331400Y-75338500D01*
%TO.N,Net-(Q6-G)*%
X83390100Y-76250800D02*
X83352600Y-76213300D01*
X83352600Y-76213300D02*
X83352600Y-74165700D01*
%TO.N,Net-(J3-Pin_2)*%
X170180000Y-59842400D02*
X169519600Y-59842400D01*
X168323900Y-61038100D02*
X168323900Y-62230000D01*
X169519600Y-59842400D02*
X168323900Y-61038100D01*
X171500800Y-58521600D02*
X170180000Y-59842400D01*
%TO.N,Net-(J3-Pin_3)*%
X174000800Y-58521600D02*
X174000800Y-58663200D01*
X171879900Y-60784100D02*
X171879900Y-62230000D01*
X174000800Y-58663200D02*
X171879900Y-60784100D01*
%TO.N,Net-(J7-Pin_2)*%
X134055800Y-59861600D02*
X132860100Y-61057300D01*
X132860100Y-61057300D02*
X132860100Y-62249200D01*
X136037000Y-58540800D02*
X134716200Y-59861600D01*
X134716200Y-59861600D02*
X134055800Y-59861600D01*
%TO.N,Net-(J7-Pin_3)*%
X138537000Y-58540800D02*
X138537000Y-58682400D01*
X136416100Y-60803300D02*
X136416100Y-62249200D01*
X138537000Y-58682400D02*
X136416100Y-60803300D01*
%TO.N,/CPU/ACTIVE_A*%
X180263800Y-68351400D02*
X179501800Y-67589400D01*
X179501800Y-67589400D02*
X175590200Y-67589400D01*
X152857200Y-131953000D02*
X180314600Y-104495600D01*
X114579400Y-131927600D02*
X114604800Y-131953000D01*
X173736000Y-65735200D02*
X173736000Y-65278000D01*
X180314600Y-104267000D02*
X180263800Y-104216200D01*
X180263800Y-104216200D02*
X180263800Y-68351400D01*
X114604800Y-131953000D02*
X152857200Y-131953000D01*
X180314600Y-104495600D02*
X180314600Y-104267000D01*
X175590200Y-67589400D02*
X173736000Y-65735200D01*
%TO.N,Net-(D23-A)*%
X138323000Y-62124100D02*
X138323000Y-60750600D01*
%TO.N,/CPU/ACTIVE_B*%
X143916400Y-67544000D02*
X143098200Y-66725800D01*
X143098200Y-66725800D02*
X139542200Y-66725800D01*
X143916400Y-90627200D02*
X143916400Y-67544000D01*
X139542200Y-66725800D02*
X138272200Y-65455800D01*
X114579400Y-116687600D02*
X114630200Y-116738400D01*
X114630200Y-116738400D02*
X117805200Y-116738400D01*
X117805200Y-116738400D02*
X143916400Y-90627200D01*
%TO.N,Net-(D24-A)*%
X102819200Y-62155700D02*
X102819200Y-60782200D01*
%TO.N,/CPU/ACTIVE_C*%
X114579400Y-78714600D02*
X108178600Y-72313800D01*
X114579400Y-83794600D02*
X114579400Y-78714600D01*
X108178600Y-67386200D02*
X107365800Y-66573400D01*
X103962200Y-66573400D02*
X102819200Y-65430400D01*
X108178600Y-72313800D02*
X108178600Y-67386200D01*
X107365800Y-66573400D02*
X103962200Y-66573400D01*
X114528600Y-83845400D02*
X114579400Y-83794600D01*
%TO.N,SD_CS*%
X84709000Y-83007200D02*
X84709000Y-80873600D01*
X84709000Y-80873600D02*
X79171800Y-75336400D01*
X88849200Y-91287600D02*
X96799400Y-91287600D01*
X79171800Y-75336400D02*
X76327000Y-75336400D01*
X84683600Y-87122000D02*
X88849200Y-91287600D01*
%TD*%
D32*
X69850000Y-52070000D02*
X191770000Y-52070000D01*
X191770000Y-133350000D01*
X69850000Y-133350000D01*
X69850000Y-52070000D01*
M02*
