M48
; DRILL file {KiCad 8.0.8} date 2025-11-10T08:34:58-0700
; FORMAT={-:-/ absolute / inch / decimal}
; #@! TF.CreationDate,2025-11-10T08:34:58-07:00
; #@! TF.GenerationSoftware,Kicad,Pcbnew,8.0.8
; #@! TF.FileFunction,Plated,1,2,PTH
FMAT,2
INCH
; #@! TA.AperFunction,Plated,PTH,ViaDrill
T1C0.0118
; #@! TA.AperFunction,Plated,PTH,ViaDrill
T2C0.0197
; #@! TA.AperFunction,Plated,PTH,ComponentDrill
T3C0.0276
; #@! TA.AperFunction,Plated,PTH,ComponentDrill
T4C0.0394
; #@! TA.AperFunction,Plated,PTH,ComponentDrill
T5C0.0402
; #@! TA.AperFunction,Plated,PTH,ComponentDrill
T6C0.0470
; #@! TA.AperFunction,Plated,PTH,ComponentDrill
T7C0.0472
%
G90
G05
T1
X3.213Y-2.667
X3.253Y-2.83
X3.254Y-4.982
X3.286Y-3.265
X3.286Y-3.43
X3.334Y-2.76
X3.334Y-2.793
X3.334Y-3.43
X3.335Y-3.268
X3.377Y-2.842
X3.392Y-2.96
X3.477Y-4.464
X3.48Y-5.197
X3.494Y-2.654
X3.55Y-2.787
X3.561Y-2.891
X3.598Y-2.7629
X3.6538Y-2.2792
X3.704Y-2.861
X3.71Y-2.96
X3.712Y-2.891
X3.715Y-2.724
X3.728Y-2.793
X3.832Y-2.62
X3.859Y-2.679
X3.89Y-2.836
X3.891Y-2.768
X3.972Y-2.629
X4.048Y-2.393
X4.048Y-2.576
X4.053Y-2.7929
X4.6108Y-2.6658
X4.6508Y-2.8288
X4.7318Y-2.7588
X4.7318Y-2.7918
X4.7778Y-2.9608
X4.7818Y-2.8598
X4.8918Y-2.6528
X4.9257Y-2.9464
X4.9478Y-2.7858
X4.9588Y-2.8898
X4.983Y-3.023
X4.9958Y-2.7617
X5.0516Y-2.278
X5.1018Y-2.8598
X5.1078Y-2.9588
X5.1098Y-2.8898
X5.1128Y-2.7228
X5.1258Y-2.7918
X5.2298Y-2.6188
X5.2568Y-2.6778
X5.2878Y-2.8348
X5.2888Y-2.7668
X5.3698Y-2.6278
X5.4438Y-2.577
X5.4458Y-2.3918
X5.4508Y-2.7917
X6.007Y-2.665
X6.047Y-2.828
X6.128Y-2.758
X6.128Y-2.791
X6.174Y-2.96
X6.178Y-2.859
X6.288Y-2.652
X6.344Y-2.785
X6.355Y-2.889
X6.392Y-2.7609
X6.4478Y-2.2772
X6.498Y-2.859
X6.504Y-2.958
X6.506Y-2.889
X6.509Y-2.722
X6.522Y-2.791
X6.626Y-2.618
X6.653Y-2.677
X6.684Y-2.834
X6.685Y-2.766
X6.766Y-2.627
X6.84Y-2.57
X6.842Y-2.391
X6.847Y-2.7909
T2
X2.916Y-2.691
X2.968Y-2.774
X3.001Y-4.395
X3.081Y-4.377
X3.2538Y-2.1822
X3.399Y-5.197
X3.444Y-2.6447
X3.4545Y-2.103
X4.079Y-2.915
X4.245Y-2.516
X4.246Y-2.103
X4.6498Y-2.144
X4.836Y-2.6493
X4.8498Y-2.102
X5.4768Y-2.9138
X5.6158Y-2.519
X5.6178Y-2.108
X5.7258Y-2.315
X5.898Y-2.344
X6.047Y-2.177
X6.238Y-2.6427
X6.873Y-2.913
T3
X2.839Y-2.598
X7.356Y-2.703
T4
X3.2538Y-2.5512
X3.3538Y-2.5512
X3.4538Y-2.5512
X3.5538Y-2.5512
X3.6538Y-2.5512
X4.6516Y-2.55
X4.7516Y-2.55
X4.8516Y-2.55
X4.9516Y-2.55
X5.0516Y-2.55
X6.0478Y-2.5492
X6.1478Y-2.5492
X6.2478Y-2.5492
X6.3478Y-2.5492
X6.4478Y-2.5492
T5
X3.811Y-3.294
X3.811Y-3.394
X3.811Y-3.494
X3.811Y-3.594
X3.811Y-3.694
X3.811Y-3.794
X3.811Y-3.894
X3.811Y-3.994
X3.811Y-4.094
X3.811Y-4.194
X3.811Y-4.294
X3.811Y-4.394
X3.811Y-4.494
X3.811Y-4.594
X3.811Y-4.694
X3.811Y-4.794
X3.811Y-4.894
X3.811Y-4.994
X3.811Y-5.094
X3.811Y-5.194
X4.511Y-3.294
X4.511Y-3.394
X4.511Y-3.494
X4.511Y-3.594
X4.511Y-3.694
X4.511Y-3.794
X4.511Y-3.894
X4.511Y-3.994
X4.511Y-4.094
X4.511Y-4.194
X4.511Y-4.294
X4.511Y-4.394
X4.511Y-4.494
X4.511Y-4.594
X4.511Y-4.694
X4.511Y-4.794
X4.511Y-4.894
X4.511Y-4.994
X4.511Y-5.094
X4.511Y-5.194
T6
X3.8596Y-2.306
X3.958Y-2.306
X4.0564Y-2.306
X4.1549Y-2.306
X5.2574Y-2.3048
X5.3558Y-2.3048
X5.4542Y-2.3048
X5.5526Y-2.3048
X6.6536Y-2.304
X6.752Y-2.304
X6.8504Y-2.304
X6.9489Y-2.304
T7
X3.005Y-2.966
X3.005Y-3.066
X3.005Y-3.166
X3.005Y-3.266
X3.005Y-3.366
X3.005Y-3.466
X3.005Y-3.566
X3.005Y-3.666
X3.005Y-3.766
X3.005Y-3.866
X3.005Y-3.966
X3.005Y-4.066
X3.005Y-4.166
X3.005Y-4.266
M30
