%TF.GenerationSoftware,KiCad,Pcbnew,8.0.8*%
%TF.CreationDate,2025-11-10T08:34:54-07:00*%
%TF.ProjectId,WiegandTest,57696567-616e-4645-9465-73742e6b6963,A*%
%TF.SameCoordinates,Original*%
%TF.FileFunction,Soldermask,Top*%
%TF.FilePolarity,Negative*%
%FSLAX46Y46*%
G04 Gerber Fmt 4.6, Leading zero omitted, Abs format (unit mm)*
G04 Created by KiCad (PCBNEW 8.0.8) date 2025-11-10 08:34:54*
%MOMM*%
%LPD*%
G01*
G04 APERTURE LIST*
G04 Aperture macros list*
%AMRoundRect*
0 Rectangle with rounded corners*
0 $1 Rounding radius*
0 $2 $3 $4 $5 $6 $7 $8 $9 X,Y pos of 4 corners*
0 Add a 4 corners polygon primitive as box body*
4,1,4,$2,$3,$4,$5,$6,$7,$8,$9,$2,$3,0*
0 Add four circle primitives for the rounded corners*
1,1,$1+$1,$2,$3*
1,1,$1+$1,$4,$5*
1,1,$1+$1,$6,$7*
1,1,$1+$1,$8,$9*
0 Add four rect primitives between the rounded corners*
20,1,$1+$1,$2,$3,$4,$5,0*
20,1,$1+$1,$4,$5,$6,$7,0*
20,1,$1+$1,$6,$7,$8,$9,0*
20,1,$1+$1,$8,$9,$2,$3,0*%
G04 Aperture macros list end*
%ADD10C,1.701800*%
%ADD11RoundRect,0.150000X-0.150000X0.587500X-0.150000X-0.587500X0.150000X-0.587500X0.150000X0.587500X0*%
%ADD12RoundRect,0.237500X-0.250000X-0.237500X0.250000X-0.237500X0.250000X0.237500X-0.250000X0.237500X0*%
%ADD13RoundRect,0.237500X0.250000X0.237500X-0.250000X0.237500X-0.250000X-0.237500X0.250000X-0.237500X0*%
%ADD14R,1.500000X1.500000*%
%ADD15RoundRect,0.150000X0.150000X-0.587500X0.150000X0.587500X-0.150000X0.587500X-0.150000X-0.587500X0*%
%ADD16RoundRect,0.237500X-0.237500X0.250000X-0.237500X-0.250000X0.237500X-0.250000X0.237500X0.250000X0*%
%ADD17RoundRect,0.250000X0.475000X-0.337500X0.475000X0.337500X-0.475000X0.337500X-0.475000X-0.337500X0*%
%ADD18C,3.200000*%
%ADD19RoundRect,0.250000X-0.475000X0.337500X-0.475000X-0.337500X0.475000X-0.337500X0.475000X0.337500X0*%
%ADD20R,1.700000X1.700000*%
%ADD21O,1.700000X1.700000*%
%ADD22C,2.500000*%
%ADD23RoundRect,0.250000X-0.900000X1.000000X-0.900000X-1.000000X0.900000X-1.000000X0.900000X1.000000X0*%
%ADD24RoundRect,0.237500X0.237500X-0.250000X0.237500X0.250000X-0.237500X0.250000X-0.237500X-0.250000X0*%
%ADD25O,1.800000X1.800000*%
%ADD26O,1.500000X1.500000*%
%ADD27R,3.500000X1.700000*%
%ADD28R,2.000000X2.000000*%
%ADD29C,2.000000*%
%TA.AperFunction,Profile*%
%ADD30C,0.050000*%
%TD*%
G04 APERTURE END LIST*
D10*
%TO.C,J10*%
X98033200Y-58572400D03*
X100533200Y-58572400D03*
X103033200Y-58572400D03*
X105533200Y-58572400D03*
%TD*%
D11*
%TO.C,D6*%
X160197200Y-68766300D03*
X158297200Y-68766300D03*
X159247200Y-70641300D03*
%TD*%
D12*
%TO.C,R29*%
X91405700Y-68097400D03*
X93230700Y-68097400D03*
%TD*%
D11*
%TO.C,D4*%
X152576700Y-69217300D03*
X150676700Y-69217300D03*
X151626700Y-71092300D03*
%TD*%
D13*
%TO.C,R35*%
X101485700Y-73177400D03*
X99660700Y-73177400D03*
%TD*%
D14*
%TO.C,TP2*%
X72110600Y-65989200D03*
%TD*%
D15*
%TO.C,Q1*%
X154128300Y-74114900D03*
X156028300Y-74114900D03*
X155078300Y-72239900D03*
%TD*%
%TO.C,D1*%
X154715800Y-69619100D03*
X156615800Y-69619100D03*
X155665800Y-67744100D03*
%TD*%
D16*
%TO.C,R12*%
X162331400Y-78030700D03*
X162331400Y-79855700D03*
%TD*%
D15*
%TO.C,Q7*%
X91368200Y-75384900D03*
X93268200Y-75384900D03*
X92318200Y-73509900D03*
%TD*%
%TO.C,Q2*%
X162335800Y-75334100D03*
X164235800Y-75334100D03*
X163285800Y-73459100D03*
%TD*%
D12*
%TO.C,R27*%
X118639900Y-76168400D03*
X120464900Y-76168400D03*
%TD*%
%TO.C,R10*%
X170029500Y-65506600D03*
X171854500Y-65506600D03*
%TD*%
D11*
%TO.C,D22*%
X89229600Y-68817100D03*
X87329600Y-68817100D03*
X88279600Y-70692100D03*
%TD*%
D17*
%TO.C,C6*%
X145409600Y-62200700D03*
X145409600Y-60125700D03*
%TD*%
D16*
%TO.C,R5*%
X157911800Y-72493500D03*
X157911800Y-74318500D03*
%TD*%
D18*
%TO.C,H1*%
X74930000Y-57150000D03*
%TD*%
D19*
%TO.C,C1*%
X88366600Y-128578700D03*
X88366600Y-130653700D03*
%TD*%
D16*
%TO.C,R13*%
X173786800Y-62104900D03*
X173786800Y-63929900D03*
%TD*%
%TO.C,R24*%
X123972000Y-72512700D03*
X123972000Y-74337700D03*
%TD*%
D19*
%TO.C,C4*%
X149822000Y-56032400D03*
X149822000Y-58107400D03*
%TD*%
D14*
%TO.C,TP1*%
X186842400Y-68656200D03*
%TD*%
D12*
%TO.C,R9*%
X166473500Y-65455800D03*
X168298500Y-65455800D03*
%TD*%
D15*
%TO.C,Q4*%
X118664500Y-74134100D03*
X120564500Y-74134100D03*
X119614500Y-72259100D03*
%TD*%
D16*
%TO.C,R8*%
X159435800Y-72493500D03*
X159435800Y-74318500D03*
%TD*%
D20*
%TO.C,J1*%
X153613400Y-64750800D03*
D21*
X156153400Y-64750800D03*
X158693400Y-64750800D03*
X161233400Y-64750800D03*
X163773400Y-64750800D03*
%TD*%
D11*
%TO.C,D14*%
X117112900Y-69236500D03*
X115212900Y-69236500D03*
X116162900Y-71111500D03*
%TD*%
D12*
%TO.C,R1*%
X162373300Y-68046600D03*
X164198300Y-68046600D03*
%TD*%
D13*
%TO.C,R32*%
X97675700Y-73177400D03*
X95850700Y-73177400D03*
%TD*%
D11*
%TO.C,D20*%
X81609100Y-69268100D03*
X79709100Y-69268100D03*
X80659100Y-71143100D03*
%TD*%
D13*
%TO.C,R19*%
X132860100Y-62249200D03*
X131035100Y-62249200D03*
%TD*%
D17*
%TO.C,C2*%
X88341200Y-117166300D03*
X88341200Y-115091300D03*
%TD*%
D15*
%TO.C,D3*%
X166780800Y-70889100D03*
X168680800Y-70889100D03*
X167730800Y-69014100D03*
%TD*%
%TO.C,D17*%
X83748200Y-69669900D03*
X85648200Y-69669900D03*
X84698200Y-67794900D03*
%TD*%
D11*
%TO.C,D16*%
X124733400Y-68785500D03*
X122833400Y-68785500D03*
X123783400Y-70660500D03*
%TD*%
D15*
%TO.C,D19*%
X95813200Y-70939900D03*
X97713200Y-70939900D03*
X96763200Y-69064900D03*
%TD*%
D18*
%TO.C,H4*%
X186690000Y-128270000D03*
%TD*%
D13*
%TO.C,R34*%
X100912300Y-62280800D03*
X99087300Y-62280800D03*
%TD*%
D22*
%TO.C,H6*%
X178943000Y-63982600D03*
%TD*%
D15*
%TO.C,Q6*%
X83352600Y-74165700D03*
X85252600Y-74165700D03*
X84302600Y-72290700D03*
%TD*%
D13*
%TO.C,R7*%
X172453300Y-73126600D03*
X170628300Y-73126600D03*
%TD*%
D19*
%TO.C,C3*%
X86283800Y-128600200D03*
X86283800Y-130675200D03*
%TD*%
D12*
%TO.C,R2*%
X162373300Y-71221600D03*
X164198300Y-71221600D03*
%TD*%
D23*
%TO.C,D2*%
X176620800Y-69706600D03*
X176620800Y-74006600D03*
%TD*%
D16*
%TO.C,R41*%
X138323000Y-62124100D03*
X138323000Y-63949100D03*
%TD*%
D13*
%TO.C,R20*%
X133179500Y-73145800D03*
X131354500Y-73145800D03*
%TD*%
D23*
%TO.C,D12*%
X141157000Y-69725800D03*
X141157000Y-74025800D03*
%TD*%
D12*
%TO.C,R25*%
X131009700Y-65475000D03*
X132834700Y-65475000D03*
%TD*%
%TO.C,R18*%
X126909500Y-71240800D03*
X128734500Y-71240800D03*
%TD*%
%TO.C,R30*%
X91405700Y-71272400D03*
X93230700Y-71272400D03*
%TD*%
D10*
%TO.C,J7*%
X133537000Y-58540800D03*
X136037000Y-58540800D03*
X138537000Y-58540800D03*
X141037000Y-58540800D03*
%TD*%
D12*
%TO.C,R17*%
X126909500Y-68065800D03*
X128734500Y-68065800D03*
%TD*%
D22*
%TO.C,H7*%
X178943000Y-119888000D03*
%TD*%
D15*
%TO.C,D21*%
X99943200Y-70939900D03*
X101843200Y-70939900D03*
X100893200Y-69064900D03*
%TD*%
D12*
%TO.C,R38*%
X99061900Y-65557400D03*
X100886900Y-65557400D03*
%TD*%
D22*
%TO.C,H8*%
X76784200Y-119888000D03*
%TD*%
D15*
%TO.C,Q5*%
X126872000Y-75353300D03*
X128772000Y-75353300D03*
X127822000Y-73478300D03*
%TD*%
D13*
%TO.C,R31*%
X97356300Y-62280800D03*
X95531300Y-62280800D03*
%TD*%
D18*
%TO.C,H3*%
X74930000Y-128270000D03*
%TD*%
D10*
%TO.C,J3*%
X169000800Y-58521600D03*
X171500800Y-58521600D03*
X174000800Y-58521600D03*
X176500800Y-58521600D03*
%TD*%
D16*
%TO.C,R36*%
X88468200Y-72544300D03*
X88468200Y-74369300D03*
%TD*%
%TO.C,R21*%
X122448000Y-72512700D03*
X122448000Y-74337700D03*
%TD*%
D13*
%TO.C,R23*%
X136989500Y-73145800D03*
X135164500Y-73145800D03*
%TD*%
D12*
%TO.C,R40*%
X91467300Y-77673200D03*
X93292300Y-77673200D03*
%TD*%
D22*
%TO.C,H5*%
X76809600Y-63957200D03*
%TD*%
D13*
%TO.C,R3*%
X168323900Y-62230000D03*
X166498900Y-62230000D03*
%TD*%
D15*
%TO.C,D11*%
X119252000Y-69638300D03*
X121152000Y-69638300D03*
X120202000Y-67763300D03*
%TD*%
D13*
%TO.C,R6*%
X171879900Y-62230000D03*
X170054900Y-62230000D03*
%TD*%
D15*
%TO.C,D5*%
X170910800Y-70889100D03*
X172810800Y-70889100D03*
X171860800Y-69014100D03*
%TD*%
D18*
%TO.C,H2*%
X186690000Y-57150000D03*
%TD*%
D16*
%TO.C,R42*%
X102819200Y-62155700D03*
X102819200Y-63980700D03*
%TD*%
D24*
%TO.C,R14*%
X84074000Y-125651900D03*
X84074000Y-123826900D03*
%TD*%
D23*
%TO.C,D18*%
X105653200Y-69757400D03*
X105653200Y-74057400D03*
%TD*%
D13*
%TO.C,R4*%
X168643300Y-73126600D03*
X166818300Y-73126600D03*
%TD*%
D15*
%TO.C,D15*%
X135447000Y-70908300D03*
X137347000Y-70908300D03*
X136397000Y-69033300D03*
%TD*%
D12*
%TO.C,R37*%
X95505900Y-65506600D03*
X97330900Y-65506600D03*
%TD*%
D25*
%TO.C,U1*%
X108414400Y-131797600D03*
D26*
X108114400Y-128767600D03*
X103264400Y-128767600D03*
D25*
X102964400Y-131797600D03*
D21*
X114579400Y-131927600D03*
D27*
X115479400Y-131927600D03*
D21*
X114579400Y-129387600D03*
D27*
X115479400Y-129387600D03*
D20*
X114579400Y-126847600D03*
D27*
X115479400Y-126847600D03*
D21*
X114579400Y-124307600D03*
D27*
X115479400Y-124307600D03*
D21*
X114579400Y-121767600D03*
D27*
X115479400Y-121767600D03*
D21*
X114579400Y-119227600D03*
D27*
X115479400Y-119227600D03*
D21*
X114579400Y-116687600D03*
D27*
X115479400Y-116687600D03*
D20*
X114579400Y-114147600D03*
D27*
X115479400Y-114147600D03*
D21*
X114579400Y-111607600D03*
D27*
X115479400Y-111607600D03*
D21*
X114579400Y-109067600D03*
D27*
X115479400Y-109067600D03*
D21*
X114579400Y-106527600D03*
D27*
X115479400Y-106527600D03*
D21*
X114579400Y-103987600D03*
D27*
X115479400Y-103987600D03*
D20*
X114579400Y-101447600D03*
D27*
X115479400Y-101447600D03*
D21*
X114579400Y-98907600D03*
D27*
X115479400Y-98907600D03*
D21*
X114579400Y-96367600D03*
D27*
X115479400Y-96367600D03*
D21*
X114579400Y-93827600D03*
D27*
X115479400Y-93827600D03*
D21*
X114579400Y-91287600D03*
D27*
X115479400Y-91287600D03*
D20*
X114579400Y-88747600D03*
D27*
X115479400Y-88747600D03*
D21*
X114579400Y-86207600D03*
D27*
X115479400Y-86207600D03*
D21*
X114579400Y-83667600D03*
D27*
X115479400Y-83667600D03*
D21*
X96799400Y-83667600D03*
D27*
X95899400Y-83667600D03*
D21*
X96799400Y-86207600D03*
D27*
X95899400Y-86207600D03*
D20*
X96799400Y-88747600D03*
D27*
X95899400Y-88747600D03*
D21*
X96799400Y-91287600D03*
D27*
X95899400Y-91287600D03*
D21*
X96799400Y-93827600D03*
D27*
X95899400Y-93827600D03*
D21*
X96799400Y-96367600D03*
D27*
X95899400Y-96367600D03*
D21*
X96799400Y-98907600D03*
D27*
X95899400Y-98907600D03*
D20*
X96799400Y-101447600D03*
D27*
X95899400Y-101447600D03*
D21*
X96799400Y-103987600D03*
D27*
X95899400Y-103987600D03*
D21*
X96799400Y-106527600D03*
D27*
X95899400Y-106527600D03*
D21*
X96799400Y-109067600D03*
D27*
X95899400Y-109067600D03*
D21*
X96799400Y-111607600D03*
D27*
X95899400Y-111607600D03*
D20*
X96799400Y-114147600D03*
D27*
X95899400Y-114147600D03*
D21*
X96799400Y-116687600D03*
D27*
X95899400Y-116687600D03*
D21*
X96799400Y-119227600D03*
D27*
X95899400Y-119227600D03*
D21*
X96799400Y-121767600D03*
D27*
X95899400Y-121767600D03*
D21*
X96799400Y-124307600D03*
D27*
X95899400Y-124307600D03*
D20*
X96799400Y-126847600D03*
D27*
X95899400Y-126847600D03*
D21*
X96799400Y-129387600D03*
D27*
X95899400Y-129387600D03*
D21*
X96799400Y-131927600D03*
D27*
X95899400Y-131927600D03*
%TD*%
D12*
%TO.C,R26*%
X134565700Y-65525800D03*
X136390700Y-65525800D03*
%TD*%
D16*
%TO.C,R33*%
X86944200Y-72544300D03*
X86944200Y-74369300D03*
%TD*%
%TO.C,R11*%
X152298400Y-76913100D03*
X152298400Y-78738100D03*
%TD*%
D15*
%TO.C,D13*%
X131317000Y-70908300D03*
X133217000Y-70908300D03*
X132267000Y-69033300D03*
%TD*%
D12*
%TO.C,R39*%
X83390100Y-76250800D03*
X85215100Y-76250800D03*
%TD*%
D13*
%TO.C,R22*%
X136416100Y-62249200D03*
X134591100Y-62249200D03*
%TD*%
D20*
%TO.C,J5*%
X118149600Y-64770000D03*
D21*
X120689600Y-64770000D03*
X123229600Y-64770000D03*
X125769600Y-64770000D03*
X128309600Y-64770000D03*
%TD*%
D20*
%TO.C,J8*%
X82645800Y-64801600D03*
D21*
X85185800Y-64801600D03*
X87725800Y-64801600D03*
X90265800Y-64801600D03*
X92805800Y-64801600D03*
%TD*%
D13*
%TO.C,R28*%
X124873700Y-76149200D03*
X123048700Y-76149200D03*
%TD*%
D28*
%TO.C,J4*%
X76327000Y-75336400D03*
D29*
X76327000Y-77876400D03*
X76327000Y-80416400D03*
X76327000Y-82956400D03*
X76327000Y-85496400D03*
X76327000Y-88036400D03*
X76327000Y-90576400D03*
X76327000Y-93116400D03*
X76327000Y-95656400D03*
X76327000Y-98196400D03*
X76327000Y-100736400D03*
X76327000Y-103276400D03*
X76327000Y-105816400D03*
X76327000Y-108356400D03*
%TD*%
D30*
X69850000Y-52070000D02*
X191770000Y-52070000D01*
X191770000Y-133350000D01*
X69850000Y-133350000D01*
X69850000Y-52070000D01*
M02*
